<?xml version="1.0" encoding="UTF-8"?>
<svg viewBox="0 0 271.25 217.5" xmlns="http://www.w3.org/2000/svg">
 <g transform="matrix(1.25 0 0 -1.25 0 217.5)">
  <g transform="translate(0 .8) scale(.24)">
   <path d="m688.2 194.17c-3.144-3.543-1.965-38.77-2.359-44.277-11.215-48.805-26.363-68.68-53.902-105.28-2.758-9.0547-0.59399-15.941-2.168-22.828-19.672-8.4649-72.004-14.168-88.332-2.9532-5.114 16.926 6.691 32.668 14.558 48.41 11.215 22.828 23.02 36.012 33.84 50.574 11.016 21.254 23.606 51.559 18.688 78.321 8.46-1.574 79.285-0.78499 79.675-1.965" fill="#231f20"/>
   <path d="m679.93 192.4c12.789-47.425-25.77-119.84-55.282-142.28-9.441-7.0859-55.871 2.3633-60.004 12.793-1.769 4.9179 2.754 12.394 12.2 29.32 25.574 40.735 30.886 48.215 39.738 98.196 8.852 0.789 38.363 0.789 63.348 1.968" fill="#7f0000"/>
   <path d="m564.84 55.238c18.691-7.4766 36.004-9.25 54.301-11.02 8.457-7.086 8.457-13.578 4.3279-18.5-6.887-8.2618-27.348-12.199-37.578-6.6915 0 4.5274 1.574 12.398-1.965 14.957-11.805-12.988-2.559-15.152-33.84-12.789-12 2.7539-4.918 32.469 14.754 34.043" fill="#590101"/>
   <path d="m291.98 215.42c-3.344-3.539-2.164-38.766-2.36-44.473-11.215-48.804-26.363-68.48-54.101-105.09-2.754-9.0508-0.59-15.938-2.164-23.024-19.676-8.2656-72.004-13.973-88.336-2.7539-5.114 16.922 6.691 32.668 14.558 48.41 11.215 22.629 23.02 36.012 33.84 50.574 11.016 21.254 23.606 51.36 18.688 78.321 8.461-1.575 79.285-0.786 79.875-1.969" fill="#231f20"/>
   <path d="m283.72 213.65c12.59-47.621-25.969-119.84-55.281-142.28-9.641-7.2812-55.875 2.3594-60.004 12.789-1.969 4.7265 2.754 12.398 12 29.324 25.773 40.735 31.082 48.211 39.937 98 8.656 0.985 38.164 0.985 63.348 2.164" fill="#7f0000"/>
   <path d="m168.62 76.492c18.492-7.4805 35.805-9.4453 54.297-11.219 8.266-6.8867 8.266-13.383 4.133-18.301-6.887-8.461-27.149-12.398-37.379-6.6914 0 4.5273 1.375 12.398-2.164 14.957-11.805-12.988-2.559-15.152-33.84-12.793-12 2.5586-4.719 32.473 14.953 34.047" fill="#590101"/>
   <path d="m415.52 205.19c-2.753-3.738 0-38.964 0-44.476-8.457-49.391-22.621-69.86-48.199-108.04-2.359-9.0508 0.199-15.941-0.98401-22.828-19.277-9.4453-71.215-17.906-88.133-7.4766-5.902 16.531 4.918 32.863 12 49 10.231 23.418 21.246 37.391 31.281 52.344 9.836 21.844 20.852 52.543 14.559 79.109 8.656-1.18 78.887 3.348 79.476 2.363" fill="#231f20"/>
   <path d="m407.66 202.83c14.953-46.836-19.672-121.02-47.804-144.84-9.25-7.6758-56.071-0.5899-60.598 9.6445-2.164 4.7227 1.969 12.594 10.43 29.91 23.605 41.918 28.527 49.59 34.82 99.969 8.656 1.379 38.168 2.953 63.152 5.312" fill="#7f0000"/>
   <path d="m299.85 59.961c18.886-6.4921 36.199-7.4765 54.691-8.2656 8.852-6.4922 9.047-12.988 5.313-18.301-6.493-8.6601-26.563-13.578-37.184-8.4609-0.199 4.5234 0.98401 12.398-2.754 14.758-11.215-13.578-1.773-15.348-33.051-14.562-12.199 2.1641-6.492 32.273 12.985 34.832" fill="#590101"/>
   <path d="m371.85 723.33c14.359-5.113 14.164-13.773 29.507-13.773 37.579 14.757 29.313-10.825 53.118-9.25 27.152 27.156 33.25 1.968 53.711 1.968 23.41 10.036 31.082 6.297 46.625-11.019 14.359-8.465 39.738 17.711 56.066-6.887 7.281-34.637 25.773-10.039 44.855-32.867 11.414-30.305 31.871-4.328 39.743-24.793-1.379-11.219-7.282-21.844-7.282-30.895 22.625-42.902 48.793-86.98 86.563-114.14 60.004-33.063 66.695-61.598 74.172-125.95 2.359-35.816-4.328-87.964 10.425-119.84 32.657-21.844 33.446-18.5 33.446-56.481 17.703-38.176 6.293-45.262-9.446-74.582-0.78497-10.035-0.19501-16.137-4.917-36.996-3.934-6.6914-5.704-36.207-25.18-48.211-5.313 14.363-0.789 6.0977-12.789 18.891-13.379 20.859 3.148 40.145-23.41 52.738-9.836 16.332-4.329 26.961 2.359 46.246 0 13.383 0.39502 7.477-9.836 17.711-12.394 25.582 5.902 54.117 21.051 76.746 0.39398 44.477 2.359 97.805-13.774 141.49-0.78503 0-1.574 0-2.359 0.19601-0.78503-54.508-13.574-80.684-33.051-130.47-12-43.293-3.543-50.969 14.953-89.344 7.672-31.289-6.691-71.434-8.265-102.92 4.1331-45.656 7.871-47.82-51.739-50.574-11.804 0.78515-34.035 0.58984-45.054 9.4453 0 15.348 8.066 26.762 17.707 39.75 8.4611 11.02 9.246 22.434 15.344 41.324 4.132 31.094 0.78894 82.848-37.18 95.442-31.281-6.688-61.777-13.969-95.024-17.117-26.363 0-66.89-2.559-92.464 5.902-28.329 0 4.918-43.687-52.528-26.762-22.625 0-1.969-35.226-47.215-28.34-21.64 9.645-24.593 33.454-40.332 1.774-30.886-22.043-36 19.285-60.593 17.316-32.461-12.988-24.789 15.153-52.528 24.993-26.363 0-42.101 11.609-40.722 40.929-8.067 0.59399-20.067 0.789-23.61 11.809-50.758-15.742-83.414 6.297-83.414 61.793-27.348 34.437-33.84 60.215-34.82 104.1-6.6914 16.727-20.66 0-31.48 21.645-5.1133 22.039-26.559 9.051-22.23 47.82-16.328 38.57-13.77 80.485 12.394 115.52 37.774 23.023 20.461-44.867 23.609-54.512 12.785 0 17.508 11.809 18.297 23.024 4.7187 5.117 10.82 6.886 16.129 9.054 6.6914 24.399 21.64 39.356 45.25 26.567 9.05 0 32.656 17.511 37.773 23.414 1.574 18.894-9.836 25.781 12 40.933 24 8.461 26.559-3.738 26.559 24.008 9.445 23.813 24.394 7.676 37.183 14.957 5.114 15.152 4.918 30.895 27.348 28.535 33.836-17.711 40.133 36.207 64.328 4.524 19.086-10.825 23.414 13.777 40.727 15.152" fill="#231f20"/>
   <path d="m377.75 712.9c11.016-3.539 9.441-11.804 22.23-11.804 11.801 5.507 20.067 12.394 30.887 7.082 23.41-34.239 34.625 6.886 64.133-7.871 15.348-13.973 26.363 1.574 45.25 0.789 9.836-11.614 10.625-18.5 24.394-18.5 48.79 13.578 34.821-12.594 63.547-26.172 35.805-2.953 15.934-12.203 34.032-27.551 25.968-1.379 21.445-11.02 21.445-33.059 14.164-34.636-1.969-21.253-21.051-44.671-7.082-24.008-2.359-43.688-32.461-43.688-17.707-5.902-4.523-31.484-21.64-39.949-31.082-1.375-46.231 5.512-35.02-29.715-1.18-14.363-13.77-16.527-13.77-31.484 4.918-16.532 12.395-25.188 1.575-38.176-47.215-24.403 2.754-33.063-19.871-62.778-7.672-27.351 39.937-45.062-1.18-70.449-28.527-32.863 14.953-53.133-42.496-53.133-28.328-8.265 1.969-38.57-43.281-26.96-38.754 2.953-15.149-60.02-65.707-16.333-33.051 11.02-21.836-21.058-49.184-15.746-14.754 9.84-22.035 27.75-45.25 18.305-17.902 0.98399-19.277 4.524-30.098 21.645-25.773 17.711-61.383-6.493-46.234 45.066 22.035 27.352 43.48 46.246 57.84 79.895 7.672 37.195 3.933 75.171 9.836 114.14 47.808 27.157 69.843 84.422 10.23 104.3-23.015-0.785-27.148-8.855-38.754-17.906 0 28.73-13.183 81.078-41.511 97.41-12.395 0-26.165-6.492-39.938-6.492-3.344 3.933-7.867 33.648-4.918 40.34 12.789 19.09 34.82 7.281 34.82 37.39 5.707 12.989 16.922 6.493 27.153 9.446 22.23 18.3 12 33.058 45.836 26.961 16.922 2.359 24.984 14.953 41.316 13.773 31.082-11.02 31.477 5.902 57.84 5.902" fill="#bd846f"/>
   <path d="m377.16 708.97c11.016-3.543 9.441-11.809 22.231-11.809 11.8 5.512 19.867 12.399 30.687 7.086 23.414-34.242 34.625 6.887 64.137-7.871 15.344-13.973 26.363 1.574 45.25 0.78497 9.836-11.609 9.246-19.09 23.015-19.09 48.789 13.578 29.903-12.984 58.625-26.566 35.809-2.949 15.938-12.199 34.036-27.547 25.968-1.379 22.035-9.644 22.035-31.684 12.789-33.652-1.77-18.695-20.852-42.113-7.082-24.008-2.558-41.719-32.66-41.719-17.707-5.906-4.523-31.488-21.641-39.949-31.082-1.375-46.035 3.543-34.82-31.683-1.18-14.364-13.773-16.528-13.773-31.485 4.918-16.531 14.363-23.418 3.543-36.406-47.215-24.402 2.753-33.059-19.872-62.773-7.671-27.356 39.938-45.067-1.179-70.454-28.528-32.863 14.953-53.132-42.496-53.132-27.344-8.461 1.773-36.407-41.313-24.993-38.758 2.954-13.179-59.625-63.543-15.937-33.051 11.019-21.84-21.059-49.183-15.742-14.758 9.84-22.036 27.746-45.25 18.301-17.903 0.98401-19.282 4.523-30.102 21.644-25.769 17.711-58.035-6.691-43.281 44.867 22.035 27.356 40.922 43.297 55.285 76.946 7.672 37.195 3.734 75.171 9.637 114.14 47.808 27.157 69.843 84.422 10.23 104.3-23.015-0.785-26.953-8.855-38.754-17.906 0 28.73-12.593 78.32-40.136 96.426-12.391 0.789-24.196-5.313-37.969-5.313-3.344 3.934-8.656 29.715-5.703 36.406 12.785 19.086 34.82 7.282 34.82 37.387 5.707 12.988 16.918 6.496 27.148 9.449 22.231 18.301 8.856 32.864 42.692 26.762 16.918 2.359 24.984 14.957 41.316 13.774 31.082-11.02 31.477 5.906 57.84 5.906" fill="#c48c73"/>
   <path d="m376.38 704.84c11.016-3.543 9.441-11.809 22.23-11.809 11.805 5.512 19.872 12.399 30.692 7.086 23.41-34.242 34.625 6.887 64.133-7.871 15.347-13.972 26.363 1.574 45.25 0.78497 9.836-11.609 8.066-19.48 21.836-19.48 48.793 13.578 24.988-13.578 53.711-27.156 35.804-2.953 15.933-12.203 34.035-27.551 25.968-1.379 22.426-7.871 22.426-29.914 11.609-32.664-1.575-16.332-20.657-39.75-7.082-24.008-2.754-39.75-32.855-39.75-17.707-5.906-4.524-31.488-21.641-39.949-31.082-1.375-45.84 1.574-34.625-33.649-1.18-14.367-13.769-16.531-13.769-31.488 4.918-16.531 16.328-21.645 5.507-34.633-47.214-24.402 2.754-33.062-19.871-62.777-7.672-27.352 39.938-45.063-1.179-70.45-28.528-32.863 14.953-53.132-42.496-53.132-26.164-8.856 1.574-34.243-39.149-23.024-38.558 2.949-11.215-59.039-61.578-15.351-33.051 11.019-21.836-21.055-49.184-15.743-14.753 9.84-22.031 27.747-45.246 18.301-17.902 0.985-19.281 4.528-30.101 21.649-25.774 17.711-54.887-7.086-40.328 44.472 22.031 27.356 38.164 40.344 52.527 73.993 7.672 37.195 3.734 75.171 9.637 114.14 47.808 27.157 69.843 84.422 10.23 104.3-23.015-0.785-26.953-8.855-38.754-17.906 0 28.73-12.004 75.566-38.953 95.441-12.394 1.379-22.23-3.933-36.004-3.933-3.344 3.933-9.246 25.582-6.297 32.269 12.789 19.09 34.825 7.285 34.825 37.391 5.703 12.988 16.918 6.496 27.148 9.445 22.23 18.305 5.508 32.473 39.348 26.371 16.918 2.364 24.984 14.957 41.312 13.774 31.086-11.02 31.477 5.906 57.84 5.906" fill="#ca9479"/>
   <path d="m375.59 700.9c11.015-3.543 9.441-11.804 22.23-11.804 11.805 5.508 19.868 12.394 30.688 7.082 23.414-34.242 34.625 6.887 64.137-7.871 15.343-13.973 26.363 1.574 45.25 0.789 9.835-11.614 6.882-19.879 20.656-19.879 48.789 13.578 19.871-14.168 48.594-27.746 35.804-2.949 15.933-12.199 34.035-27.551 25.968-1.375 23.015-6.492 23.015-28.531 10.426-31.684-1.375-13.778-20.461-37.196-7.082-24.007-2.949-37.781-33.05-37.781-17.707-5.906-4.524-31.488-21.641-39.949-31.082-1.379-45.641-0.39499-34.426-35.617-1.183-14.367-13.773-16.531-13.773-31.489 4.918-16.531 18.492-20.07 7.672-33.058-47.215-24.402 2.754-33.063-19.868-62.777-7.675-27.352 39.934-45.063-1.183-70.45-28.524-32.863 14.953-53.132-42.492-53.132-25.379-8.856 1.179-31.684-37.379-20.86-38.563 2.953-9.051-58.644-59.414-14.957-33.051 11.02-21.84-21.055-49.184-15.742-14.754 9.84-22.035 27.746-45.25 18.301-17.902 0.98401-19.277 4.527-30.098 21.648-25.773 17.711-51.742-7.086-37.378 44.473 22.031 27.355 35.41 37.195 49.773 70.844 7.672 37.195 3.734 75.171 9.637 114.14 47.808 27.157 69.843 84.422 10.23 104.3-23.015-0.785-26.953-8.855-38.754-17.906 0 28.73-11.609 72.812-37.578 94.457-12.394 2.164-20.262-2.754-34.035-2.754-3.344 3.938-10.031 21.648-7.082 28.336 12.789 19.09 34.824 7.281 34.824 37.391 5.703 12.988 16.918 6.496 27.149 9.445 22.23 18.301 2.164 32.273 36 26.176 16.921 2.359 24.988 14.953 41.316 13.773 31.082-11.019 31.477 5.902 57.84 5.902" fill="#d39e81"/>
   <path d="m374.8 696.96c11.015-3.543 9.445-11.809 22.23-11.809 11.805 5.512 19.871 12.399 30.692 7.086 23.41-34.242 34.625 6.887 64.136-7.871 15.344-13.973 26.36 1.574 45.246 0.78497 9.836-11.609 5.708-20.465 19.477-20.465 48.789 13.579 14.953-14.562 43.676-28.14 35.805-2.953 15.933-12.203 34.035-27.551 25.969-1.379 23.41-5.1169 23.41-27.156 9.051-30.699-0.98401-11.219-20.066-34.637-7.082-24.008-3.344-35.812-33.446-35.812-17.707-5.907-4.523-31.489-21.64-39.95-31.082-1.379-45.246-2.363-34.035-37.586-1.18-14.367-13.77-16.531-13.77-31.488 4.918-16.527 20.262-18.301 9.442-31.289-47.215-24.402 2.753-33.059-19.872-62.773-7.671-27.356 39.938-45.067-1.179-70.45-28.524-32.867 14.953-53.136-42.492-53.136-24.2-9.246 0.98401-29.516-35.215-18.891-38.563 2.953-7.282-58.051-57.645-14.363-33.051 11.019-21.836-21.059-49.183-15.742-14.754 9.836-22.036 27.746-45.247 18.3-17.902 0.981-19.281 4.524-30.101 21.645-25.774 17.711-48.395-7.477-34.231 44.082 22.032 27.351 32.657 34.242 47.02 67.891 7.672 37.195 3.734 75.171 9.637 114.14 47.808 27.157 69.843 84.422 10.23 104.3-23.015-0.785-26.953-8.855-38.754-17.906 0 28.73-11.019 70.055-36.398 93.473-12.395 2.953-18.293-1.575-32.067-1.575-3.343 3.938-10.82 17.711-7.867 24.403 12.785 19.09 34.821 7.281 34.821 37.39 5.703 12.989 16.918 6.492 27.148 9.446 22.23 18.3-0.98399 32.078 32.855 25.976 16.918 2.363 24.985 14.957 41.313 13.774 31.086-11.02 31.477 5.906 57.84 5.906" fill="#daa687"/>
   <path d="m374.02 693.03c11.015-3.543 9.441-11.804 22.23-11.804 11.805 5.507 19.871 12.394 30.688 7.082 23.414-34.242 34.625 6.886 64.136-7.871 15.344-13.973 26.364 1.574 45.25 0.789 9.836-11.614 4.524-21.059 18.297-21.059 48.789 13.578 9.836-15.152 38.559-28.73 35.804-2.954 15.933-12.2 34.035-27.551 25.969-1.379 24-3.543 24-25.582 7.871-29.52-0.78503-8.66-19.871-32.078-7.082-24.008-3.539-33.848-33.641-33.848-17.707-5.902-4.523-31.484-21.64-39.945-31.082-1.379-45.051-4.328-33.836-39.555-1.184-14.367-13.774-16.531-13.774-31.488 4.918-16.528 22.43-16.528 11.61-29.516-47.219-24.402 2.754-33.062-19.871-62.777-7.672-27.352 39.937-45.063-1.18-70.449-28.528-32.864 14.949-53.133-42.496-53.133-23.41-9.446 0.59-27.352-33.446-16.922-38.558 2.949-5.113-57.66-55.476-13.973-33.051 11.02-21.84-21.058-49.184-15.746-14.754 9.84-22.035 27.75-45.25 18.305-17.902 0.98399-19.277 4.523-30.097 21.644-25.774 17.711-45.055-7.675-31.282 43.883 22.032 27.356 29.707 31.293 44.067 64.942 7.672 37.195 3.933 75.171 9.836 114.14 47.808 27.157 69.843 84.422 10.23 104.3-23.015-0.785-27.148-8.855-38.754-17.906 0 28.73-10.625 67.301-35.215 92.488-12.394 3.742-16.132-0.39002-29.906-0.39002-3.344 3.933-11.605 13.773-8.656 20.464 12.789 19.09 34.824 7.282 34.824 37.391 5.703 12.988 16.918 6.492 27.149 9.445 22.23 18.301-4.329 31.879 29.507 25.778 16.922 2.363 24.989 14.957 41.317 13.777 31.082-11.02 31.476 5.902 57.84 5.902" fill="#e4b08e"/>
   <path d="m164.69 581.06c14.559-11.805 17.508-3.149 31.282-5.903 7.472-34.832 8.066-68.875-12.594-96.031-6.883-14.957-6.492-22.633-1.77-36.211 0-16.726-11.605-10.035-21.445-11.414-19.867-18.496-19.476-23.613-46.625-23.613-14.754-9.25-17.707-26.762-41.512-18.5-1.5703 2.758-1.7695 6.89-5.8984 11.808-12.394 0-20.856-10.625-29.117 8.266-3.1484 18.891-23.609 3.344-21.641 33.453 10.031 11.809 3.9336 7.281 9.2461 20.465 13.379 8.66 15.344 9.645 15.344 25.582 7.6719 18.695 21.84 22.438 28.723 41.918 6.4922 6.492 13.773 4.527 19.281 9.84 7.4766 51.754 32.461 16.531 52.922 29.715 9.64 9.445 11.605 10.625 23.804 10.625" fill="#bd846f"/>
   <path d="m159.57 572.79c13.574-10.82 16.133-2.949 28.723-5.508 6.887-31.683 7.476-62.777-11.41-87.57-6.293-13.578-6.098-20.469-1.77-32.863 0-15.352-10.426-9.25-19.476-10.43-18.297-16.926-17.903-21.648-42.692-21.648-13.18-8.266-16.133-24.403-37.574-16.727-1.5742 2.359-1.7734 6.297-5.3125 10.625-11.41 0-19.082-9.641-26.559 7.676-2.9531 17.121-21.641 2.953-19.871 30.504 9.0508 10.625 3.543 6.492 8.461 18.695 12.195 7.871 13.77 8.656 13.77 23.219 7.082 17.121 20.066 20.465 26.363 38.176 5.9023 5.906 12.59 4.132 17.508 9.054 6.8867 47.227 29.707 14.953 48.399 26.961 8.656 8.656 10.426 9.836 21.441 9.836" fill="#c48c73"/>
   <path d="m154.66 564.33c12.199-9.64 14.559-2.558 25.969-4.723 6.102-28.73 6.691-56.675-10.23-79.109-5.704-12.394-5.508-18.695-1.77-29.91 0-13.777-9.246-8.266-17.508-9.25-16.527-15.348-16.133-19.481-38.562-19.481-12-7.675-14.559-22.042-34.036-15.351-1.375 2.363-1.5703 5.707-4.7187 9.84-10.23 0-17.312-8.856-24.004 6.691-2.5547 15.547-19.477 2.754-17.902 27.551 8.0664 9.84 3.1485 6.102 7.6719 16.922 11.02 7.086 12.394 7.871 12.394 21.058 6.4922 15.348 18.102 18.497 23.805 34.438 5.3125 5.508 11.41 3.738 15.738 8.266 6.2969 42.503 26.953 13.578 43.875 24.402 7.672 7.672 9.246 8.656 19.277 8.656" fill="#ca9479"/>
   <path d="m149.74 556.06c10.821-8.657 12.985-2.36 23.215-4.329 5.508-25.582 5.902-50.574-9.246-70.648-5.117-11.02-4.918-16.527-1.379-26.566 0-12.2-8.457-7.282-15.738-8.461-14.754-13.579-14.36-17.317-34.426-17.317-10.625-6.691-12.984-19.679-30.297-13.578-1.3789 1.969-1.3789 5.117-4.3281 8.656-9.0508 0-15.348-7.672-21.445 6.102-2.3594 13.973-17.312 2.558-15.934 24.598 7.2773 8.66 2.7539 5.316 6.8828 15.152 9.8359 6.301 11.02 7.086 11.02 18.695 5.7031 13.778 16.129 16.531 21.246 30.899 4.7227 4.722 10.23 3.343 14.164 7.082 5.5078 38.179 24 12.203 38.953 21.843 6.887 7.086 8.461 7.872 17.312 7.872" fill="#d39e81"/>
   <path d="m144.82 547.8c9.641-7.672 11.41-2.164 20.461-3.934 4.723-22.433 5.114-44.472-8.261-61.988-4.329-9.645-4.133-14.758-1.184-23.418 0-10.824-7.277-6.492-13.77-7.477-12.984-12.003-12.789-15.152-30.296-15.152-9.446-6.101-11.411-17.32-26.758-12.008-0.9804 1.774-1.1797 4.332-3.7344 7.676-8.0664 0-13.578-6.887-18.887 5.313-1.9687 12.203-15.148 2.168-13.969 21.648 6.2929 7.676 2.3594 4.723 5.9023 13.184 8.6563 5.511 9.836 6.297 9.836 16.531 5.1132 12.199 14.164 14.562 18.688 27.156 4.1328 4.133 9.0507 2.953 12.394 6.297 4.9178 33.453 21.051 10.824 34.43 19.285 6.098 6.102 7.281 6.887 15.148 6.887" fill="#daa687"/>
   <path d="m139.9 539.54c8.262-6.691 9.836-1.773 17.707-3.347 4.129-19.481 4.524-38.571-7.082-53.723-3.937-8.266-3.738-12.594-1.183-20.27 0-9.25-6.293-5.507-11.801-6.297-11.215-10.234-11.02-13.183-26.168-13.183-8.066-5.117-9.836-14.957-23.016-10.43-0.9844 1.574-1.1836 3.934-3.3477 6.692-6.8828 0-11.605-5.907-16.328 4.523-1.7695 10.629-13.18 1.969-12 18.695 5.5078 6.692 2.1641 4.133 5.1172 11.61 7.4726 4.722 8.457 5.316 8.457 14.172 4.3281 10.429 12.394 12.593 16.133 23.418 3.543 3.738 7.6719 2.554 10.82 5.507 4.1331 28.93 18.098 9.25 29.512 16.532 5.308 5.312 6.492 6.101 13.179 6.101" fill="#e4b08e"/>
   <g fill="#590101">
    <path d="m213.68 577.12c25.578-6.297 38.168-72.617 37.183-94.851-9.64-54.707-63.937-76.75-62.953-9.84 6.883 22.433 16.918 38.371 17.703 64.937-0.98001 7.875-9.836 39.754 8.067 39.754"/>
    <path d="m37.797 523.59c0.1992-14.168 1.5742-38.571-5.9024-49.196-4.1289-0.39398-14.359-13.777-15.539-16.73-17.707 27.75-15.348 85.801 14.555 107.45 18.102 0 9.25-32.863 6.8867-41.523"/>
   </g>
   <g fill="#7f0000">
    <path d="m690.75 560.4c32.266-14.368 44.266-64.942 74.562-84.422 57.645-23.813 68.266-48.61 79.086-105.88-0.58899-20.465 0.58997-102.72 5.118-131.06 1.179-6.496-8.067-12.398-10.821-11.019-4.722 16.136-6.691 184.39-33.84 176.52 18.692-7.476-16.722-158.61-34.035-171.2-10.621-39.949 3.739-52.937 20.461-86.586 3.738-35.226-4.918-76.551-13.769-108.23-12.2-9.0547-49.774-3.1484-65.711 2.5586 4.722 13.184 11.609 32.664 15.738 48.606 12.395 91.902-36.984 88.16-74.758 158.61-7.672 3.938-25.969 76.16-21.246 80.094-22.43-24.203 34.035-120.43 51.348-134.8-43.871-16.527-102.7-27.156-151.48-14.758 4.719 15.743-2.164 24.993 10.032 42.703 23.804 11.809 28.921 25.977 21.246 52.348-6.688 8.656-14.164 15.543-14.164 26.957 24.984 24.992-3.934 22.238-3.934 44.672 5.113 22.434 31.871 5.117 31.477 38.375-4.524 6.887-13.18 13.973-11.016 24.402 31.871 18.696 11.805 19.086 11.805 45.852 16.328 28.531 39.343-25.582 45.836 33.453 20.855 30.895 41.316-4.133 41.316 48.606 5.508 20.074 6.883 23.613 26.754 24.207"/>
    <path d="m295.12 499.59c17.313-2.559 25.574-12.793 30.691-27.156 6.688-47.035-46.039-50.969-50.757-72.813 3.738-84.226 11.605-122.8-59.219-184-6.883-2.164-25.77-7.871-17.508 7.082 30.691 26.567 32.856 46.641 15.738 84.621 0 6.297-0.785 10.625-0.98401 17.121-1.375-0.19898-2.754-0.39398-4.129-0.59-4.527-10.824-4.918-11.414-18.102-9.644-0.78499-0.98401-0.78499-0.98401-0.78499-4.133 40.528-26.961 18.688-70.254-17.707-88.949-24-10.625-77.121 3.148-64.136 45.656 6.886-4.918 13.183-11.609 19.675-11.609 1.18 1.574 1.18 1.574 1.575 4.328-41.118 29.519-64.922 65.531-53.512 119.45 22.23 2.363 22.82 6.297 34.82 20.664 15.738 4.528 25.379-1.179 38.758 12.199 17.902 34.442 22.031-5.312 37.969 22.043 60.004-40.539 56.855 65.727 107.61 65.727"/>
   </g>
   <path d="m287.25 468.89c27.148-7.676-11.801-43.492-18.297-49.59-2.754 1.969-13.574 11.609-13.574 17.121 9.84 9.84 15.937 32.469 31.871 32.469" fill="#231f20"/>
   <path d="m291.19 463.96c5.704-14.559-10.035-31.68-22.035-37.192-1.968-0.98398-10.035 10.825-8.855 7.872 5.902 10.039 16.133 38.375 30.89 29.32" fill="#590101"/>
   <path d="m161.94 400.01c69.64-22.434 1.769-109.02-31.086-46.836-6.293 25.187 3.148 46.836 31.086 46.836" fill="#231f20"/>
   <path d="m163.9 396.07c21.25-5.902 32.856-42.898 13.184-49.984-2.559 44.672-48.594 22.633-25.184-6.492 0.2-0.789 0.2-1.379 0.2-1.969-29.512 5.902-27.743 58.445 11.8 58.445" fill="#fff"/>
   <path d="m170.79 343.73c-12.394-9.25-19.082 1.77-20.066 15.153 14.359 12.199 20.066 0 20.066-15.153"/>
   <path d="m214.46 292.17c8.851-19.09 10.031-54.512-15.738-59.629 12.785 25.781 19.277 24.207 14.753 59.824 0.395-0.19501 0.78601-0.19501 0.985-0.19501" fill="#7f003f"/>
   <path d="m179.05 290.01c13.574-9.645 4.918-16.926-6.688-18.5-3.543-7.281 0-11.02-0.59-15.942-0.789-0.19499-1.574-0.39-2.558-0.39-9.836 12.004-6.297 30.109 9.836 34.832" fill="#231f20"/>
   <path d="m177.68 286.07c11.211-13.183 2.164-7.476-10.43-13.382 1.379 6.89 4.328 11.414 10.43 13.382" fill="#bf5224"/>
   <path d="m864.86 224.28c36.985-14.757 9.836-40.535 27.938-58.64 15.148-38.176-16.922-42.309-16.922-72.024 2.164-11.414-3.539-56.281-21.441-62.383-12.2 17.121-14.364 21.844-15.938 45.262-7.672 24.793-30.098 9.25-19.277 46.836 2.754 8.856 12.394 16.727 1.574 27.942-25.379 20.664 5.113 81.273 44.066 73.007" fill="#bd846f"/>
   <path d="m864.47 223.1c35.019-13.973 9.836-40.93 26.953-58.051 14.363-36.012-15.934-39.949-15.934-68.09 2.164-10.824-3.347-53.328-20.265-59.035-11.606 16.137-13.575 20.66-15.149 42.703-7.277 23.613-28.328 8.8555-18.097 44.277 2.558 8.461 11.804 15.938 1.375 26.567-24 19.48 4.328 79.304 41.117 71.629" fill="#c48c73"/>
   <path d="m864.27 221.92c33.051-13.184 9.836-41.324 25.969-57.461 13.574-34.047-15.148-37.785-15.148-64.156 2.164-10.231-2.953-50.375-19.082-55.688-10.821 15.152-12.789 19.48-14.164 40.34-6.887 22.039-26.758 8.2657-17.118 41.719 2.36 8.07 11.016 14.957 1.18 24.992-22.426 18.5 3.738 77.535 38.363 70.254" fill="#ca9479"/>
   <path d="m864.08 220.54c31.082-12.199 9.836-41.324 24.985-56.676 12.785-31.879-14.165-35.422-14.165-60.41 1.77-9.4491-2.953-47.23-18.101-52.348-10.231 14.367-12 18.301-13.18 37.98-6.492 20.859-25.379 7.8711-16.133 39.355 2.164 7.481 10.426 14.172 1.18 23.418-21.246 17.321 2.754 75.567 35.414 68.68" fill="#d39e81"/>
   <path d="m863.88 219.36c29.117-11.609 9.836-41.718 24.004-55.886 11.801-30.11-13.379-33.258-13.379-56.676 1.769-8.8556-2.559-44.278-16.723-49-9.64 13.383-11.41 17.121-12.59 35.617-5.902 19.484-23.609 7.0859-15.148 36.602 2.164 7.086 9.836 13.382 1.18 22.043-19.871 16.136 2.164 73.793 32.656 67.3" fill="#daa687"/>
   <path d="m863.68 218.18c27.148-10.825 9.836-42.114 23.015-55.297 11.02-27.945-12.394-31.094-12.394-52.742 1.574-8.262-2.555-41.325-15.739-45.653-8.851 12.398-10.425 15.938-11.605 33.059-5.707 18.105-22.035 6.6911-14.164 34.242 2.164 6.492 9.246 12.399 1.18 20.465-18.493 15.152 1.375 72.023 29.707 65.926" fill="#e4b08e"/>
   <path d="m710.23 36.148c29.512-7.8711 41.313-3.9336 69.45-3.9336 7.472-9.4453 5.308-15.547 0.19501-19.875-11.609-9.8398-33.641-7.2812-39.543-5.3164 1.375 5.5118 3.934 9.0547-2.1639 9.0547-4.527-14.758-30.691-15.152-38.758-3.7383-6.293 9.2461 0.39502 23.809 10.82 23.809" fill="#590101"/>
  </g>
 </g>
</svg>
