<?xml version="1.0" encoding="UTF-8"?>
<svg viewBox="0 0 743.75 1052.5" xmlns="http://www.w3.org/2000/svg" xmlns:xlink="http://www.w3.org/1999/xlink">
 <defs>
  <linearGradient id="a">
   <stop stop-color="#ff0" offset="0"/>
   <stop stop-color="#ffad00" offset="1"/>
  </linearGradient>
  <linearGradient id="b">
   <stop stop-color="#767100" offset="0"/>
   <stop stop-color="#00ce00" offset="1"/>
  </linearGradient>
  <linearGradient id="c" x1="-.00676" x2="1.027" y1=".91358" y2=".12963" xlink:href="#a"/>
  <linearGradient id="e" x1="-7.9841e-16" xlink:href="#a"/>
  <linearGradient id="d" xlink:href="#a"/>
 </defs>
 <g transform="matrix(.85527 0 0 .82476 75.726 96.448)">
  <path transform="matrix(.90013 0 0 .88007 61.566 68.613)" d="m458.02 564.44c-7.0553-0.95873-14.294 4.2663-18.525 12.478-37.041 36.567-110.25 39.051-187.97 41.662-81.957 2.7536-168.77 5.7959-223.48 49.173-5.9832 2.6278-11.529 10.53-13.572 20.474-2.6429 12.868 1.5154 24.179 9.2828 25.234 3.9328 0.53442 8.0319-1.6964 11.472-5.6631 0.00987 0.03536 0.02401 0.06955 0.03388 0.10491 45.754-51.718 122.26-57.35 201.92-59.677s162.44-1.3296 220.71-39.72c-0.01863-0.07087-0.04915-0.13895-0.06775-0.20983 5.6549-3.4276 10.472-9.9673 12.194-18.354 2.6329-12.819-2.7408-24.245-11.999-25.503z" fill="url(#b)" fill-rule="evenodd" stroke="#9c0000" stroke-opacity=".50427" stroke-width="2.2471"/>
  <path transform="matrix(.90013 0 0 .88007 61.566 68.613)" d="m318.43 543.36c0.60273-4.6001-22.407-4.4558-25.469 0.96875-6.5361 11.581-2.0154 38.314-7.375 57.188-0.01797 0.06326 0.7163-0.21062-0.1875-0.03125-3.4663 0.68793-12.044 3.6138-14.063 8.1123-1.0837 2.4142-5.4749 6.6304-5.6725 7.8369-0.2651 1.6185 2.1973-1.6683 3.2128 0.09376-1.0903 0.24663 10.292-7.096 15.567-1.0425 0.43724 0.50174 2.0334 1.8446 3.6363 3.6023 0.21464 0.23537 1.4505 1.6933 1.6313 1.9597 1.7504 2.5788 2.5938 6.3675 2.5938 10 1e-5 10.603-7.0858 17.569-15.193 19.234-0.91101 0.18705-0.50118 2.1096 0.6934 2.1096 11.818 2e-5 21.438-9.555 21.438-21.344 0-5.1777-2.2829-9.8808-5-13.594-0.17831-0.24366 0.20534-1.0302 0.4375-0.84375 4.2748 3.4329 7.125 9.4953 7.125 15.781 0 10.603-7.6062 18.121-15.714 19.786-0.91101 0.18705 0.05045 1.5892 1.245 1.5892 11.818-2e-5 21.406-9.5862 21.406-21.375 0-8.7027-0.75568-12.412-5.9851-18.286-0.33788-0.37951-1.3111-1.5333-3.2192-2.9502-2.1739-1.6143-6.4994-4.4697-6.0145-6.8265 4.3841-21.305 23.438-50.766 24.906-61.969z" fill="#9c0000" fill-rule="evenodd" stroke="#000" stroke-width="1.25"/>
  <path transform="matrix(.90013 0 0 .88007 61.566 68.613)" d="m172.09 116.61c-49.049 0-90.823 38.244-91.219 90.656 0.48936 6.1729 0.83464 12.057 1.3438 17.562s2.1457 10.518 2.2812 15.406c0.26004 9.3769-1.0593 21.014-7.0312 31.563-38.029 66.564 13.29 175.72 115.41 244.62 102.83 69.384 218.38 71.8 257.94 5.375 6.4993-10.913 18.289-41.249 20.056-54.151l10.43 5.8878 9.5551 5.295 9.326 3.3625 5.9848 2.6924 5.6026 1.839 5.8666 1.9588 7.9332 1.8954 9.4897 0.78149 7.4486-3.724-12.995-15.573-12.716-16.925-13.11-21.37-18.8-23.413-21.693-26.235-24.102-27.523-28.339-27.855c-52.301-49.179-105.33-84.661-139.66-98.445-5.6069-4.3769-12.858-8.3558-13-19.812-6.3319-52.808-36.951-93.875-86-93.875z" fill="#ff0" fill-opacity=".48718" fill-rule="evenodd" stroke="#000" stroke-width="1.25"/>
  <path transform="matrix(.90013 0 0 .88007 61.566 68.613)" d="m190.66 119.34c-8.137 7.8289-52.288 9.1209-49.247 54.58 3.1443 19.108-12.313 29.193-36.626 31.705-7.4877 0.87219-9.122 0.58277-9.6488-0.76163s0.05375-3.7438-3.0041-7.0915-5.5877-7.8158-6.1165-12.907 0.94364-10.806 4.0022-16.648c5.9816-11.463 14.817-23.764 28.233-33.653 12.475-8.7637 26.798-15.205 39.274-16.41 3.0682-0.60492 6.0546-0.98732 8.9217-1.135s6.3388 0.16705 9.1515 0.08455c1.7902 0.08226 3.1738-0.03788 5.3706 0.24677 3.2298 0.46053 6.4597 1.3258 9.6895 1.9888z" fill="#f00" fill-rule="evenodd"/>
  <path transform="matrix(.90013 0 0 .88007 285.61 2.3427)" d="m-73.326 248.49a13.579 13.579 0 1 0 -27.158 0 13.579 13.579 0 1 0 27.158 0z" fill-rule="evenodd"/>
  <path transform="matrix(.64334 0 0 .63561 291.12 37.658)" d="m-131.72 284.48a7.4684 7.4684 0 1 0 -14.937 0 7.4684 7.4684 0 1 0 14.937 0z" fill="#fff" fill-rule="evenodd"/>
  <path transform="matrix(.90013 0 0 .88007 61.566 68.613)" d="m83.222 187.53c6.9747 4.4638 16.377 18.918 25.567 27.165 4.6593 4.1814 10.272 7.6349 15.979 10.12 5.301 2.3085 11.291 3.286 17.045 4.2611 4.7222 0.80037 9.5965 0.62018 14.381 1.0653 2.8497 0.26509 8.1346 0.28999 8.5223 1.0653 0.32254 0.64508-4.1325 2.5112-6.3917 3.1958-3.5998 1.0909-7.4455 1.4894-11.185 2.1306-2.4742 0.42414-4.9612 0.80709-7.457 1.0653-2.6531 0.27445-5.3239 0.43011-7.9896 0.53264-1.9505 0.07502-3.906 0-5.8591 0-2.4857 0-5.0106 0.29356-7.457 0-1.9923-0.23908-4.5023-2.1794-5.8591-1.5979-1.1289 0.48381-1.539 3.1443-1.5979 4.7938-0.11864 3.3218-0.00333 7.0115 1.0653 10.12 0.8844 2.5728 3.043 4.7359 4.7938 6.9244 2.5104 3.138 5.3994 5.9747 7.9896 9.0549 3.9791 4.7319 7.9604 9.4754 11.718 14.381 2.634 3.4388 5.9173 6.8037 7.457 10.653 0.946 2.365 1.1031 7.9896 0 7.9896-1.5601 0-5.0929-5.6293-7.9896-7.9896-1.8971-1.5458-4.2399-2.5235-6.3917-3.7285-2.2869-1.2807-4.6708-2.3931-6.9243-3.7285-2.5402-1.5053-5.0488-3.088-7.457-4.7938-1.853-1.3125-3.6009-2.7822-5.3264-4.2611-2.003-1.7169-3.9435-3.5117-5.8591-5.3264-1.4578-1.3811-2.9148-2.7801-4.2611-4.2611-0.42908-0.47199-0.73248-2.002-1.0653-1.5979-2.1529 2.6142-4.436 7.0081-6.3917 10.653-1.9503 3.6347-3.7951 7.3571-5.3264 11.185-2.0196 5.049-4.1252 10.161-5.3264 15.447-1.462 6.4329-2.3561 13.105-2.6632 19.708-0.4031 8.6667-0.75417 17.587 0.53265 26.099 1.0213 6.7563 3.8432 13.3 6.3917 19.708 3.6656 9.2164 7.5551 18.444 12.251 27.165 4.0042 7.4363 8.8396 14.49 13.849 21.306 5.8213 7.9208 12.146 15.517 18.642 22.904 6.4646 7.3502 13.316 14.381 20.24 21.306 6.7469 6.7469 13.455 13.61 20.773 19.708 7.5961 6.3301 15.935 11.78 23.969 17.577 5.9919 4.3233 11.701 9.1838 18.11 12.783 6.5518 3.6798 13.661 6.5699 20.773 9.0549 7.6242 2.6639 15.483 5.5177 23.436 6.3917 8.2036 0.90149 16.777-0.03319 25.034-1.0653 7.3675-0.92093 14.605-3.0103 21.838-4.7938 5.7279-1.4124 11.421-3.0131 17.045-4.7938 5.0296-1.5927 10.383-7.4554 14.914-5.3264 24.942 11.72 57.936 32.185 73.505 46.872 3.251 3.067-11.233 4.6967-17.045 6.3917-6.9719 2.0335-14.115 3.8632-21.306 4.7938-7.9004 1.0224-16.003 1.4307-23.969 1.0653-11.386-0.52231-22.838-1.8375-34.089-3.7285-9.8767-1.66-19.591-4.3849-29.295-6.9243-9.2931-2.4318-18.846-4.3584-27.697-7.9896-11.922-4.8911-23.258-11.397-34.622-17.577-8.8763-4.8274-17.7-9.8468-26.099-15.447-8.6448-5.7632-16.859-12.213-25.034-18.642-7.6268-5.9986-15.309-12.006-22.371-18.642-7.6745-7.2122-14.954-14.924-21.838-22.904-8.7401-10.131-17.634-20.326-25.034-31.426-6.8038-10.206-12.5-21.304-17.577-32.491-5.398-11.894-10.06-24.271-13.849-36.752-2.2476-7.4037-3.3506-15.214-4.2611-22.904-0.68734-5.8042-0.9316-11.752-0.53264-17.577 0.48878-7.1361 1.4028-14.389 3.1958-21.306 1.9354-7.4651 5.0369-14.684 7.9896-21.838 1.6635-4.0309 4.4642-7.6206 5.8591-11.718 1.4458-4.2472 2.5088-8.8382 2.6632-13.316 0.20069-5.8199-1.0572-11.719-1.5979-17.577-0.52452-5.6823-1.3179-11.351-1.5979-17.045-0.25264-5.1371-0.21407-10.309 0-15.447 0.14103-3.3846-0.83735-11.338 1.0653-10.12z" fill="url(#c)" fill-rule="evenodd"/>
  <path transform="matrix(.90013 0 0 .88007 61.566 68.613)" d="m544.92 481.43c4.7444 2.214 23.489 11.865 35.305 17.653 10.363 5.0758 20.855 9.8887 31.231 14.937 6.3706 3.0992 12.514 6.6959 19.01 9.5052 10.251 4.4328 20.949 7.8508 31.231 12.221 7.8223 3.3245 15.48 7.0611 23.084 10.863 6.8802 3.4401 13.657 7.1046 20.368 10.863 4.6041 2.5783 9.2304 5.172 13.579 8.1473 4.2515 2.9089 15.409 8.9255 12.221 9.5052-11.748 2.1361-44.681-5.1317-57.031-1.3579-3.9441 1.2051 9.899 13.01 8.1473 16.295-1.8694 3.505-19.01-0.84138-19.01 4.0737 0 14.548 25.199 51.221 19.01 54.315-7.3901 3.6951-40.443-21.687-59.747-33.947-14.191-9.013-27.401-19.599-40.737-29.874-14.275-10.999-27.353-23.681-42.094-33.947-10.606-7.3863-23.109-11.98-33.947-19.01-5.9087-3.8327-10.136-10.318-16.295-13.579-9.2303-4.8866-29.388-9.6489-29.874-10.863-0.41958-1.049 18.104 2.7252 27.158 4.0737 12.22 1.8199 24.411 3.8675 36.663 5.4316 9.022 1.1518 18.089 2.1307 27.158 2.7158 4.963 0.32019 10.437 1.3235 14.937 0 3.1949-0.93968 7.2666-3.9272 8.1473-6.7894 0.92983-3.022-0.87603-7.7355-2.7158-10.863-2.6865-4.5671-6.6486-8.8937-10.863-12.221-4.3854-3.4622-16.982-9.1017-14.937-8.1473z" fill="#f00" fill-rule="evenodd" stroke="#000" stroke-width=".5"/>
  <path transform="matrix(.90013 0 0 .88007 61.566 68.613)" d="m195.5 314.31c-7.8615-6.1756-18.955-11.049-23.585-18.527-2.5329-4.091-0.35796-11.904 2.0958-16.181 1.9161-3.3396 7.9982-3.7928 11.014-6.6681 2.6973-2.5717 3.6827-6.7817 6.125-9.673 2.256-2.6707 5.0334-5.1585 7.9697-7.0131 1.8398-1.1621 4.239-1.3581 6.3584-2.0371" fill="none" stroke="#ff6f00" stroke-width=".5"/>
  <path transform="matrix(.90013 0 0 .88007 61.566 68.613)" d="m554.99 483.68c4.0804 1.3849 21.399 10.15 32.022 15.38 8.6002 4.2343 17.129 8.6169 25.647 13.014 5.2343 2.7016 10.263 5.8276 15.611 8.2814 8.4045 3.8559 17.214 6.8449 25.647 10.648 6.4346 2.9014 12.72 6.1558 18.957 9.4644 5.6573 3.001 11.212 6.2077 16.726 9.4645 3.3453 1.9757 6.5357 4.2086 9.8527 6.2328 4.6109 2.8138 16.853 7.626 13.931 8.2814-8.9116 1.9992-38.617-3.829-49.431-0.31751-3.4332 1.1149 8.1626 11.268 6.6906 14.197-1.5016 2.9871-15.611-0.57411-15.611 3.5492 0 12.834 20.799 44.571 15.611 47.322-5.9637 3.1636-33.255-18.923-49.064-29.576-11.696-7.8816-22.517-17.088-33.453-26.027-11.738-9.5951-22.415-20.597-34.568-29.576-8.6622-6.4002-18.404-11.382-27.877-16.563-5.7222-3.1294-11.674-5.8919-17.709-8.3684-10.209-4.1891-31.373-10.067-31.024-11.628s22.133 1.0373 33.121 2.2509c10.088 1.1141 20.044 3.3691 30.108 4.7322 7.4058 1.003 14.862 2.0306 22.302 2.3661 3.6498 0.16462 8.0952 0.59411 10.968-0.86554 1.8595-0.94488 2.9151-4.1267 3.2284-6.348 0.30799-2.184-0.40244-4.7842-1.3647-6.8678-1.6007-3.4663-3.5491-7.1813-6.3241-9.782-3.9987-3.7474-15.925-9.9165-13.997-9.2622z" fill="#ff6400" fill-rule="evenodd" stroke="#000" stroke-width=".5"/>
  <path transform="matrix(.90013 0 0 .88007 61.566 68.613)" d="m562.08 486.92c4.1266 0.61967 19.598 9.6078 29.365 14.475 7.4608 3.7181 14.936 7.4139 22.319 11.281 4.2427 2.2225 8.3377 4.7219 12.558 6.9886 6.8072 3.6565 13.666 7.2193 20.523 10.781 5.1874 2.6943 10.478 5.1963 15.612 7.987 4.6617 2.534 9.2356 5.2398 13.775 7.987 2.7568 1.6684 5.3816 3.551 8.1143 5.2598 3.7964 2.374 13.891 6.4328 11.473 6.9886-7.3274 1.6844-31.84-3.4663-40.709-0.26794-3.0637 1.1049 6.2135 10.524 4.9115 13.178-1.147 2.338-13.012-2.2624-12.258 1.798 2.49 13.411 11.938 37.805 7.47 40.234-4.715 2.5629-23.347-16.839-35.02-25.259-9.5256-6.8704-18.549-14.425-27.55-21.964-9.672-8.1016-18.444-17.369-28.469-24.959-7.1172-5.3886-15.151-9.6019-22.959-13.977-4.7068-2.6378-9.461-5.3998-14.584-7.0621-17.133-5.5589-52.472-13.284-52.185-14.601s35.971 4.253 53.912 6.6878c8.2944 1.1256 16.488 3.1102 24.795 3.9935 5.7808 0.61466 11.856 1.039 17.469 0.50041 1.4247-0.13668 2.6316-1.4965 3.6457-2.5261 0.78809-0.80009 1.533-1.8742 1.761-2.9629 0.38339-1.8308 0.50798-3.9576 0.0732-5.7958-0.57863-2.4464-1.5918-5.0245-3.1134-7.0579-3.1591-4.2215-12.948-12.01-10.929-11.707z" fill="#ffc900" fill-rule="evenodd" stroke="#000" stroke-width=".5"/>
  <path transform="matrix(.90013 0 0 .88007 61.566 68.613)" d="m285.84 544.72c0.60273-4.6001-22.407-4.4558-25.469 0.96875-6.5361 11.581-2.0154 38.314-7.375 57.188-0.01797 0.06326 0.7163-0.21062-0.1875-0.03125-3.4663 0.68793-12.044 3.6138-14.063 8.1123-1.0837 2.4142-5.4749 6.6304-5.6725 7.8369-0.2651 1.6185 2.1973-1.6683 3.2128 0.09376-1.0903 0.24663 10.292-7.096 15.567-1.0425 0.43724 0.50174 2.0334 1.8446 3.6363 3.6023 0.21464 0.23537 1.4505 1.6933 1.6313 1.9597 1.7504 2.5788 2.5938 6.3675 2.5938 10 1e-5 10.603-7.0858 17.569-15.193 19.234-0.91101 0.18705-0.50118 2.1096 0.6934 2.1096 11.818 2e-5 21.438-9.555 21.438-21.344 0-5.1777-2.2829-9.8808-5-13.594-0.17831-0.24366 0.20534-1.0302 0.4375-0.84375 4.2748 3.4329 7.125 9.4953 7.125 15.781 0 10.603-7.6062 18.121-15.714 19.786-0.91101 0.18705 0.05045 1.5892 1.245 1.5892 11.818-2e-5 21.406-9.5862 21.406-21.375 0-8.7027-0.75568-12.412-5.9851-18.286-0.33788-0.37951-1.3111-1.5333-3.2192-2.9502-2.1739-1.6143-6.4994-4.4697-6.0145-6.8265 4.3841-21.305 23.438-50.766 24.906-61.969z" fill="#9c0000" fill-rule="evenodd" stroke="#000" stroke-width="1.25"/>
  <path transform="matrix(.90013 0 0 .88007 61.566 68.613)" d="m561.39 490.77c3.7544 0.74336 17.46 8.4822 26.158 12.768 6.6438 3.2741 13.302 6.5326 19.866 9.9123 3.772 1.9422 7.3932 4.08 11.142 6.0535 6.0471 3.1835 12.147 6.3008 18.245 9.4174 4.6133 2.3575 9.3319 4.5792 13.891 7.0047 4.1395 2.2023 8.1888 4.5263 12.204 6.8788 2.4386 1.4286 4.744 3.0073 7.1582 4.4644 3.3539 2.0241 12.397 5.7319 10.146 5.9791-6.8211 0.74909-29.042-4.7586-37.362-2.9903-2.8742 0.61084 5.1209 8.245 3.7783 10.128-1.1828 1.6585-11.821-2.5731-11.355 0.49541 1.542 10.135 8.8636 28.907 4.6261 30.406-4.4712 1.5809-20.501-14.112-30.752-21.168-8.3646-5.7578-16.231-11.989-24.076-18.208-8.4308-6.6826-15.97-14.17-24.753-20.497-6.2357-4.4917-13.378-8.1729-20.304-11.959-4.1752-2.2826-8.3869-4.6607-12.999-6.247-15.422-5.305-47.44-13.468-47.103-14.427s32.79 5.6263 49.128 8.6655c7.553 1.405 14.966 3.4414 22.544 4.6673 5.2734 0.85304 10.827 1.5848 16.011 1.5696 1.3157-0.00387 2.4992-0.93143 3.4875-1.6268 0.76797-0.54043 1.5115-1.2874 1.7812-2.0807 0.45358-1.334 0.68598-2.9056 0.38878-4.3012-0.39553-1.8573-1.1827-3.8423-2.467-5.4574-2.6663-3.3532-11.221-9.811-9.3847-9.4474z" fill="#fe0" fill-rule="evenodd" stroke="#000" stroke-width=".5"/>
  <path transform="matrix(.90013 0 0 .88007 61.566 68.613)" d="m466.16 459.71c-1.188 4.1579 4.2128 17.297 6.7894 25.8 1.9496 6.4338 5.372 12.632 6.7894 19.01 0.39312 1.769-2.809 5.0285-1.3579 5.4315 6.6962 1.8601 17.309 0.2258 25.8 1.3579 5.0882 0.67842 9.8926 3.0228 14.937 4.0737 5.8189 1.2123 11.745 2.0069 17.653 2.7158 5.4083 0.64899 10.855 1.0989 16.295 1.3579 4.0656 0.1936 8.2055 0.47241 12.221 0 3.6792-0.43284 7.4162-1.39 10.863-2.7158 2.4373-0.93742 5.9033-2.0799 6.7894-4.0737 0.92439-2.0799-0.69218-5.4845-1.3579-8.1473-0.69218-2.7687-0.84815-6.136-2.7158-8.1473-4.0165-4.3255-9.6861-7.7127-14.937-10.863-3.802-2.2812-8.6092-2.9485-12.221-5.4315-3.6303-2.4958-6.1276-6.578-9.5052-9.5052-3.4119-2.9569-7.1813-5.5174-10.863-8.1473-2.655-1.8964-5.6108-3.4024-8.1473-5.4316-1.9898-1.5918-5.9634-6.3622-5.4316-5.4315 1.2787 2.2377 7.3887 9.8588 10.863 14.937 2.4098 3.522 5.0723 7.0854 6.7894 10.863 0.54604 1.2013 0.66106 3.1922 0 4.0737-0.69682 0.9291-2.6708 1.1825-4.0737 1.3579-2.2182 0.27727-4.5912 0.39969-6.7894 0-2.7806-0.50557-5.4119-1.8741-8.1473-2.7158-3.1487-0.96884-6.3491-1.769-9.5052-2.7158-5.8965-1.769-11.918-3.247-17.653-5.4315-3.7709-1.4365-7.286-3.5378-10.863-5.4315-4.1176-2.1799-11.598-8.9683-12.221-6.7894z" fill="#ffe684" fill-rule="evenodd" stroke="#000" stroke-width=".5"/>
  <path transform="matrix(.90013 0 0 .88007 61.566 68.613)" d="m466.14 458.66c-1.1607 3.6707 4.1162 15.27 6.6337 22.776 1.9049 5.6799 5.2488 11.152 6.6337 16.783 0.38411 1.5617-2.7446 4.4392-1.3267 4.795 6.5426 1.6421 16.912 0.19934 25.208 1.1988 4.9715 0.59891 9.6657 2.6686 14.594 3.5963 5.6855 1.0702 11.476 1.7717 17.248 2.3975 5.2843 0.57293 10.606 0.97008 15.921 1.1988 3.9724 0.17091 8.0173 0.41705 11.941 0 3.5948-0.38212 7.2462-1.2272 10.614-2.3975 2.3814-0.82756 3.5362-1.3712 3.3853-3.9572-0.21976-3.7664 0.04555-4.4808-0.6049-6.8316-0.67631-2.4442-0.46776-3.9732-2.2926-5.7488-3.9244-3.8186-7.2984-8.2526-12.429-11.034-3.7148-2.0139-8.4118-2.6029-11.941-4.795-3.5471-2.2034-5.9871-5.8071-9.2872-8.3913-3.3336-2.6104-7.0166-4.8709-10.614-7.1926-2.5941-1.6742-5.4821-3.0036-7.9605-4.795-1.9442-1.4053-5.8266-5.6166-5.307-4.795 1.2494 1.9755 7.2193 8.7035 10.614 13.186 2.3546 3.1093 4.956 6.2551 6.6337 9.5901 0.53351 1.0605 0.64589 2.8181 0 3.5963-0.68085 0.82022-2.6095 1.044-3.9802 1.1988-2.1673 0.24478-4.4858 0.35285-6.6337 0-2.7169-0.44632-5.2878-1.6545-7.9605-2.3975-3.0765-0.8553-6.2035-1.5617-9.2872-2.3975-5.7613-1.5616-11.645-2.8665-17.248-4.795-3.6844-1.2682-7.1189-3.1232-10.614-4.795-4.0231-1.9244-11.332-7.9173-11.941-5.9938z" fill="#ffe67b" fill-rule="evenodd" stroke="#000" stroke-width=".5"/>
  <path transform="matrix(1.044 .71874 -.58623 1.1678 481.03 -91.206)" d="m267.5 425.02a122.89 25.8 0 1 0 -245.78 0 122.89 25.8 0 1 0 245.78 0z" fill="#ffa500" fill-rule="evenodd" stroke="#000" stroke-width=".96336"/>
  <path transform="matrix(.90013 0 0 .88007 61.566 68.613)" d="m463 449.98c-1.0379 3.5893 3.6807 14.932 5.9318 22.272 1.7034 5.554 1.0841 10.905 2.3225 16.411 0.34347 1.5271-1.7323 4.7018-0.46449 5.0497 5.8504 1.6057 18.01-0.16602 25.428 0.81127 4.4455 0.58564 8.643 2.6094 13.05 3.5166 5.0839 1.0465 10.262 1.7324 15.423 2.3444 4.7251 0.56023 9.4839 0.94859 14.236 1.1722 3.5521 0.16713 7.169 0.40781 10.677 0 3.2145-0.37366 6.4795-1.2 9.4909-2.3444 2.1294-0.80922 5.1576-1.7954 5.9318-3.5166 0.8076-1.7955-0.60476-4.7345-1.1864-7.0332-0.60474-2.3901-0.74102-5.2969-2.3728-7.0332-3.5092-3.734-8.4626-6.658-13.05-9.3776-3.3217-1.9693-6.078-3.2672-9.2336-5.4106-3.1718-2.1545-6.7974-4.9566-9.7483-7.4835-2.9809-2.5526-6.2742-4.763-9.491-7.0332-2.3196-1.6371-4.9021-2.9371-7.1182-4.6888-1.7384-1.3742-5.2101-6.575-4.7455-5.7716 1.1172 1.9317 6.4555 9.5934 9.491 13.977 2.1054 3.0404 4.4316 6.1165 5.9318 9.3776 0.47705 1.037 0.57755 2.7557 0 3.5166-0.60883 0.80204-2.3335 1.0208-3.5591 1.1722-1.938 0.23935-4.0112 0.34503-5.9318 0-2.4294-0.43644-4.7283-1.6178-7.1182-2.3444-2.751-0.83636-5.5471-1.527-8.3046-2.3444-5.1517-1.527-10.413-2.803-15.423-4.6888-3.2946-1.2401-6.3657-3.054-9.491-4.6888-3.5975-1.8818-10.133-7.7419-10.677-5.861z" fill="#ffffa1" fill-rule="evenodd" stroke="#000" stroke-width=".5"/>
  <path d="m252.59 400.48c0.26987 4.5468 6.2779 14.15 10.341 20.567 3.597 5.6812 10.467 9.6981 12.639 15.728 2.0408 5.6653-2.5264 13.889 0 19.357 4.3674 9.4529 13.126 17.65 20.682 25.406 7.7646 7.9714 16.493 15.033 25.277 21.777 9.5996 7.3704 19.633 14.213 29.873 20.567 11.208 6.9543 23.079 12.715 34.469 19.357 13.504 7.8755 27.043 15.734 40.214 24.197 9.4249 6.0554 18.291 13.057 27.575 19.357 7.95 5.3947 16.052 10.543 24.129 15.728 7.6266 4.8967 15.264 9.7791 22.98 14.518 6.0725 3.7299 12.036 7.7556 18.384 10.888 5.9084 2.9162 12.247 4.8656 18.384 7.259 4.2037 1.6394 12.854 7.4446 12.639 4.8393-0.55083-6.6701-9.1148-22.308-14.937-32.666-5.2849-9.4027-11.728-18.207-18.384-26.616-6.7492-8.5281-14.714-15.978-21.831-24.197-4.7566-5.4932-11.142-10.284-13.788-16.938-4.2485-10.687-4.0447-23.546-6.8939-35.085-2.1297-8.625-4.6925-17.237-8.0428-25.407-3.9265-9.5745-8.6321-18.908-13.788-27.826-5.5681-9.6322-11.674-19.048-18.384-27.826-5.9292-7.7567-11.674-18.293-19.533-21.777-6.6954-2.9684-16.067 2.0249-24.129 2.4197-8.4073 0.41175-16.951 0.89926-25.278 0-6.61-0.71385-13.079-3.0026-19.533-4.8393-7.7166-2.196-15.433-4.5187-22.98-7.259-3.5597-1.2925-7.2847-5.4427-10.341-4.8393-3.0718 0.60646-5.1012 5.9909-8.0428 8.4688-2.8033 2.3614-5.8697 4.8146-9.1918 6.0492-3.1888 1.185-6.8863 0.89353-10.341 1.2098-5.3544 0.49025-10.805 1.4878-16.086 1.2098-2.3794-0.12527-4.5367-1.8878-6.8939-2.4197-3.0048-0.67799-9.3049-3.1155-9.1918-1.2098z" fill="#ff8d00" fill-rule="evenodd" stroke="#000" stroke-width=".42038"/>
  <path transform="matrix(.83516 .76249 -.63915 .99348 503.06 -31.655)" d="m267.5 425.02a122.89 25.8 0 1 0 -245.78 0 122.89 25.8 0 1 0 245.78 0z" fill="#ffa500" fill-rule="evenodd" stroke="#000" stroke-width=".38777"/>
  <path d="m252.56 398.29c0.26635 3.8363 6.196 11.939 10.206 17.354 3.55 4.7935 10.33 8.1828 12.474 13.27 2.0142 4.7801-2.4935 11.719 0 16.333 4.3104 7.976 12.955 14.892 20.412 21.437 7.6632 6.7259 16.278 12.684 24.948 18.374 9.4743 6.2189 19.377 11.993 29.483 17.354 11.061 5.8677 22.778 10.728 34.019 16.333 13.328 6.645 26.69 13.276 39.689 20.416 9.3019 5.1092 18.052 11.017 27.216 16.333 7.8462 4.5518 15.843 8.8954 23.814 13.27 7.5271 4.1316 15.065 8.2511 22.68 12.25 5.9932 3.1471 11.879 6.5438 18.144 9.1872 5.8313 2.4606 12.087 4.1054 18.144 6.1248 4.1488 1.3832 12.686 6.2814 12.474 4.0832-0.54365-5.628-8.9958-18.822-14.742-27.562-5.2159-7.9335-11.575-15.362-18.144-22.458-6.6612-7.1956-14.522-13.482-21.546-20.416-4.6945-4.6349-10.997-8.6768-13.608-14.291-4.1931-9.0171-3.9919-19.867-6.8039-29.603-2.1019-7.2774-4.6312-14.544-7.9378-21.437-3.8752-8.0786-8.5194-15.953-13.608-23.478-5.4955-8.1272-11.522-16.072-18.144-23.478-5.8518-6.5447-11.522-15.435-19.278-18.374-6.608-2.5046-15.857 1.7085-23.814 2.0416-8.2975 0.3474-16.73 0.75874-24.948 0-6.5237-0.60232-12.908-2.5335-19.278-4.0832-7.6159-1.8529-15.231-3.8127-22.68-6.1248-3.5133-1.0906-7.1896-4.5923-10.206-4.0832-3.0317 0.5117-5.0346 5.0548-7.9378 7.1456-2.7667 1.9924-5.7931 4.0623-9.0718 5.104-3.1472 0.9999-6.7964 0.75393-10.206 1.0208-5.2845 0.41365-10.664 1.2554-15.876 1.0208-2.3484-0.10571-4.4775-1.5929-6.8039-2.0416-2.9656-0.57205-9.1835-2.6288-9.0718-1.0208z" fill="#ff3200" fill-rule="evenodd" stroke="#000" stroke-width=".44017"/>
  <path transform="matrix(.83516 .76249 -.63915 .99348 549.5 -34.045)" d="m267.5 425.02a122.89 25.8 0 1 0 -245.78 0 122.89 25.8 0 1 0 245.78 0z" fill="#ffa500" fill-rule="evenodd" stroke="#000" stroke-width=".38777"/>
  <path transform="matrix(.69423 .6861 -.65323 .66355 508.24 98.156)" d="m267.5 425.02a122.89 25.8 0 1 0 -245.78 0 122.89 25.8 0 1 0 245.78 0z" fill="#ffa500" fill-rule="evenodd" stroke="#000" stroke-width=".46681"/>
  <path transform="matrix(.52386 .38905 -.29357 .64645 437.45 180.65)" d="m267.5 425.02a122.89 25.8 0 1 0 -245.78 0 122.89 25.8 0 1 0 245.78 0z" fill="#ff6b00" fill-rule="evenodd" stroke="#000" stroke-width=".6613"/>
  <path transform="matrix(.79367 .60297 -.48324 .96321 484.6 -19.223)" d="m267.5 425.02a122.89 25.8 0 1 0 -245.78 0 122.89 25.8 0 1 0 245.78 0z" fill="#ff4800" fill-rule="evenodd" stroke="#000" stroke-width=".43309"/>
  <path transform="matrix(.73906 .55992 -.50262 .78583 527 53.052)" d="m267.5 425.02a122.89 25.8 0 1 0 -245.78 0 122.89 25.8 0 1 0 245.78 0z" fill="#ff4500" fill-rule="evenodd" stroke="#000" stroke-width=".45761"/>
  <path transform="matrix(.52264 .48418 -.42678 .62481 411.99 109.28)" d="m267.5 425.02a122.89 25.8 0 1 0 -245.78 0 122.89 25.8 0 1 0 245.78 0z" fill="#ff8200" fill-rule="evenodd" stroke="#000" stroke-width=".60945"/>
  <path transform="matrix(.56882 .43857 -.36122 .67034 416.76 100.36)" d="m267.5 425.02a122.89 25.8 0 1 0 -245.78 0 122.89 25.8 0 1 0 245.78 0z" fill="#ff6000" fill-rule="evenodd" stroke="#000" stroke-width=".60576"/>
  <path transform="matrix(.62488 .45652 -.3615 .74542 439.41 56.913)" d="m267.5 425.02a122.89 25.8 0 1 0 -245.78 0 122.89 25.8 0 1 0 245.78 0z" fill="#ff2800" fill-rule="evenodd" stroke="#000" stroke-width=".56031"/>
  <path transform="matrix(.90013 0 0 .88007 61.566 68.613)" d="m389.22 368.3c-7.6947 0.56039-16.495 4.0427-24.457 4.7481-11.072 0.98081-22.321 2.0499-33.355 1.6536-3.8022-0.13659-7.5915-0.66458-11.359-1.2516 11.253 12.213 24.206 25.009 38.6 37.823 54.433 48.459 107.19 77.973 117.78 65.874 10.369-11.856-23.714-59.296-76.295-106.79-1.1909-0.5679-2.4174-1.041-3.6726-1.4136-2.2471-0.66708-4.672-0.82925-7.2368-0.64244z" fill="#f00" fill-rule="evenodd" stroke="#000" stroke-width=".5"/>
  <path transform="matrix(.90013 0 0 .88007 61.566 68.613)" d="m185.37 322.31c1.6832 8.8042 3.428 17.717 6.2835 26.243 1.8299 5.4641 4.2423 11.063 7.7727 15.729 3.3258 4.3957 8.1128 8.1333 12.796 11.457 3.3419 2.3718 7.1811 4.9484 11.279 5.6295 6.7389 1.12 14.166 0.05783 21.232-0.22602 6.0774-0.24412 12.359-0.11297 18.199-1.3579 4.7763-1.0182 9.2016-3.4404 13.649-5.4316 3.6408-1.6299 7.377-3.2544 10.616-5.4315 4.0275-2.7071 13.206-6.8303 11.184-9.2214-4.7043-5.5624-20.868-9.8309-31.363-14.639-7.7176-3.5356-15.588-6.806-23.275-10.392-6.313-2.9449-12.373-6.3316-18.725-9.2003-5.45-2.4612-11.166-4.4433-16.682-6.7894-5.0152-2.1329-9.9452-4.4264-14.913-6.6475-3.194-1.4279-8.5108-5.6555-9.573-4.2997-1.6219 2.0701 0.60232 9.7748 1.5205 14.578z" fill="#f00" fill-rule="evenodd" stroke="#000" stroke-width=".5"/>
  <path transform="matrix(.90013 0 0 .88007 61.566 68.613)" d="m184.89 319.81c1.3894 7.3833 2.8298 14.857 5.187 22.008 1.5106 4.5822 3.502 9.2772 6.4163 13.19 2.7454 3.6863 6.697 6.8207 10.563 9.608 2.7587 1.989 5.928 4.1498 9.3111 4.721 5.5629 0.93926 11.694 0.0485 17.527-0.18954 5.0168-0.20472 10.202-0.09474 15.023-1.1387 3.9428-0.8539 7.5958-2.8852 11.267-4.555 3.0054-1.3669 6.0896-2.7292 8.7634-4.555 3.3246-2.2702 10.901-5.728 9.2319-7.7331-3.8833-4.6647-17.226-8.2443-25.89-12.276-6.3708-2.965-12.868-5.7075-19.213-8.7147-5.2114-2.4696-10.214-5.3098-15.458-7.7155-4.4989-2.064-9.2172-3.7262-13.771-5.6937-4.14-1.7886-8.2097-3.712-12.311-5.5747-2.6366-1.1975-7.0255-4.7428-7.9024-3.6058-1.3389 1.736 0.49721 8.1973 1.2552 12.225z" fill="#ff4d00" fill-rule="evenodd" stroke="#000" stroke-width=".5"/>
  <path transform="matrix(.90013 0 0 .88007 61.566 68.613)" d="m184.44 317.31c1.1153 5.9622 2.2715 11.998 4.1636 17.772 1.2126 3.7003 2.8111 7.4915 5.1504 10.651 2.2038 2.9768 5.3758 5.5079 8.479 7.7587 2.2145 1.6062 4.7584 3.351 7.4741 3.8123 4.4654 0.75848 9.3866 0.03917 14.069-0.15306 4.027-0.16531 8.1896-0.0765 12.059-0.91956 3.1649-0.68955 6.0972-2.3299 9.0443-3.6782 2.4125-1.1038 4.8882-2.2039 7.0345-3.6782 2.6687-1.8333 8.7504-4.6255 7.4105-6.2447-3.1172-3.7668-13.828-6.6575-20.782-9.9135-5.1139-2.3943-10.329-4.609-15.423-7.0373-4.1832-1.9943-8.1986-4.2878-12.408-6.2305-3.6113-1.6667-7.3987-3.009-11.054-4.5978-3.3232-1.4444-6.59-2.9976-9.882-4.5017-2.1164-0.967-5.6394-3.8299-6.3434-2.9117-1.0747 1.4019 0.39912 6.6195 1.0075 9.8719z" fill="#ff6d00" fill-rule="evenodd" stroke="#000" stroke-width=".5"/>
  <path transform="matrix(.90013 0 0 .88007 61.566 68.613)" d="m183.91 314.21c0.88036 4.6989 1.793 9.4556 3.2865 14.006 0.95711 2.9163 2.2189 5.9042 4.0654 8.3947 1.7395 2.3461 4.2433 4.3409 6.6928 6.1148 1.748 1.2659 3.756 2.641 5.8996 3.0046 3.5247 0.59778 7.4092 0.03088 11.105-0.12062 3.1787-0.13029 6.4643-0.0603 9.5187-0.72473 2.4982-0.54345 4.8128-1.8362 7.139-2.8989 1.9043-0.86991 3.8584-1.7369 5.5526-2.8989 2.1065-1.4448 6.907-3.6455 5.8494-4.9216-2.4605-2.9687-10.915-5.2469-16.404-7.813-4.0366-1.887-8.1531-3.6324-12.174-5.5462-3.302-1.5717-6.4714-3.3793-9.794-4.9104-2.8506-1.3136-5.84-2.3715-8.7255-3.6236-2.6232-1.1383-5.2017-2.3624-7.8002-3.5479-1.6706-0.76211-4.4514-3.0184-5.007-2.2948-0.84831 1.1049 0.31504 5.217 0.79527 7.7803z" fill="#ffaf00" fill-rule="evenodd" stroke="#000" stroke-width=".5"/>
  <path transform="matrix(.90013 0 0 .88007 61.566 68.613)" d="m183.75 311.71c0.60624 3.2778 1.2347 6.5959 2.2632 9.7703 0.65909 2.0343 1.528 4.1186 2.7996 5.8558 1.1979 1.6365 2.922 3.028 4.6088 4.2654 1.2037 0.88303 2.5865 1.8423 4.0626 2.0959 2.4272 0.41698 5.1022 0.02154 7.6473-0.08414 2.1889-0.09089 4.4515-0.04207 6.5548-0.50555 1.7203-0.37909 3.3142-1.2809 4.9161-2.0222 1.3113-0.60681 2.657-1.2116 3.8236-2.0222 1.4506-1.0078 4.7564-2.5429 4.0281-3.4331-1.6944-2.0709-7.5161-3.66-11.296-5.4501-2.7797-1.3163-5.6144-2.5338-8.3831-3.8688-2.2738-1.0964-4.4564-2.3572-6.7444-3.4253-1.963-0.9163-4.0216-1.6542-6.0086-2.5277-1.8064-0.79406-3.582-1.6479-5.3714-2.4749-1.1504-0.53162-3.0654-2.1056-3.448-1.6008-0.58417 0.77071 0.21694 3.6392 0.54764 5.4272z" fill="#fff500" fill-rule="evenodd" stroke="#000" stroke-width=".5"/>
  <path transform="matrix(.90013 0 0 .88007 61.566 68.613)" d="m250.26 261.45c4.4732 0 14.224 4.7184 19.01 9.5052 5.7496 0 6.9119 6.7894 12.221 6.7894 3.0584 3.0584 11.372 8.1473 16.295 8.1473 3.4753 3.4753 15.446 5.4316 20.368 5.4316 4.6477 0 14.937 4.6451 14.937 8.1473 5.3576 0 11.886 7.8118 14.937 10.863 0 2.0117 1.1521 1.1521 2.7158 2.7158" fill="none" stroke="#ffdf00" stroke-width="1.25"/>
  <path transform="matrix(.90013 0 0 .88007 61.566 68.613)" d="m258.4 257.38c6.8942 0 19.01 1.2531 19.01 8.1473 7.4266 0 7.139 6.7894 13.579 6.7894 6.4629 6.4629 11.864 5.0748 17.653 10.863 6.9499 0 14.888 4.0737 20.368 4.0737 4.0129 0 11.93 5.1408 14.937 8.1473 4.6209 0 4.4678 9.5052 12.221 9.5052 0 4.1861 10.863 4.7629 10.863 8.1473 2.0092 0 3.4223 2.7158 5.4316 2.7158" fill="none" stroke="#ffdc00" stroke-width="1.25"/>
  <path transform="matrix(.90013 0 0 .88007 61.566 68.613)" d="m184.06 134.78c-3.9419 0-7.6629 0.68655-11.281 1.6562 1.06-0.07655 2.0758-0.3125 3.1562-0.3125 23.186 0 42 17.951 42 40.062 0 18.31-12.991 33.603-30.594 38.375 21.628-1.6232 38.719-18.709 38.719-39.75 0-22.112-18.814-40.031-42-40.031z" fill="#ffd700" fill-opacity=".75" fill-rule="evenodd"/>
  <path transform="matrix(.90013 0 0 .88007 61.566 68.613)" d="m195.62 223.58c3.6375-1.5493 2.2229-4.109 10.912-4.6479 5.052-2.5597 7.2749-3.0986 10.912-4.6479" fill="none" stroke="#ffd900" stroke-width="1.25"/>
  <path transform="matrix(.90013 0 0 .88007 61.566 68.613)" d="m199.66 226.81c3.6375-1.5493 2.2229-4.109 10.912-4.6479 5.052-2.5597 7.2749-3.0986 10.912-4.6479" fill="none" stroke="#ffd500" stroke-width="1.25"/>
  <path transform="matrix(.90013 0 0 .88007 61.566 68.613)" d="m204.72 229.84c3.6375-1.5493 2.2229-4.109 10.912-4.6479 5.052-2.5597 7.2749-3.0986 10.912-4.6479" fill="none" stroke="#ffdf00" stroke-width="1.25"/>
  <path transform="matrix(.90013 0 0 .88007 61.566 68.613)" d="m89.782 180.26c1.8822 2.4916 4.2611 5.4681 6.2513 8.4121 1.7819 2.636 10.681 12.23 10.432 19.052-0.24708 6.7678-30.437 1.9001-45.257 1.5532-14.146-0.3312-28.507-2.4702-26.625-6.1978 4.5029-8.9213 18.647-13.67 31.047-19.304s21.012-7.672 24.152-3.5154z" fill="url(#e)" fill-rule="evenodd" stroke="#000" stroke-width=".56177"/>
  <path transform="matrix(.90013 0 0 .88007 61.566 68.613)" d="m93.502 222.03c2.1216-1.7214 4.5793-3.3781 5.6612-4.6662 1.7541-2.0885 7.6128-6.844 7.3637-10.525-0.24708-3.6516-26.799 0.09769-41.599 0.90076-14.292 0.77547-28.861-2.9906-26.979-0.97937 4.5029 4.8136 19.001 10.333 31.402 13.373s21.916 3.7111 24.152 1.8968z" fill="url(#d)" fill-rule="evenodd" stroke="#000" stroke-width=".56177"/>
  <path transform="matrix(.90013 0 0 .88007 61.566 68.613)" d="m592.23 514.34 71.041 37.05" fill="none" stroke="#000" stroke-linecap="round" stroke-width=".56177"/>
  <path transform="matrix(.90013 0 0 .88007 61.566 68.613)" d="m584.18 518.07 58.255 32.602" fill="none" stroke="#000" stroke-linecap="round" stroke-width=".47653"/>
  <path transform="matrix(.90013 0 0 .88007 61.566 68.613)" d="m571.2 522.58 67.559 52.1" fill="none" stroke="#000" stroke-linecap="round" stroke-width=".56653"/>
  <path transform="matrix(.90013 0 0 .88007 61.566 68.613)" d="m560.2 523.84 80.212 66.28" fill="none" stroke="#000" stroke-linecap="round" stroke-width=".54732"/>
  <path transform="matrix(.90013 0 0 .88007 61.566 68.613)" d="m578.82 520.59 57.03 39.501" fill="none" stroke="#000" stroke-linecap="round" stroke-width=".51898"/>
  <path d="m532.86 479.12 31.813 22.224" fill="none" stroke="#000" stroke-linecap="round" stroke-width=".5"/>
  <path d="m525.51 467.5 41.363 27.294" fill="none" stroke="#000" stroke-linecap="round" stroke-width=".5"/>
  <path d="m527.25 482.27 29.919 23.882" fill="none" stroke="#000" stroke-linecap="round" stroke-width=".50777"/>
  <path d="m517.38 480.14 28.693 26.606" fill="none" stroke="#000" stroke-linecap="round" stroke-width=".48194"/>
  <path d="m503.52 476.13 26.704 27.979" fill="none" stroke="#000" stroke-linecap="round" stroke-width=".43092"/>
  <path d="m493.77 472.95 18.117 27.669" fill="none" stroke="#000" stroke-linecap="round" stroke-width=".5"/>
 </g>
</svg>
