<?xml version="1.0" encoding="UTF-8"?>
<svg version="1.1" viewBox="0 0 628.37 677" xmlns="http://www.w3.org/2000/svg">
 <g transform="translate(-69.881 -187.25)">
  <g transform="matrix(.98714 0 0 .98714 4.9392 6.7614)">
   <g stroke="#000" stroke-linecap="round">
    <path d="m195.07 486.79c3.8267-0.55756 12.091-2.0058 18.071 0.89811 15.635 10.911 4.52 32.157-2.5508 40.11-9.3517 10.428-22.369 19.245-39.462 26.437-17.246 7.149-32.446 3.3398-19.606-13.009-22.868 0.48981-55.238 3.6815-52.587-18.806-1.5945 2.8447 1.9453 10.869 2.5029 11.244 0.92204 0.6193-3.3572-0.47418-10.525-5.5691-16.201-12.348-17.376-29.084-10.749-47.249-1.9343 4.6866-2.7938 10.001-3.778 15.638-9.3228-13.688-7.4277-22.225 3.0368-32.66 1.3941-1.2002 4.7474-4.0088 10.228-3.1567 1.1805 0.37481 3.7321 0.71623 2.6307 2.0482-2.3927 2.8934-6.6779 9.1016-7.5874 11.57 2.2348-4.3478 4.8172-8.4639 8.0599-12.14 16.669-16.439 26.038-20.713 48.606-24.608 25.013 12.849 33.117 36.121 53.711 49.252z" fill="#edd5bd" stroke-linejoin="round" stroke-width="1px"/>
    <path d="m298.5 328.08 5.5558-24.244c5.8084-12.837 11.617-18.104 17.425-24.496 8.6595-9.6053 90.374-56.897 136.12-71.468 6.3854-2.9822 21.452-0.62392 12.122 11.112l-33.335 35.355c-8.5709 8.9751-16.001 19.319-21.213 32.325-6.6987 18.87-16.872 36.351-30.305 52.528-8.3334 8.3289-17.565 15.61-31.549 17.346 7.0126 2.3706 10.132 7.9185 11.851 21.545-0.16738 18.338-5.9817 36.602-8.5863 58.084-10.644 97.316 99.253 69.747 161.6 56.273 17.877-3.9088 47.427-3.7977 65.977 2.3774 22.459 7.8273 31.782 15.873 43.646 24.687 12.907 8.8012 43.888 0.33064 50.003-18.688 6.5528-19.123-0.65909-43.707-19.951-54.296-31.612-13.133-95.801 42.677-77.277 12.374 0.31815 0.31781-17.96 5.6472-14.647 0.50508 17.275-20.846 50.186-28.89 68.438-32.325 41.726-5.3602 69.04 25.123 62.377 68.69-2.6353 23.007-26.433 45.311-51.518 44.952 4.8427 31.95-1.1615 65.659-16.415 87.631-17.542 23.016-35.341 42.555-53.033 66.418-13.558 22.483-11.658 25.642-12.374 32.072 1.0308 6.3066 2.3775 12.455 1.5152 24.496-0.8127 7.1262-0.11721 12.744-7.3236 26.264-1.7156 5.2945-2.6396 11.222-1.0102 19.193 2.8182 7.8506 5.5733 15.733 7.0711 24.244 0.13516 12.844-15.155 0.12256-19.698-3.0305-15.929 3.5593-15.925-9.8785-29.547-11.364-29.3 11.353-12.02-6.4861 2.2728-17.678 2.4776-2.0539 6.2667-8.5416 2.5254-16.415-2.4502-7.2071-5.0097-12.938-6.0609-23.234-1.2018-6.0284 5.2166-20.401 6.0609-29.294-6.4537-13.328-8.1928-19.38-20.32-35.633-2.8086-1.8932-13.633-5.3994-26.904-2.0689-37.316 10.83-102.16 3.9526-126.34-9.775 2.2906 15.685 3.4332 23.152 1.5892 41.164-1.8162 20.098-10.603 34.773-14.9 52.78-1.3858 11.711 3.3036 21.903 7.0711 32.325 3.0328 7.3386 10.029 23.655-0.50508 19.193-4.972-4.0091-2.6053-2.8604-10.607-8.0812-5.8287-0.0491-7.6676 3.5746-12.122 3.0305-9.31-3.7675-8.8521-11.927-14.142-13.89-4.8246 0.091-12.694 2.357-22.223 5.8084-8.5425 3.0117-9.8836-3.3975-3.7881-7.8287 12.751-8.5786 15.407-10 22.815-19.471-0.71652-13.79-2.6866-3.0835-6.1296-39.034 0.2182-16.044 6.3573-20.328 6.2955-37.712 1.0074-19.114-15.109-26.519-26.621-50.987-6.6819-29.896-1.0558-48.478 3.3876-78.312 2.1756-21.633-9.0227-50.322-30.81-60.609-5.8825-0.10416-20.03 5.1378-34.363 16.859 5.1794-6.6228 10.255-16.353 10.619-21.435 0.8569-25.507-18.819-20.476-26.175-19.818-12.371-5.5481-32.314-38.401-53.561-49.224 6.1015-8.9691 9.2949-19.541 14.46-31.058 3.9337-10.309 0.38025-24.098 10.102-40.28 6.6424-10.595 29.116-22.803 30.936-24.749-9.3814 19.323 34.796-8.0924 40.154-9.849-12.867 7.6707-22.625 24.869-5.8084 20.961 19.025-2.7899 26.149-12.38 36.365-20.203-12.695 16.792 3.1216 9.3317 7.8287 5.0508l17.173-15.152c-7.9894 10.696-3.6384 13.075 5.8084 6.0609z" fill="#a08d7c" stroke-linejoin="round" stroke-width="1px"/>
    <path d="m359.11 614.46c-8.7083 21.209-12.362 36.195-13.474 57.936 2.0862-10.186 5.3468-19.66 11.454-28.641" fill="none" stroke-linejoin="round" stroke-width="1px"/>
    <path d="m519.98 581.13c-28.664 24.421-35.625 62.938-21.231 102.92" fill="none" stroke-width="1px"/>
    <path d="m470.81 682.81c4.4035 9.4698 6.6728 10.288 13.491 20.259 4.3827 8.7839 7.9588 13.698 8.2344 23.515-4.0838 15.193-6.1048 31.719-2.7013 45.725-5.8813 5.4142-22.394 18.773-6.8185 19.129 4.447-1.2589 8.3282-5.1275 12.201-6.0635 7.6964-1.5563 11.275 11.363 13.081 10.148 2.524-2.8436 17.816-7.739 9.7221-25.096-1.371-6.9202-5.106-12.507-4.5689-24.997 1.9574-11.268 5.3483-20.27 5.3466-25.146-0.33669-5.1258-12.21-24.985-19.606-36.006-7.7458-2.5154-15.52-4.9968-28.381-1.4666z" fill="#8e7762" stroke-linejoin="round" stroke-width="1px"/>
    <path d="m498.55 807.26c-18.043 15.21-21.229 28.152-21.938 45.503 0.67698 11.175 65.737 7.6927 75.18 0.71159 5.8659-8.9002 4.8112-25.644 4.378-27.771-2.6016-1.3553-8.3155-5.3763-12.327-8.9216-5.2004 2.1104-9.5012 0.94354-13.275-2.1455-5.0451-4.1832-10.162-6.7062-15.327-8.0995-17.035 5.5352-17.506 2.6549-16.692 0.72316z" fill="#2c2424" stroke-linejoin="round" stroke-width=".95491px"/>
    <path d="m476.67 789.6c-15.486 14.882-23.318 36.769-20.97 46.211 1.4329 2.6414 2.9896 4.554 22.396 2.9565 3.4888-11.622 10.355-21.708 20.002-31.028 1.5358-5.1667 5.9579-8.2207 9.6831-11.877-5.0838-6.4723-6.5892-12.279-13.668-10.094-7.748 3.4303-10.069 7.9625-17.443 3.8314z" fill="#161212" stroke-linejoin="round" stroke-width="1px"/>
    <path d="m273.25 805.13c-8.42 4.2685-11.093 9.5657-14.9 15.152-6.4602 11.334-7.4304 18.41-6.3134 27.527 2.4815 6.4714 27.828 3.5447 39.396 4.0406 16.454-0.57429 33.82-1.0044 37.881-3.5355 3.0742-4.4628 4.1829-12.274 5.5558-16.92 0.87983-5.9918 3.127-13.045-2.0203-17.93-5.3972-6.0311-10.152-2.2766-15.91-0.25254-6.6186-0.64763-7.3784-7.2826-14.395-13.637-5.0508-1.1605-10.102 1.4983-15.152 2.7779-5.3402 1.5347-12.661 5.0178-14.142 2.7779z" fill="#2c2424" stroke-linejoin="round" stroke-width="1px"/>
    <path d="m258.39 719.2c7.1618 12.207 13.875 26.728 10.311 30.621-16.856 17.481-65.72 39.497-72.226 33.84-12.406-5.3918-10.328-45.196 1.2627-56.316 7.7167 3.2803 6.8426-4.5495 18.688-14.016 9.6981-7.0257 10.064-6.6451 19.698-0.88388 8.7379-5.2237 9.526-2.5101 13.637 3.9144 1.5964 1.2703 7.8634 2.6908 8.6296 2.8398z" fill="#171111" stroke-linejoin="round" stroke-width="1px"/>
    <path d="m272.7 590.29c0.62373-3.8722-19.828 22.175-31.278 29.727-9.966 6.5936-46.718 19.559-53.538 27.274-17.023 19.406 7.0692 48.596 12.627 59.346l-3.283 17.93c-0.41411 4.8387 5.7104 4.9705 8.3338 0.63135 6.434-10.899 17.234-17.553 19.95-17.551 4.2066 0.14599 7.899 2.6498 10.607 5.1681 5.917-3.7334 8.3325-6.6428 13.385 3.4003 15.134 8.0247 17.607-1.2185 14.377-8.6117-4.3018-4.8911-11.531-8.6433-19.933-14.351-3.551-6.1004-4.6125-15.52-5.3466-25.376 15.688-5.7819 27.287-11.333 33.724-17.551-4.7908-23.053-2.7594-37.646 0.3751-60.035z" fill="#8d7663" stroke-linejoin="round" stroke-width="1px"/>
    <path d="m233.85 656.38 5.5558 10.102-3.5355 4.0406-9.0914-5.0508h-8.5863" fill="none" stroke-linejoin="round" stroke-width="1px"/>
    <path d="m658.4 309.65c-15.933 20.65-19.488 35.651-28.573 59.845-2.2041 9.4678-6.5878 23.275-17.173 37.376-8.9512 11.059-19.99 19.394-31.162 27.988-5.0384 4.4817-3.8469 7.5276-1.3388 11.851l-9.5494 7.4768c-18.014 17.053 27.361-3.0569 10.26 4.7645-5.6099 9.4053-3.3309 8.7836-1.2336 9.0459-69.984 38.722-52.439-61.539-17.863-81.204-4.9741 7.7049-6.8005 14.361-8.8388 21.087 3.0196-7.9706 4.2581-15.493 10.354-22.981 8.0279-9.5768 10.489-19.152 26.895-29.926 7.5675-4.3543 14.319-8.5411 22.728-10.607 0.61265 7.1322-3.9546 13.198-8.8309 18.065-2.2915 2.287-4.6514 4.3092-6.5739 6.0527 7.8136-7.7512 15.7-12.036 15.405-24.117 15.424-7.899 24.439-18.663 36.871-28.699z" fill="#584848" stroke-linejoin="round" stroke-width="1px"/>
    <path d="m605.67 372.26c-6.3667 10.799-7.6928 12.887-14.734 16.433 2.5732-0.90103 4.6008-2.5849 7.1884-4.4284 2.2303 11.78-2.6628 19.36-7.6934 22.611" fill="none" stroke-linejoin="round" stroke-width="1px"/>
    <path d="m620.74 382.13c-1.3821 8.9302-5.1623 16.979-8.5863 25.254" fill="none" stroke-linejoin="round" stroke-width="1px"/>
    <path d="m581.19 394.69c-12.906 9.171-24.027 25.93-25.432 41.09-0.75124 0.73869-1.2862-11.538-1.1581-10.637-6.7353 9.9793-8.3715 15.654-9.9536 27.009" fill="none" stroke-linejoin="round" stroke-width="1px"/>
    <path d="m373.23 349.19c11.198 7.4739 24.495 42.28 13.267 41.014-6.1274-4.577-7.7286-10.16-9.7137-15.657 1.8561 6.1782 4.4323 11.842 9.5964 15.657 1.2249 12.467-0.98302 56.374-10.102 53.538-2.7778-5.5181-4.1095-11.357-2.612-17.826-2.4579 7.61 0.52599 13.043 2.612 18.836 0.71232 21.241 14.993 29.243 30.81 39.901 8.6809 6.9492 4.1213 9.1573-3.9233 8.469l-8.6169-7.6987 15.264 13.801c5.5166 3.6953 8.8171 5.1745 12.522 7.0584-14.227-0.58336-19.474-0.15015-38.559-7.2803-22.228-13.653-30.018-27.059-26.682-67.122 9.2248-45.425 8.5754-46.017 7.9714-55.354-0.58293-10.034-5.7296-17.307-10.168-19.88 9.0729-1.0731 13.862-4.5417 18.334-7.4551z" fill="#574949" stroke-linejoin="round" stroke-width="1px"/>
    <path d="m347.49 442.17c-6.7539 13.995-17.132 30.733-28.872 40.003-24.988 19.228-45.402 26.682-73.533 28.743" fill="none" stroke-linejoin="round" stroke-width="1px"/>
    <path d="m236.25 379.08c-0.58401-2.6462-3.619-9.0506-8.2143-10.179-14.436-3.1316-11.839 13.524-1.9643 5 8.7444 0.26967 13.769 18.563 10.179 5.1786z" fill="#251f1f" stroke-linejoin="round" stroke-width="1px"/>
    <path d="m210.69 389.56c-14.789 17.209-21.995 44.156-16.92 62.882" fill="none" stroke-linejoin="round" stroke-width="1px"/>
    <path d="m174.29 501.04c3.5086-6.7488 2.5767-15.866-3.0357-18.571-15.172-6.6706-30.529 19.148-28.497 31.429 0.47724 2.2157 1.253 2.7144 2.6786 3.75" fill="none" stroke-linejoin="round" stroke-width="1px"/>
    <path d="m164.83 494.08c-2.5694-0.0404-5.5309 3.0567-8.5714 6.7857-2.309 2.8811-4.1166 5.9294-5 9.2857-0.39146 2.4392 0.0348 4.406 1.4286 5.8929 6.1714 4.6362 6.2528-11.346 8.5714-15.536z" fill="#251f1f" stroke-linejoin="round" stroke-width="1px"/>
    <path d="m210.82 395.11c8.7266-3.6179 16.461 1.983 17.678 7.5761 3.9175 13.408-4.3555 46.246-18.309 48.235-14.349 2.1708-18.028-9.7437-16.162-24.749 3.995-16.274 8.1523-27.336 16.794-31.062z" fill="#fff" stroke-linejoin="round" stroke-width="1px"/>
    <path d="m223.49 437.04c-0.21427-11.419-8.9571-10.152-11.156-1.1441-1.2217 4.7493-2.7753 19.231 6.269 9.456" stroke-linejoin="round" stroke-width="1px"/>
    <path d="m305.56 301.02c-9.5337-9.7726-19.414-14.845-27.528-17.049 0 0-16.046-3.3065-31.071-2.8572-20.815-0.39979-72.979 17.458-60.68 22.953l19.43-7.4171s-21.071 8.3928-23.929 9.1071c-18.382 8.4469-50.396 37.559-26.295 29.277 4.0474-1.3908-3.2958 1.5446 25.224-13.385-11.13 6.9778-20.014 7.7767-33.571 21.429-6.3687 7.0596-16.407 18.795-18.571 24.286-9.1847 22.671 33.963-1.9221 39.423-4.8855 3.7564-2.8949 1.016-2.6584 45.755-33.239l-16.137 11.426c-10.018 20.362 32.611-6.7664 39.616-9.4665 1.6908-1.7376-23.704 17.32-11.667 21.526 18.663 0.20075 28.637-9.4457 42.205-20.539-7.7322 8.4371-5.1666 11.274-1.4623 10.131 11.088-4.2154 17.973-13.481 25.812-20.1-6.9256 11.613-3.1636 11.749 6.5459 5.7756 2.2745-8.9909 2.4284-17.982 6.9008-26.973z" fill="#574949" stroke-linejoin="round" stroke-width="1px"/>
    <path d="m222.86 284.51c-5.2295-9.3877-17.111-24.794-22.818-30.083-14.143-12.304-37.838-18.677-46.468-22.774l-30.335-14.329c-5.1358-2.7313-25.711-24.338-29.665-27.1-14.354-11.693-2.3598 21.606 2.6479 27.013 4.4619 7.0033 19.232 18.332 26.638 25.13-4.98-6.7067-11.141-11.051-14.286-21.429 1.7277 7.9955 8.3256 14.368 13.929 21.071 18.659 8.9634 46.072 37.414 48.593 41.241l11.254 22.462 3.9032-1.7387c-8.0822-3.0895 12.025-11.625 14.161-12.662z" fill="#8d7663" stroke-linejoin="round" stroke-width="1px"/>
    <path d="m123.04 242.36c5.3585 5.4121 11.517 10.013 15.357 16.964 8.7249 12.546 14.56 27.571 20.714 42.321 5.4193 12.073 7.0609 11.614 8.3929 12.5 7.5216-5.0151 8.7785-5.7453 14.821-8.5714l-10.982-21.964c-1.5889-3.7707-18.705-19.224-27.946-27.143-6.4693-6.1803-13.426-10.276-20.357-14.107z" fill="#d7b694" stroke-linejoin="round" stroke-width="1px"/>
    <path d="m340.97 303.25c0.0184-8.2719 18.203-23.281 34.033-32.655 17.858-10.817 34.252-15.977 61.645-30.339l17.475-16.212c-20.49 21.935-34.871 29.386-56.169 46.429-10.146 7.7511-13.024 16.071-15.852 24.487-2.1837 12.269-5.0834 15.852-7.9438 20.758-7.0608 10.598-16.086 19.056-27.056 23.745-19.365 7.363-11.868-7.0982-5.6276-20.794 0.7067-5.1283 2.1413-2.7688-0.50507-15.418z" fill="#edd5bd" stroke-linejoin="round" stroke-width="1px"/>
    <path d="m151.64 541.15c18.845-7.112 32.526-16.778 46.934-26.642 3.3709-4.6435 4.2562-9.6422 6.1364-14.499-3.3833-0.98717-4.1662 2.6121-5.5114 4.4094 0.66389-2.652 3.2486-5.828 5.8852-4.8954 5.4216 1.0344 3.6935 7.448 3.8469 11.235-0.51676-3.8626 0.29109-9.7959-4.0115-10.796-2.7091 5.2126-3.1513 10.399-5.9986 14.634-2.8473 4.2352-8.731 12.065-11.969 15.492-6.4764 6.854-13.987 12.261-23.544 16.898-11.538 4.6474-7.9577-6.216-1.2717-10.267z" fill="#251f1f" stroke-linejoin="round" stroke-width="1px"/>
   </g>
  </g>
 </g>
</svg>
