<?xml version="1.0" encoding="UTF-8"?>
<svg viewBox="0 0 269.79742 257.63879" xmlns="http://www.w3.org/2000/svg">
 <path d="m243.77 129.57c0.01803 60.508-49.029 109.57-109.54 109.57s-109.55-49.061-109.54-109.57c-0.01803-60.508 49.029-109.57 109.54-109.57s109.55 49.061 109.54 109.57z" fill="#939dac" stroke="#000" stroke-linecap="round" stroke-linejoin="round" stroke-width="4"/>
 <path d="m243.34 139.16c-20.834 45.696-66.936 77.469-120.44 77.469-30.327 0-58.251-10.211-80.562-27.375 19.534 30.031 53.378 49.875 91.875 49.875 57.279 0 104.29-43.948 109.12-99.969z" fill-opacity=".31373"/>
 <path d="m50.172 230.07c-0.00676 22.68 18.377 25.569 41.057 25.569s41.064-2.8894 41.057-25.569c0.00676-22.68-19.15-35.199-41.057-41.069-34.081-9.132-41.064 18.389-41.057 41.069z" fill="#939dac" stroke="#000" stroke-linecap="round" stroke-linejoin="round" stroke-width="4"/>
 <path d="m123.19 242.86c1.6437 6.1269-3.2503 8.2749-9.5461 9.9619s-11.608 2.2737-13.248-3.8542 2.1283-12.463 8.424-14.15 12.73 1.9139 14.37 8.0418z" fill="#fff" stroke="#000" stroke-linecap="round" stroke-linejoin="round" stroke-width="4"/>
 <path d="m225.27 104.57c0.01424 47.807-38.737 86.569-86.543 86.569s-86.558-38.763-86.543-86.569c-0.01425-47.807 38.737-86.569 86.543-86.569s86.558 38.763 86.543 86.569z" fill-opacity=".31373"/>
 <path d="m265.51 90.103c-8.9527 33.441-36.063 55.237-60.546 48.676s-37.064-38.991-28.096-72.428c8.9527-33.441 29.981-32.537 54.464-25.977s43.146 16.292 34.179 49.729z" fill="#939dac" stroke="#000" stroke-linecap="round" stroke-linejoin="round" stroke-width="4"/>
 <path d="m4.2862 90.103c8.9527 33.441 36.063 55.237 60.546 48.676s37.064-38.991 28.096-72.428c-8.9527-33.441-29.981-32.537-54.464-25.977s-43.146 16.292-34.179 49.729z" fill="#939dac" stroke="#000" stroke-linecap="round" stroke-linejoin="round" stroke-width="4"/>
 <path d="m198.94 38.179c-9.7436 2.9733-17.483 11.083-22.062 28.188-8.9673 33.437 3.6106 65.846 28.094 72.406 2.6674 0.71474 5.3596 1.0618 8.0625 1.125 6.681-12.281 10.473-26.379 10.469-41.344 7e-3 -23.492-9.3733-44.777-24.562-60.375z" fill-opacity=".31373"/>
 <path d="m205.16 43.242c-14.769-0.15353-26.626 6.6342-32.781 29.625-4.9684 18.526-3.3394 36.727 3.2812 50.406 4.9647-23.478 27.197-52.565 60.062-54 13.328-0.58212 28.808 8.0464 24.312-2.4688s-18.412-15.97-33.219-19.938c-7.651-2.0501-14.943-3.5552-21.656-3.625z" fill-opacity=".31373"/>
 <path d="m65.15 43.242c14.769-0.15353 26.626 6.6342 32.781 29.625 4.9684 18.526 3.3394 36.727-3.2812 50.406-4.9647-23.478-27.197-52.565-60.062-54-13.328-0.58212-28.808 8.0464-24.312-2.4688s18.412-15.97 33.219-19.938c7.651-2.0501 14.943-3.5552 21.656-3.625z" fill-opacity=".31373"/>
 <path d="m220.77 88.569c0.01424 47.807-38.737 86.569-86.543 86.569s-86.558-38.763-86.543-86.569c-0.01425-47.807 16.077-86.569 86.543-86.569 71.88 0 86.558 38.763 86.543 86.569z" fill="#939dac" stroke="#000" stroke-linecap="round" stroke-linejoin="round" stroke-width="4"/>
 <path d="m130.6 72.099c0.00373 12.519-10.144 22.67-22.663 22.67s-22.667-10.151-22.663-22.67 10.144-22.67 22.663-22.67 22.666 10.151 22.663 22.67z" fill="#fff" stroke="#000" stroke-linecap="round" stroke-linejoin="round" stroke-width="4"/>
 <path d="m183.33 72.099c0.00373 12.519-10.144 22.67-22.663 22.67s-22.667-10.151-22.663-22.67 10.144-22.67 22.663-22.67 22.666 10.151 22.663 22.67z" fill="#fff" stroke="#000" stroke-linecap="round" stroke-linejoin="round" stroke-width="4"/>
 <path d="m163.19 76.099c0.00125 4.173-3.3813 7.5565-7.5542 7.5565s-7.5555-3.3835-7.5542-7.5565 3.3813-7.5565 7.5542-7.5565 7.5555 3.3835 7.5542 7.5565z"/>
 <path d="m121.16 76.099c0.00125 4.173-3.3813 7.5565-7.5542 7.5565s-7.5555-3.3835-7.5542-7.5565 3.3813-7.5565 7.5542-7.5565 7.5555 3.3835 7.5542 7.5565z"/>
 <path d="m224.29 230.07c0.00676 22.68-18.377 25.569-41.057 25.569s-41.064-2.8894-41.057-25.569c-0.00676-22.68 19.15-35.199 41.057-41.069 34.081-9.132 41.064 18.389 41.057 41.069z" fill="#939dac" stroke="#000" stroke-linecap="round" stroke-linejoin="round" stroke-width="4"/>
 <path d="m104.22 193.49c5.6176 7.3619 9.0654 16.555 9.0625 27.906 0.00676 26.823-18.383 30.25-41.062 30.25-3.5097 0-6.9045-0.106-10.156-0.34375 7.4399 3.6105 17.751 4.3438 29.156 4.3438 22.68 1e-5 41.069-2.9137 41.062-25.594 0.00538-18.025-12.099-29.61-28.062-36.562z" fill-opacity=".31373"/>
 <path d="m157.46 220.5c0.00471 15.788-12.792 28.589-28.58 28.589s-28.584-12.801-28.58-28.589 12.792-28.589 28.58-28.589 28.584 12.801 28.58 28.589z" fill="#939dac" stroke="#000" stroke-linecap="round" stroke-linejoin="round" stroke-width="4"/>
 <path d="m81.746 249.5c-1.64 6.1279-6.9523 5.5411-13.248 3.8542s-11.19-3.835-9.5461-9.9619 8.0744-9.7288 14.37-8.0418 10.068 8.0226 8.424 14.15z" fill="#fff" stroke="#000" stroke-linecap="round" stroke-linejoin="round" stroke-width="4"/>
 <path d="m219.25 72.461c-4.9306 47.578-45.146 84.688-94.031 84.688-26.651 0-50.721-11.041-67.906-28.781 14.4 27.794 43.441 46.781 76.906 46.781 47.807 0 86.577-38.787 86.562-86.594 0.00164-5.5039-0.55059-10.875-1.5312-16.094z" fill-opacity=".31373"/>
 <path d="m157.39 218.99h-45.681c7.6618-63.286-7.3626-94.75-7.3626-94.75h60.406s-15.024 32.171-7.3626 94.75z" fill="#939dac" fill-rule="evenodd"/>
 <path d="m164.75 124.24s-15.024 32.171-7.3626 94.75m-45.681 0c7.6618-63.286-7.3626-94.75-7.3626-94.75" fill="none" stroke="#000" stroke-linecap="round" stroke-width="4"/>
 <path d="m187.44 131.78c6.5197 5.2075 6.0526 33.517 2.1865 38.213s-26.856-23.583-22.927-32.289c4.134-9.1602 14.607-10.823 20.74-5.9234z" fill="#fff" fill-rule="evenodd" stroke="#000" stroke-linejoin="round" stroke-width="4"/>
 <path d="m118.69 113.03c14.5-14.5 31-0.5 31-0.5" fill="none" stroke="#000" stroke-linecap="round" stroke-width="4"/>
 <path d="m123.66 135.53c9.8565-7.8857 21.072-0.27193 21.072-0.27193" fill="none" stroke="#000" stroke-linecap="round" stroke-width="4"/>
 <path d="m125.31 158.03c8.3086-5.681 17.763-0.1959 17.763-0.1959" fill="none" stroke="#000" stroke-linecap="round" stroke-width="4"/>
 <path d="m80.765 131.78c-6.5197 5.2075-6.0526 33.517-2.1865 38.213s26.856-23.583 22.927-32.289c-4.134-9.1602-14.607-10.823-20.74-5.9234z" fill="#fff" fill-rule="evenodd" stroke="#000" stroke-linejoin="round" stroke-width="4"/>
 <path d="m216.19 242.86c1.6437 6.1269-3.2503 8.2749-9.5461 9.9619s-11.608 2.2737-13.248-3.8542 2.1283-12.463 8.424-14.15 12.73 1.9139 14.37 8.0418z" fill="#fff" stroke="#000" stroke-linecap="round" stroke-linejoin="round" stroke-width="4"/>
 <path d="m174.75 249.5c-1.64 6.1279-6.9523 5.5411-13.248 3.8542s-11.19-3.835-9.5461-9.9619 8.0744-9.7288 14.37-8.0418 10.068 8.0226 8.424 14.15z" fill="#fff" stroke="#000" stroke-linecap="round" stroke-linejoin="round" stroke-width="4"/>
 <path d="m195.03 248.49c0.00194 6.3436-5.2813 7.1517-11.799 7.1517s-11.801-0.80815-11.799-7.1517 5.2813-11.487 11.799-11.487 11.801 5.1435 11.799 11.487z" fill="#fff" stroke="#000" stroke-linecap="round" stroke-linejoin="round" stroke-width="4"/>
 <path d="m102.03 248.49c0.00194 6.3436-5.2813 7.1517-11.799 7.1517s-11.801-0.80815-11.799-7.1517 5.2813-11.487 11.799-11.487 11.801 5.1435 11.799 11.487z" fill="#fff" stroke="#000" stroke-linecap="round" stroke-linejoin="round" stroke-width="4"/>
 <path d="m155.32 209.62c-0.41117 15.425-13.038 27.812-28.562 27.812-11.945-1e-5 -22.166-7.3453-26.438-17.75-0.00752 0.27119-0.03133 0.53948-0.03125 0.8125-0.0047 15.788 12.806 28.594 28.594 28.594s28.567-12.806 28.562-28.594c0.00115-3.8531-0.74372-7.5204-2.125-10.875z" fill-opacity=".31373"/>
 <path d="m201.75 187.81c10.561 8.1526 13.348 24.672 13.344 39.25 0.00699 23.468-19.008 26.469-42.469 26.469-5.0909 0-9.9453-0.16475-14.469-0.625 6.9351 2.2199 15.623 2.7188 25.062 2.7188 22.68 0 41.069-2.8825 41.062-25.562 0.0053-17.769-4.2858-38.492-22.531-42.25z" fill-opacity=".31373"/>
 <path d="m94.656 130.47c0.77658 0.84337 1.503 1.8148 2.125 2.9062 4.5447 7.9754-13.96 36.284-19.219 34.656 0.30552 0.84577 0.62854 1.5175 1 1.9688 3.866 4.6961 26.867-23.606 22.938-32.312-1.5669-3.472-4.037-5.8501-6.8438-7.2188z" fill-opacity=".31373" fill-rule="evenodd"/>
</svg>
