<?xml version="1.0" encoding="UTF-8"?>
<svg width="357.45" height="325.07" enable-background="new 0 0 357.447 325.072" viewBox="0 0 357.447 325.072" xmlns="http://www.w3.org/2000/svg">
 <g fill-rule="evenodd">
  <path d="m194.03,243.71v.358c.955,5.972.835,10.749 3.104,13.376 2.27,2.509 2.031,11.705 3.106,19.23 1.075,7.526 2.149,16.246 1.911,19.23-.358,2.987.835,2.987 2.508,2.987s5.257,4.538 4.659,9.554c-.599,4.897 1.672,2.749 2.865,1.912 1.194-.717 1.673.478 1.791,1.672s.839,8.718 4.301,10.393c3.464,1.671 13.378,3.223 19.11,2.148 3.347-.597 1.674-3.344 1.674-3.344 2.746.717 4.061.12 3.104-2.867 2.986.836 5.974.359 5.375-1.314 2.269-.597 3.463-1.076 2.029-4.061-1.313-3.106-5.972-10.39-11.586-11.945-.835-2.388-3.583-4.061-6.21-5.135-2.509-1.076-9.077-5.254-10.63-12.064-1.673-6.806 0-24.605 2.507-29.141 2.031-3.584 3.467-6.81 3.585-10.989h-33.19z" fill="#a96e42"/>
  <path d="m71.958,243.71c2.031,8.719 5.853,15.168 8.361,16.482 2.03.119 4.3-4.299 4.659-8.719 1.91,4.658 4.776,7.047 7.046,7.047 1.433.478 1.792-6.331 2.03-13.019v-1.791h-22.096z" fill="#a96e42"/>
  <path d="m7.341,243.71c.119.478.357.835.597.835 1.075.479.239,3.345-.121,3.823-.239.478-.357,1.193-1.075,8.6-.478,7.407-4.18,25.559-5.374,28.069-1.195,2.627-2.03,6.928-.12,6.928 2.509,0-.119,3.941 1.792,3.821 1.91-.238 3.224,3.583 1.91,5.255s1.672.599.598,3.227c-1.075,2.507-.119,3.464 2.03,2.747 2.031-.597 2.39,2.388 3.822,6.569 1.554,4.181.479,7.765 8.839,8.599 8.241.717 15.408.717 14.213-2.747 2.866.479 4.777-.238 3.344-2.508 4.299.716 11.228,1.551 10.153-1.314 2.149.357 4.3.836 2.866-2.389-1.314-3.104-4.897-9.913-9.555-12.541 .478-2.27-1.313-3.226-2.986-5.734-1.673-2.388-6.808-5.612-5.614-24.364 .598-12.184 4.658-21.382 8.122-26.875h-33.441z" fill="#a96e42"/>
  <path d="m227.23,243.71c.119-.956 0-2.149-.118-3.346-1.316-12.42 1.073-20.424 1.67-24.127 3.226-17.915 5.495-17.438 6.451-22.573 2.388-11.825 6.688-9.915 12.421-19.35 .479,1.074.597,2.867.597,2.867s5.018-7.524 8.241-14.333h-233.02c1.552,12.422 1.194,27.831.716,39.415-.239,3.583-3.344,17.319-7.167,23.531-3.463,5.494-4.419,5.614-7.524,10.749-2.149,3.704-2.509,6.091-2.149,7.167h33.442c1.792-2.986 3.464-5.017 4.18-5.733 2.15-2.15 7.287-7.763 7.287-7.763s2.627,2.028 5.375,3.582c6.928,4.181 13.258,2.747 13.258,3.105 .238,2.389.717,4.66 1.075,6.809h22.097c-.238-10.032-5.017-8.361.717-11.108 3.225-1.673 7.167-4.658 13.975-18.873 .836-1.551 6.21-1.434 11.704-2.029 8.124-.956 21.142-5.017 30.697-10.988 7.405-4.66 20.902-10.033 26.038-8.719 8.123-.239 11.586-2.988 9.675-1.076-1.791,1.91-3.701,5.972-3.701,5.972s2.149-1.194 2.866-1.194c.835,0-2.27,5.495-1.792,6.926 .359,1.555 3.344-3.104 2.389-.835s-1.075,5.137-1.075,5.137 2.986-5.137 2.15-1.553c-.717,3.582-.478,5.135-.478,5.135s1.91-4.42 1.791-2.389-1.791,4.898.239,5.613 .717,5.376 2.985,11.706c2.15,6.211.956,12.542 1.792,18.275h33.2z" fill="#a96e42"/>
  <path d="m284.56,82.11c3.105-8.958 5.374-16.124 5.973-18.154 1.791-5.972 11.107-3.584 18.99-2.987 2.27.12 7.525,0 10.511-1.671 1.791-.957 3.106,1.431 5.614,0 2.628-1.554 4.657-1.671 6.688-.478 1.912,1.194 12.063.357 13.258,1.314 1.672,1.433 8.002.595 8.72-3.346 .358-2.031-.597-4.18-.597-4.18s3.464,2.269 3.583-1.673c.358-4.181-1.913-5.973-1.913-5.973s1.673,1.435.718-2.627c-1.791-8.121-5.016-10.989-15.767-20.303-5.016-4.302-19.468-10.751-23.29-12.422-2.629-1.076-6.57-6.331-10.512-8.242-4.538-2.27-10.151-1.075-13.495.238-7.405,2.987-9.796-2.508-17.32.836-2.747,1.194-6.568,3.941-9.196,8.122-3.583,5.614-2.747,6.808-3.226,8.361-2.389,8.479-26.157,46.82-44.55,56.138-11.35,5.732-16.724,1.552-22.218,3.821-5.015,2.032-8.719,1.671-11.466,3.225h99.51z" fill="#a96e42"/>
  <path d="m15.343,82.11c-.957-5.255-1.434-12.542.357-18.633 3.583-11.823-4.06,1.194-4.778,4.778-.477,2.032-1.313-1.194-.716-2.985 .716-1.793-2.508,3.346-2.389,7.287-.836-2.032-.716-4.063-.716-4.063s-1.672,3.224-1.195,5.734c.359,2.388-.357,4.179-.357,4.179l-1.313-3.343s-.956,3.104.119,6.211c.12.357.239.596.239.835h10.749z" fill="#a96e42"/>
  <path d="m3.757,82.11-.239-.835s-.119.357-.119.835h.358z" fill="#a96e42"/>
  <path d="m3.399,82.11c0,1.074.119,2.867.358,3.703 .478,1.194-1.673-.836-1.673-.836s-.119,3.105.478,4.181-1.911,1.792-.716,4.778 .955,3.464.955,3.464-1.671-1.315-1.671-2.509c-.478,2.27 1.314,5.852 2.149,6.807-1.313-.478-2.031-1.551-2.031-1.551s1.314,3.821 3.106,4.897c1.911.955-1.075,1.194-2.867-.597 .957,2.508 3.345,4.299 4.539,4.897 1.194.595-1.314.955-2.985-.599 .477,1.673 2.747,3.821 3.94,4.3 1.195.359-2.149.24-3.105-.716 1.195,1.912 3.226,2.865 4.301,3.703 1.075.716-1.912-.359-1.912-.359s3.225,2.271 1.313,2.031c-2.03-.357-3.343-1.553-3.343-1.553s3.941,5.973 6.449,7.645c4.181,2.749-1.194,7.884 3.345,13.376 5.972,9.675 7.405,11.348 9.196,23.89 .12.715.12,1.313.24,1.791h233.03c1.194-2.03 2.032-4.299 2.39-6.092 2.747-8.718-5.137-14.334 4.419-25.798 6.33-7.525 15.289-31.533 21.261-48.853h-99.494c-.357.239-.598.479-.957.716-2.866,2.39-35.951,7.525-45.027,5.496-8.96-1.912-3.226.715-7.048.238-3.703-.479-14.332-.717-18.155-1.913 1.434,1.313-4.419,2.032-10.391.12 2.389,2.032-.12,2.627-12.542-.595-12.302-3.346-16.721-3.106-18.632-2.747-2.03.237 5.136,1.671 2.03,1.909-2.985.36-9.436-4.896-21.141-.118-8.6,3.583-15.886,6.091-16.603,6.091-.955,0-5.852,2.628-6.568,3.584-.718.836-2.867,3.225-2.867,3.225-3.942,1.553-7.405,3.701-7.645-3.823-.357-7.525-.955-5.732-1.552-4.299-.239.836-1.672-2.627-2.627-7.884h-10.75c.478,1.911-.119,2.509-.119,2.509l-.717-2.516h-.358z" fill="#a96e42"/>
  <path d="m218.75,75.064c-11.35,5.732-16.724,1.552-22.218,3.821-5.614,2.27-9.555,1.553-12.423,3.941s-35.951,7.525-45.027,5.496c-8.96-1.912-3.226.715-7.048.238-3.703-.479-14.332-.717-18.155-1.913 1.434,1.313-4.419,2.032-10.391.12 2.389,2.032-.12,2.627-12.542-.595-12.302-3.346-16.721-3.106-18.632-2.747-2.03.237 5.136,1.671 2.03,1.909-2.985.36-9.436-4.896-21.141-.118-8.6,3.583-15.886,6.091-16.603,6.091-.955,0-5.852,2.628-6.568,3.584-.718.836-2.867,3.225-2.867,3.225-3.942,1.553-7.405,3.701-7.645-3.823-.357-7.525-.955-5.732-1.552-4.299-.597,1.552-5.853-14.692-2.27-26.517s-4.06,1.194-4.778,4.778c-.477,2.032-1.313-1.194-.716-2.985 .716-1.793-2.508,3.346-2.389,7.287-.836-2.032-.716-4.063-.716-4.063s-1.672,3.224-1.195,5.734c.359,2.388-.357,4.179-.357,4.179l-1.313-3.343s-.956,3.104.119,6.211c.835,2.388.12,3.344.12,3.344l-.956-3.344s-.239,3.344.239,4.538-1.673-.836-1.673-.836-.119,3.105.478,4.181-1.911,1.792-.716,4.778 .955,3.464.955,3.464-1.672-1.315-1.672-2.509c-.478,2.27 1.314,5.852 2.149,6.807-1.313-.478-2.031-1.551-2.031-1.551s1.314,3.821 3.106,4.897c1.911.955-1.075,1.194-2.867-.597 .957,2.508 3.345,4.299 4.539,4.897 1.194.595-1.314.955-2.985-.599 .477,1.673 2.747,3.821 3.94,4.3 1.195.359-2.149.24-3.105-.716 1.195,1.912 3.226,2.865 4.301,3.703 1.075.716-1.912-.359-1.912-.359s3.225,2.271 1.313,2.031c-2.03-.357-3.343-1.553-3.343-1.553s3.941,5.973 6.449,7.645c4.181,2.749-1.194,7.884 3.345,13.376 5.972,9.675 7.405,11.348 9.196,23.89s1.553,29.023.956,41.206c-.239,3.583-3.344,17.319-7.167,23.531-3.463,5.494-4.419,5.614-7.524,10.749-2.986,5.135-2.509,7.525-1.552,8.002 1.075.479.239,3.345-.121,3.823-.239.478-.357,1.193-1.075,8.6-.478,7.407-4.18,25.559-5.374,28.069-1.195,2.627-2.03,6.928-.12,6.928 2.509,0-.119,3.941 1.792,3.821 1.91-.238 3.224,3.583 1.91,5.255s1.672.599.598,3.227c-1.075,2.507-.119,3.464 2.03,2.747 2.031-.597 2.39,2.388 3.822,6.569 1.554,4.181.479,7.765 8.839,8.599 8.241.717 15.408.717 14.213-2.747 2.866.479 4.777-.238 3.344-2.508 4.299.716 11.228,1.551 10.153-1.314 2.149.357 4.3.836 2.866-2.389-1.314-3.104-4.897-9.913-9.555-12.541 .478-2.27-1.313-3.226-2.986-5.734-1.673-2.388-6.808-5.612-5.614-24.364 .956-18.873 10.153-30.458 12.302-32.608s7.287-7.763 7.287-7.763 2.627,2.028 5.375,3.582c6.928,4.181 13.258,2.747 13.258,3.105 1.195,12.064 6.33,21.619 9.436,23.291 2.03.119 4.3-4.299 4.659-8.719 1.91,4.658 4.776,7.047 7.046,7.047 1.433.478 1.792-6.331 2.03-13.019 .239-12.064-5.375-9.914.717-12.899 3.225-1.673 7.167-4.658 13.975-18.873 .836-1.551 6.21-1.434 11.704-2.029 8.124-.956 21.142-5.017 30.697-10.988 7.405-4.66 20.902-10.033 26.038-8.719 8.123-.239 11.586-2.988 9.675-1.076-1.791,1.91-3.701,5.972-3.701,5.972s2.149-1.194 2.866-1.194c.835,0-2.27,5.495-1.792,6.926 .359,1.555 3.344-3.104 2.389-.835s-1.075,5.137-1.075,5.137 2.986-5.137 2.15-1.553c-.717,3.582-.478,5.135-.478,5.135s1.91-4.42 1.791-2.389-1.791,4.898.239,5.613 .717,5.376 2.985,11.706 .956,12.779 1.792,18.633c.955,5.972.835,10.749 3.104,13.376 2.27,2.509 2.031,11.705 3.106,19.23 1.075,7.526 2.149,16.246 1.911,19.23-.358,2.987.835,2.987 2.508,2.987s5.257,4.538 4.659,9.554c-.599,4.897 1.672,2.749 2.865,1.912 1.194-.717 1.673.478 1.791,1.672s.839,8.718 4.301,10.393c3.464,1.671 13.378,3.223 19.11,2.148 3.347-.597 1.674-3.344 1.674-3.344 2.746.717 4.061.12 3.104-2.867 2.986.836 5.974.359 5.375-1.314 2.269-.597 3.463-1.076 2.029-4.061-1.313-3.106-5.972-10.39-11.586-11.945-.835-2.388-3.583-4.061-6.21-5.135-2.509-1.076-9.077-5.254-10.63-12.064-1.673-6.806 0-24.605 2.507-29.141 2.628-4.54 4.182-8.481 3.467-14.335-1.316-12.42 1.073-20.424 1.67-24.127 3.226-17.915 5.495-17.438 6.451-22.573 2.388-11.825 6.688-9.915 12.421-19.35 .479,1.074.597,2.867.597,2.867s8.958-13.376 10.631-20.424c2.747-8.718-5.137-14.334 4.419-25.798 9.675-11.466 25.441-61.033 27.233-67.007s11.107-3.584 18.99-2.987c2.27.12 7.525,0 10.511-1.671 1.791-.957 3.106,1.431 5.614,0 2.628-1.554 4.657-1.671 6.688-.478 1.912,1.194 12.063.357 13.258,1.314 1.672,1.433 8.002.595 8.72-3.346 .358-2.031-.597-4.18-.597-4.18s3.464,2.269 3.583-1.673c.358-4.181-1.913-5.973-1.913-5.973s1.673,1.435.718-2.627c-1.791-8.121-5.016-10.989-15.767-20.303-5.016-4.302-19.468-10.751-23.29-12.422-2.629-1.076-6.57-6.331-10.512-8.242-4.538-2.27-10.151-1.075-13.495.238-7.405,2.987-9.796-2.508-17.32.836-2.747,1.194-6.568,3.941-9.196,8.122-3.583,5.614-2.747,6.808-3.226,8.361-2.36,8.444-26.13,46.784-44.52,56.102z" fill="none" stroke="#000" stroke-linecap="round" stroke-linejoin="round" stroke-miterlimit="2.4142" stroke-width=".288"/>
  <path d="m237.62,301.28s2.985.359 6.568,4.3c3.584,3.821 8.002,10.152 4.42,10.989-2.747.595.121,1.314-2.747,1.791-2.627.479-4.419-.597-4.419-.597s-14.094-12.302-12.78-14.81 8.48-4.17 8.96-1.67z" fill="#a39a82"/>
  <path d="m235.71,188.17s-1.077,5.852-2.51,9.316c-1.552,3.464-2.388,6.69-3.462,11.466-1.076,4.778-4.301,17.08-3.346,26.993 .956,10.036-.357,10.871-.598,12.423-.597,3.462-2.865,5.135-4.061,10.272-1.194,5.135-2.984,21.618-.24,27.47 5.377,11.346 14.096,9.437 16.007,14.81-3.225-.955-3.704.239-2.269,1.433-2.389-.237-3.942-.595-2.987.719-1.313-.24-4.537-2.152-4.537-2.152s-12.543-1.671-14.813-20.542-.478-23.531 1.434-25.321c1.793-1.913 1.793-5.854 2.39-4.897s.597,2.15.597,2.15 1.194-3.344.717-5.135-.955-4.777 0-3.464c0-2.27-.717-4.3-1.313-5.733-.597-1.553 1.194-.597 1.194-.597s-.836-1.792-1.554-4.538c-.597-2.747.718-11.229 3.105-19.112 2.389-7.763 4.896-16.481 5.375-20.902 3.35-3.47 10.87-5.98 10.87-4.67z" fill="#d8d8cb"/>
  <path d="m258.88,134.9s-5.613,1.194-5.613-4.897c0-6.331.717-4.538-2.271-10.272-3.104-5.734-13.02-11.108-13.854-16.481-.956-5.496-3.702-10.631-5.494-10.989-4.181-.599-.358,8.24-6.569,6.329-6.329-1.671-11.824-.237-6.329,2.748 5.374,3.106 23.769,15.408 24.962,23.528 1.194,8.244 6.091,15.769 3.941,18.514-2.15,2.627-10.152-1.075-13.616-3.941-3.941-3.344-8.361,2.985-8.958,7.525-.718,4.54-16.125,27.352-22.933,26.636-7.048-.478-12.183-1.195-11.229-5.375 .956-4.181 4.181-8.601 4.181-12.183-2.747,2.627-10.509,12.183-9.316,14.93 1.195,2.628 2.628,3.344 2.868,5.255 .237,2.032-.6,5.973-1.673,7.407 1.673-1.313 3.345-1.313-.955,4.059 2.388-.357 2.985-.237 2.028,1.913-1.073,2.15-2.984,3.822-3.82,6.211 2.747-.836 6.569-3.346 7.287-6.81 .834-3.464 4.417-9.553 7.522-8.838 3.227.718 8.241,5.257 12.064,2.867 3.941-2.388 7.646-4.418 5.614-1.194-1.91,3.106-.597,10.511 1.672,13.139 3.463,4.06 4.18,7.643 4.18,7.643s.957-3.702 2.27-9.553c.358-1.436 8.241-10.87 11.228-12.901 5.86-3.94 22.11-31.29 22.82-45.27z" fill="#985632" stroke="#a16341" stroke-linecap="round" stroke-linejoin="round" stroke-miterlimit="2.4142" stroke-width=".36"/>
  <path d="m258.17,156.4c1.554-6.57-1.313-11.229-.479-14.453-.954,4.06-6.092,8.479-7.643,12.66-1.435,4.18-1.194,6.331-1.194,6.331l-1.434-4.538s-1.912,4.538-1.554,7.763c.238,3.344-1.91-1.553-1.91-1.553s-2.39,6.688-2.03,8.839c.357,2.032-1.315.239-1.193-4.42-.6,2.988-1.913,9.317-3.347,10.751 .239-2.867-.717-5.375-.717-5.375s.119,1.911-1.432,2.628c-1.436.718.478,2.747-2.27,4.061-2.628,1.313-3.106,4.42-3.106,4.42s-.357-3.941-1.194-1.673c-.954,2.268-.836,6.451-.836,6.451s-2.389-1.673-2.389,2.389c0,1.552-.598,2.029-.598,2.029s6.809-4.181 5.136-1.553c4.897-2.388 5.734-2.985 7.405-5.731s7.765-7.645 10.272-12.78c.597,1.194.955,2.746.955,2.746s7.76-11.35 9.55-19z" fill="#d8d8cb"/>
  <path d="m184.23,180.65s1.313-4.538-1.791-7.525c-2.987-3.105 5.135-6.331 3.941-12.662-1.195-6.33-1.554-9.314 3.343-16.602 4.778-7.167-2.746-2.627-5.493,1.911-2.628,4.538-6.451,10.512-8.839,11.468-2.508.835 3.464,7.046-1.554,12.54-5.135,5.375-.954,9.676-6.926,12.9-6.092,3.344-22.934,7.884-30.816,7.048-7.765-.957-16.005-9.078-22.694-10.272-6.57-1.194-15.885.239-21.977-3.344-5.972-3.704-1.195,4.777 2.986,7.285 4.299,2.39-5.375,4.778-10.87-.716-5.374-5.375-6.569-7.765-4.777-13.259 1.792-5.375-2.986-13.736-6.688-17.915-3.583-4.3 3.703,9.555 3.105,15.525-.598,6.093-.598,11.707 0,13.618 .597,1.791.597,16.244 9.077,17.439 8.36,1.194 45.864,9.675 84.206-7.766 3.23-1.54 11.95-.58 15.77-9.66z" fill="#985632" stroke="#a16343" stroke-linecap="round" stroke-linejoin="round" stroke-miterlimit="2.4142" stroke-width=".36"/>
  <path d="m187.94,189.73s-8.24,2.507-11.944,1.791c-1.672-.359-6.568.717-13.376,3.225-9.317,3.346-16.843,9.795-28.428,13.498-16.841,5.493-24.127,2.508-25.918,5.972-.24.478-13.377,2.747-13.975,2.508-5.494-2.747-24.247-.238-30.099-7.643 1.433-2.988 2.389-4.42 2.508-7.524 .717,1.433.597,2.865.597,2.865s2.27-2.507 2.39-5.733c.119-3.105-.478-4.18-.478-4.18s2.03,2.271 2.15,3.822c.596-3.106 1.195-4.897.716-7.405-.359-2.627.479-6.092.479-6.092s2.149,1.075 2.388,2.271c.478-2.989-.716-7.405-.716-7.405s1.194-2.51.597-5.376c1.911,4.897 1.195,9.555 3.105,11.226 3.823,3.704 1.435,5.497 1.435,5.497s2.627-2.27 4.418-3.346c1.673-1.074 2.03.599.836,2.033 3.344,0 5.732-1.434 5.135-.358-.596,1.073-2.508,1.789-2.508,1.789s.836,1.076 3.942.957c2.508-.118 3.105-1.432 4.778-.479 1.671.836 2.866-.118 2.866-.118s2.867,3.943 3.942,2.986c1.074-.836 2.747,1.075 3.822,1.314 4.18.957 7.884-3.464 14.929-3.703 5.854-.238 12.423,5.255 17.56,2.389-1.195,1.792-2.151,2.271-2.151,2.271s3.344.477 6.092-2.271 5.613-3.226 5.613-3.226-.239,2.39-1.075,3.106c1.791-1.074 5.614-1.434 7.286-3.227s4.896-3.344 4.657-2.268c-.358,1.074-1.553,2.627-1.553,2.627s4.66-.954 5.854-2.987c1.313-1.911 3.823-1.194 2.508.24 2.986-.956 7.287.12 8.48-2.15 .957-2.268 12.9-5.137 13.378-11.466 1.075,2.03.358,6.091-1.194,8.599 1.553-1.194 2.388-2.031 1.553.478-.956,2.628-2.508,3.463-2.508,3.463s4.18-1.67 1.91,2.04z" fill="#d8d8cb"/>
  <path d="m75.183,175.99s-.359,4.179.238,5.254c.598,1.077 1.553,6.928.956,8.839-.836-1.314-2.031-1.314-2.031-1.314s1.912,3.226 3.583,4.061c1.314.717.837,2.389 4.419,3.344 2.509.599 13.736,2.39 16.364,1.673 2.508-.716-4.419,2.627-10.87,1.791-5.374-.716-9.435,1.314-13.257,1.671-3.464.361-6.808,2.509-6.808,2.509s3.105-3.703 1.434-9.196c1.194.836 2.15,3.344 2.15,3.344s1.195-4.658.835-6.451-.119-4.658.36-6.688c1.313.238 2.388,2.15 2.388,2.15s.597-2.869-.836-7.405c.716-.82 1.075-3.57 1.075-3.57z" fill="#afab9f"/>
  <path d="m240.13,182.32c-2.985,2.388-3.224,6.209-10.152,8.836 0,0 1.792-2.627-5.136,1.553 .955-2.39.358-5.375 2.986-4.538 0-6.69 1.553-9.436 2.149-4.778 1.314-.359 3.942-.237 4.541-.956-1.554,1.671-3.227,2.509-3.227,2.509s4.3-.24 5.614-1.434c1.44-1.19 3.23-1.19 3.23-1.19z" fill="#afab9f"/>
  <path d="m3.638,86.648s-.597-.238-1.075-.715c-.119,2.268 1.552,3.462-.119,5.374-1.314,1.314.835,5.135 1.194,6.809-1.553-.359-2.031-.955-2.031-.955s1.075,3.343 2.628,5.135c-.956,0-1.673-.479-1.673-.479s1.075,2.749 3.344,4.063c-1.432.478-3.224,0-3.224,0s2.867,3.344 4.538,3.941c-.955.716-2.508.237-2.985.118 1.075,1.554 3.703,3.466 3.703,3.466s-1.673.357-2.389.118c1.194,1.434 3.225,1.913 3.464,2.747 .358.957-.717.479-.717.479s1.792,2.628-2.03,1.075c1.434,3.941 7.047,5.852 6.689,9.198-.598,5.732-.837,6.687 3.344,13.02 3.703,5.493 7.405,11.108 8.242,29.739 .358-7.764 3.225-25.918.477-30.338-2.627-4.538-3.822-6.091-.835-10.271 2.986-4.302 3.821-9.079 1.433-8.481s-4.419,2.389-4.419,2.389 2.031-3.345-.716-3.941-3.941,1.553-4.181-1.194-2.389-5.734-3.941-5.734c-1.434,0-4.658-5.494-5.255-9.317-.6-3.85-2.271-13.525-3.466-16.272z" fill="#fff"/>
  <path d="m27.765,241.32s4.18-8.003 7.405-10.272c3.105-2.268 5.494-4.3 6.33-6.091 1.911-4.062 1.194.836 1.194.836s1.672-2.987 2.748-2.27c1.074.479 4.061,4.3 4.061,4.3l-17.796,21.379-3.942-7.89z" fill="#7d4729"/>
  <path d="m40.545,300.81s2.627.836 5.016,4.181c2.269,3.224 5.972,8.838 5.375,10.152-.477,1.076-2.388.12-3.224.357 .239.719.716,1.671-1.792,1.913s-7.405-.599-8.242-.717c-2.986-3.346-4.418-7.287-7.764-9.196-3.463-2.032-2.866-3.226-2.866-3.226s7.763-4.77 13.497-3.45z" fill="#a39a82"/>
  <path d="m26.571,305.46s-12.184-8.719-10.392-28.546c1.792-19.947 12.063-37.145 12.302-36.073 1.434,5.974.836,7.526 7.287-.715 7.644-10.152 9.078-4.778 10.749-11.108 .717-2.627 2.867-2.508 2.867-2.508l3.105,3.105s-8.48,8.241-10.75,11.945c-2.15,3.583-9.197,12.42-9.675,33.084-.358,20.185 9.793,21.498 8.838,25.681-.358,1.434-.12,2.747-.12,2.747s-1.792-1.434-3.702-1.196c-1.792.358-3.225.24-3.225.24s1.194,1.91 2.627,2.388c-2.867-.237-5.255-1.432-6.569-1.432-1.434.238-1.195,1.911-1.195,1.911s-2.029-1.05-2.147.5z" fill="#d8d8cb"/>
  <path d="m29.556,241.44s-2.389,4.777-4.181,8.719-3.224,4.658-3.224,7.645c0,2.746-2.629,4.658-2.629,4.658s2.51-12.78 8.601-21.738c.597.37 1.433.72 1.433.72z" fill="#d8d8cb"/>
  <path d="m26.092,303.79s5.375,1.791 7.287,4.776c1.91,2.749 3.703,7.047 4.419,8.361 .478,1.194.835,2.867-3.703,2.39 .239.836 1.075,2.507-4.181,2.986-4.18.357-12.78-.359-14.452-1.435-1.433-.835-2.389-1.911-3.105-4.539-.598-2.627-2.15-7.405-2.508-8.002 1.074-1.314.716-5.614 5.733-5.495 5.016.24 10.51.95 10.51.95z" fill="#c5bb9d"/>
  <path d="m23.823,322.31s-5.971-.121-8.479-1.555c-2.508-1.313-2.748-3.584-3.105-4.778-.24-1.072-1.554-5.97-2.389-7.524-.24-.596.716-4.059 3.344-4.059 2.628.118 4.419,1.551 4.419,1.551s-2.866.957-3.344,1.673c-.358.717-.358,2.269.597,2.985 1.075.598 1.553,1.195.717,1.553-.957.359-1.195,2.27.119,2.987 1.314.834.598,2.867 3.226,3.704 2.626.96 2.148,2.63 4.895,3.47z" fill="#a39a82"/>
  <path d="m24.778,305.82c-3.583-2.15-8.718-2.388-5.732,0-3.345.359-6.45-.835-6.45-.835s.359,2.269-2.627,3.582c-.478-.955.836-3.941-1.194-3.462s-2.031.357-1.792-.359c.239-.597 1.075-2.39.12-2.867-1.314-.597-1.195,0-.836-2.388 .358-1.196-.119-4.299-1.433-4.54-1.195-.12-1.195-.238-1.195-.955 0-.836.477-2.15-1.433-2.629s-1.434-2.865.836-10.987 4.419-22.934 4.538-27.949c.12-4.898 1.195-3.226 1.314-6.571 1.792.717 2.27,5.972 2.27,5.972s1.433-1.313.478-4.656c-.957-3.346 4.777-9.555 6.45-12.183 1.672-2.749 2.747-2.389 1.075,2.388-1.673,4.658 1.194,9.915 2.508,10.51 1.434.598 2.031,1.553-.835,9.437-2.867,7.763-3.345,20.185-3.345,24.843s1.792,6.449 1.792,6.449-1.552-1.671-1.313-.118c.12,1.551 3.583,3.584 5.136,4.658 1.434,1.076-.478,2.032 2.508,4.778 3.105,2.509 3.464,7.167 3.464,7.167s-3.583-2.031-4.3-1.314c-.72.61-.004,2.04-.004,2.04z" fill="#fff"/>
  <path d="m230.93,303.79c.237.835 1.912,2.388 3.701,3.462 1.794,1.076 5.614,4.54 6.691,8.718 .954,3.584 2.508,6.333-2.51,5.017-.119.597 1.791,2.987-2.031,3.464-3.939.359-10.271.479-17.199-1.792-4.538-1.551-5.016-8.361-5.374-11.466-.24-2.987 1.433-8.481 5.494-8.599 3.95-.23 10.4-1.78 11.23,1.2z" fill="#c5bb9d"/>
  <path d="m225.2,323.98s-5.852-.599-7.405-2.15-3.225-3.821-3.703-11.228c.479-1.194 2.51-4.778 4.42-3.702 2.03.956-1.554-.717-1.554,1.912-.119,4.06 1.911,2.388 1.435,3.223-.358.836-1.194,2.032.359,2.389 1.79.238 3.224,2.27 3.224,2.865 0,.718-2.509.957 0,1.673 2.5.73.71,3.59 3.22,5.03z" fill="#a39a82"/>
  <path d="m226.04,299.49s-4.062-3.941-6.808-7.765c-2.628-3.941-5.376-10.749-4.659-18.631 .837-7.764.837-12.183.597-13.259-.119-1.076.598-2.39 2.031-4.777 1.313-2.39 1.791-9.198 2.388-7.405s1.554,1.434.597-1.553c-.953-2.986-1.074-8.002-1.193-10.988-.237-2.987-1.433-8.6 1.076-17.558 2.388-8.84 4.061-20.902 4.061-20.902s-3.346,12.66-5.733,20.902c-2.628,8.958-2.748,16.244-.478,19.708-1.554-.477-1.554-.12-.717,2.268 .954,2.39.836,4.063.836,4.063s-.955-1.076-.478,1.433c.478,2.627 1.195,2.27-.239,7.166-.836-2.986-.836-2.388-1.075-1.433-.357.836-.598,2.747-2.15,4.419-1.552,1.792-4.539,29.263 2.747,38.459 4.04,5.15 9.18,5.86 9.18,5.86z" fill="#99998f"/>
  <path d="m228.31,305.46s.954-3.584 2.148-2.388c1.195,1.194.716-1.313-3.342-3.704s-8.961-6.568-10.512-9.317c-3.227-5.375-3.943-18.152-2.867-22.812s-.119-10.272-.119-10.272 1.313,1.074 1.792.597c.357-.478-.24-2.748 0-3.941 .357-2.27-1.554-3.941-3.823-5.135s-8.242-4.42-9.675-10.392c-1.313-5.973-3.225-5.734-3.941.357-.597,5.972-3.106,7.526-3.106,7.526s.956,9.077 2.151,10.391c1.314,1.433 2.029,3.344 2.388,7.047 .24,3.821 1.792,18.631 2.39,21.977 1.792,10.39-.718,13.257 2.389,13.018 2.15-.12 4.538,3.463 5.137,5.613 1.194,4.419-1.553,9.316 3.104,5.853 .597-.478 1.672.241 2.031,1.435 2.866-.718.956-2.749 1.91-3.821 1.195-1.076 2.868-.479 2.868-.479s-.718-3.104 1.67-1.791c2.51,1.432 1.554-1.313 3.704-.24 2.02,1.05 2.98-.74 3.7.45z" fill="#fff"/>
  <path d="m57.027,145.42c8.481,4.896 12.063,18.036 11.467,25.799-.597,7.883-8.48,24.248-10.272,13.377-1.792-10.988-7.167-16.96-13.855-24.723-6.569-7.767 2.747-5.137 5.972-1.793 6.688,6.57-1.194-10.272-10.152-22.335 1.792-3.6 10.152,7.26 16.84,9.66z" fill="#985632" stroke="#a16341" stroke-linecap="round" stroke-linejoin="round" stroke-miterlimit="2.4142" stroke-width=".36"/>
  <path d="m61.805,138.25c-9.913-4.897-12.66-12.183-20.424-16.96-3.465-2.15 7.167-2.986 8.36-7.882 1.314-4.779 4.896-18.633 6.092-13.855 1.194,4.897 1.792,13.855 1.194,18.751-.597,4.77 10.75,22.69 4.778,19.94z" fill="#985632" stroke="#a16341" stroke-linecap="round" stroke-linejoin="round" stroke-miterlimit="2.4142" stroke-width=".36"/>
  <path d="m29.317 205.61s-5.494 19.349-9.673 23.052c-4.3 3.582-7.884 10.272-7.287 12.063s4.181-2.51 8.48-7.882c4.18-5.37 8.48-18.15 8.48-27.23z" fill="#985632" stroke="#a16341" stroke-linecap="round" stroke-linejoin="round" stroke-miterlimit="2.4142" stroke-width=".36"/>
  <path d="m24.42,99.669s-4.062,1.909-4.777-1.792c-.717-3.704-1.076-7.883-1.076-7.883s-.597,2.27-1.672-.239c-1.075-2.627-4.06-12.183-2.509-21.978-1.791,3.465-3.343,12.185-2.507,15.407 .956,3.464.358,3.106-.479.837-.717-2.269-.835-3.464-.835-3.464s-.12,6.929 1.552,9.437c1.672,2.627-.955,1.911.12,3.702 1.074,1.791-2.031,2.867 1.313,5.254s1.074,2.27-.119,1.675c-1.194-.599-1.194,1.313 1.553,2.267 2.627.838 2.269,3.106 1.911,4.182s1.195.957 2.031-1.434c.718-2.39 4.18-5.38 5.494-5.971z" fill="#985632" stroke="#a16341" stroke-linecap="round" stroke-linejoin="round" stroke-miterlimit="2.4142" stroke-width=".36"/>
  <path d="m236.55,122.12c2.149-9.557 14.811,22.814 3.582,18.154-5.852-2.388-11.823-8.719-14.213-6.928s-8.959,17.798-13.855,21.141c-9.675,6.571-11.466,4.778-8.479-8.48 2.984-13.257-.599-19.945-2.986-12.66s-3.583,15.169-7.285,16.363c-3.585,1.194 3.702-13.377 2.986-17.558-.598-4.18-16.843,5.376-19.112,12.66-2.389,7.285-5.375,21.381-9.077,22.215-7.884,1.793-2.986,10.274-10.869,12.065s-14.451,1.792-7.884-2.985c6.688-4.898 5.495-8.481 11.468-10.871 6.092-2.388 7.285-18.631 1.314-15.527 4.179-6.091 10.271-19.349 18.511-21.738 8.481-2.508 16.365-7.286 16.843-13.976 .717-6.569-2.629-15.884 4.658-12.302 7.167,3.583 14.69,10.511 15.886,7.526 1.195-2.987 9.676,1.194 13.975,6.569 .96,1.33 4.07,8.73 4.55,6.34z" fill="#b27446" stroke="#ad714c" stroke-linecap="round" stroke-linejoin="round" stroke-miterlimit="2.4142" stroke-width=".36"/>
  <path d="m102.3,166.44c-2.27-5.614-7.882-19.827-16.244-23.411-8.479-3.583-11.466-15.766-13.974-27.232-2.389-11.347-5.972-24.008-9.556-25.918-3.703-1.793-2.508,3.104.478,7.286 3.106,4.18 6.091,19.347 5.495,25.918-.597,6.688-2.389,2.389-4.181-5.375-1.792-7.882-6.091-5.495-4.299,1.792s8.48,17.558 6.688,20.544c-1.792,2.984-10.272-3.704-14.213-6.928-3.941-3.346-14.453-12.184-12.064-14.215 2.389-2.148 5.495-3.703 5.136-5.492-.238-1.792-5.136,0-8.479-2.987-3.225-2.987-7.525,10.869-4.181,14.451 3.345,3.584 26.516,20.306 29.861,24.487 3.344,4.181 6.689,10.869 7.285,14.69 .597,3.941 3.225,0 1.553-7.166-1.911-7.167-2.509-9.675.478-7.167 3.105,2.388 10.033,8.361 9.674,12.542-.239,4.181-1.434,10.869 1.791,8.36 3.345-2.388 8.481-4.778 13.617-2.148 5.135,2.75 7.515,3.95 5.135-2.02z" fill="#b27446" stroke="#ad714c" stroke-linecap="round" stroke-linejoin="round" stroke-miterlimit="2.4142" stroke-width=".36"/>
  <path d="m193.31,81.99c-6.092.957-13.497,5.496-21.618,6.333-6.571.835-29.862,2.508-34.64,1.552-4.897-.837.836,2.389-6.092.956-6.927-1.555-14.452-2.15-14.452-2.15s3.94,2.15-5.733,1.552 7.286,5.137 13.258,4.777c6.09-.238 18.393.597 16.244,3.583-2.031,3.105-1.433,8.838 4.538,3.703 6.093-5.135 10.87-2.149 10.274.957-.599,2.985 6.328.835 9.675-3.106 3.343-3.941 6.33-1.554 6.33.597s5.732,1.195 8.002-3.822c2.508-5.137 6.928-7.047 10.271-8.241 3.35-1.201 8.13-7.174 3.95-6.697z" fill="#b27446" stroke="#ad714c" stroke-linecap="round" stroke-linejoin="round" stroke-miterlimit="2.4142" stroke-width=".36"/>
  <path d="m228.31,115.56c6.328,6.21 5.972,9.077 7.882,11.227 3.941,4.418.24-6.69 2.388-4.301s5.377,15.409 4.182,15.767c-1.194.237-5.136-1.194-7.523-7.048-2.389-5.732-5.974-12.303-9.557-14.451-3.702-2.149-4.299,3.584-10.63-.956-5.256-3.702-10.869-8.719-14.452-11.108s-3.105-2.746 1.791-.597 15.17,11.106 17.796,10.869c2.749-.357.359-3.344.359-3.344s5.37,1.55 7.76,3.94z" fill="#be8051"/>
  <path d="m56.192,137.89c4.538,2.27 11.107,8.719 12.661,13.017 1.434,4.183-2.389,1.436-5.136-2.747-2.747-4.299-10.869-6.926-14.213-11.824-3.344-4.778-15.408-9.914-15.408-14.453s2.15-4.897 3.941-5.376c1.792-.715 5.733-.715 2.389,1.436s-3.344,3.344 0,5.374c3.344,2.15 12.063,12.78 15.766,14.57z" fill="#be8051" stroke="#b77a4a" stroke-linecap="round" stroke-linejoin="round" stroke-miterlimit="2.4142" stroke-width=".36"/>
  <path d="m92.263,233.8s-.718.597-.478,1.076c1.91,3.702 2.627,8.24 1.91,15.288-.716,8.719-.358,9.794-5.017,6.569-2.388-1.552-3.942-6.688-3.942-6.688 .24-1.194 1.195-5.373 1.075-8.002-.119-2.509-.716-6.331-.239-6.568 .478-.12 3.464-1.195 5.733-2.39 2.509-1.076 8.122-3.463 12.422-10.63-4.301,8.83-10.153,10.27-11.467,11.34z" fill="#99998f"/>
  <path d="m83.902,235.83s1.075-.357 2.149-.357c.479,0 2.867-.12.479.955-.717.359-.479,3.224-.597,6.568-.12,5.376 2.269,11.229 3.225,12.901 .835,1.551 2.628,2.029 3.583,1.791-.598,1.434-3.226.478-5.136-2.03-1.911-2.39-2.627-4.897-2.627-4.897 .478-3.225.835-6.331.716-9.556-.12-3.104-.716-4.061-.957-4.418-.238-.34-.835-.94-.835-.94z" fill="#818179"/>
  <path d="m108.51,213.97c-2.987,6.093-5.256,10.511-8.481,13.855-2.866,2.865-8.599,5.254-12.063,6.807-2.269.956-3.703,1.195-3.105,2.27 1.672,3.583.598,12.064-.12,15.886-.835,4.061-2.865,7.524-4.299,7.167-3.344-.956-8.719-13.378-9.317-23.291-3.822.12-10.152.478-18.871-6.688-3.942-3.344-7.405-6.211-7.405-6.211s1.911-.121 3.225-1.911c1.433-1.791 4.658-6.331 3.822-3.346-.717,2.987-1.673,3.821-1.673,3.821s3.226-1.552 4.419-5.612c1.195-4.181 2.389-3.702 2.748-2.747 .239.954 2.269-1.075 2.508-2.867 .359-1.791 3.464,0 5.256-4.179 2.509,1.909 2.031.476 6.091-1.913s13.377-2.627 13.855-1.313 .716,3.463 4.062,1.074c3.344-2.388 4.06-3.582 5.733-3.464s2.269,1.675 1.194,2.627c-1.075,1.076-1.911,1.675-.597,3.464 2.981,3.59 14.927,2.75 13.017,6.57z" fill="#f0ede2"/>
  <path d="m24.42,263.66c-.358,2.39-1.792,5.854-.836,10.51 .836,4.66 4.061,15.648 1.791,16.365-2.269.597-3.224-3.583-2.747-4.778s1.792,1.911 1.553-.836c-.359-2.747-2.03-6.091-1.792-11.823 .119-5.734 1.313-10.154 1.433-12.303 .121-2.28 1.315-1.32.598,2.86z" fill="#bcbcb1"/>
  <path d="m2.563,281.7s-.597,7.166.479,8.359c1.074,1.196 2.508-.478 2.389,1.314s-.597,2.629-.597,2.629 2.149-.479 2.269,1.791-.12,4.54.597,4.897c.716.477 1.792-2.508 2.27-.597 .478,2.03 2.867,4.897 1.911,6.568-.597,1.195-2.03,1.911-2.03,1.911s-.598-2.148-2.271-1.671-2.985.119-2.03-2.27c.836-2.15-.119-2.271-.478-2.508-.478-.357-.597-.357.239-1.434 .955-1.314 0-4.897-2.031-5.017-1.433-.118-.835-.357-.835-2.03 0-.835.119-1.671-.957-1.671-1.194,0-1.433-1.313-1.075-3.464 .358-2.39 1.433-3.35 2.15-6.81z" fill="#ebebdd"/>
  <path d="m247.3,317.29s-1.195-3.821-2.866-6.09-4.897-5.733-4.419-5.971c.596-.12 2.865,2.508 3.345,3.462 .478,1.074 3.343,5.495 3.94,6.451 .598.955 1.313,1.434 1.791,1.194-.84.72-1.91.12-1.79.96z" fill="#625c4e"/>
  <path d="m238.82,320.99s-1.313-5.136-2.867-7.524c-1.431-2.269-6.209-4.299-5.852-5.613 .239-1.195 4.537,2.389 5.494,3.702 1.074,1.671 3.941,9.795 5.494,9.675-.47.11-1.55-.01-2.26-.25z" fill="#625c4e"/>
  <path d="m201.07,280.26s2.15,7.405 2.749,10.272 .716,4.778 1.671,4.538 2.51.122 2.985,2.031c.359,2.032.479,3.583 1.553,4.66 1.076.954 1.195,4.179 1.794,5.254 .596,1.194 1.791,2.15 2.507,2.388 .717.357.954,0 1.313-1.313 .359-1.194 1.313-1.671 2.748-1.194-1.672.119-2.508.598-2.269,2.15 .237,1.671-.957,2.15-2.032,2.27-.477-1.435-1.075-1.792-2.268-.956-1.554,1.076-2.391,1.552-2.271-.599 0-2.148.239-4.179-.597-5.97-.717-1.913-2.39-5.137-4.657-5.019-2.271,0-2.03-1.314-2.03-2.148 0-.837.239-5.135-.6-10.512-.7-4.65-.59-5.85-.59-5.85z" fill="#ebebdd"/>
  <path d="m47.711,315.5c-.478-1.074-2.03-4.897-4.061-7.643-2.032-2.627-2.867-3.226-2.27-3.583s1.552.357 2.389,2.15c.716,1.791 3.583,6.568 4.181,7.645 .716,1.314 2.627,1.432 2.627,1.432-.715.35-2.388-.13-2.866-.01z" fill="#625c4e"/>
  <path d="m34.095,319.32s-2.27-7.047-4.658-9.078c-2.389-1.911-4.062-2.746-2.748-2.987 1.195-.238 3.464,2.507 4.778,4.419 1.194,2.031 3.821,7.645 5.733,7.406-.597.36-1.552.36-3.105.24z" fill="#625c4e"/>
  <path d="m187.94,189.84s-8.48,2.27-11.346,1.673c-3.106-.477-9.437,1.554-15.29,3.821-7.763,2.987-18.273,10.631-29.861,13.738s-17.198,2.746-18.512,2.985c-1.552.357 2.389-1.671-1.075-1.912-3.583-.358-5.614-.715-5.972-1.194-.359-.357 6.688.599 12.9-.835s26.873-6.568 36.787-12.302c5.376-3.226 16.364-6.927 21.501-7.047 5.016-.24 11.346-9.076 11.346-9.076s-.359,2.865-1.313,3.941c.954-.599 2.03-1.434 1.554.238-.6,1.554-2.51,3.821-2.51,3.821s2.867-.954 2.39.599c-.26,1.08-.61,1.55-.61,1.55z" fill="#afab9f"/>
  <path d="m56.909,233.08s4.896,4.062 14.212,3.584c.359,5.972 1.672,9.196 3.823,15.409 1.314,3.94 4.539,7.284 4.778,7.405 .836.477 1.075.715 2.15-.241-.717-.118-1.314-.715-2.508-1.909-.956-1.314-3.823-7.047-5.018-13.258-1.075-5.494-.716-9.077-2.269-9.437-1.313-.35-9.077,2.27-15.168-1.55z" fill="#d8d8cb"/>
  <path d="m227.71,82.707c-8.48-3.941-16.843-3.345-12.065-5.493 4.897-2.15 7.765-3.823 14.811-10.274 5.733-5.255 20.187-21.259 32.13-44.67-.237,3.703-1.91,17.557-.118,21.499s1.791,15.529-.359,11.706c-4.777-8.479-9.076,2.747-13.02,12.064-3.821,9.316-12.899,13.974-11.108,20.783 1.793,7.046-.597,8.599-2.745,2.508-2.02-6.091-4.17-6.69-7.51-8.123z" fill="#b27446" stroke="#ad714c" stroke-linecap="round" stroke-linejoin="round" stroke-miterlimit="2.4142" stroke-width=".36"/>
  <path d="m353.72,36.364c.716,1.194 2.149,5.017 2.388,7.524 0,1.436-.597.836-.836.717-.358-.238-5.733-2.508-5.733-4.299 0-1.673 1.194-3.226 2.388-3.226 1.07.001 1.79-.357 1.79-.716z" fill="#4b3928" stroke="#76523a" stroke-linecap="round" stroke-linejoin="round" stroke-miterlimit="2.4142" stroke-width=".36"/>
  <path d="m353.72,36.364c-1.435-2.748-2.628-4.299-8.959-10.033-6.688-6.091-4.181-.716-2.987,1.434 1.314,2.03 0,3.821-2.149,3.344-2.03-.715-7.285,1.912-3.821,4.42 3.464,2.627 7.285,2.029 6.808,3.941-.356,1.074-5.731.477-7.167,3.941-.954,2.27 2.27,1.913 5.137,3.106 2.866.955 6.091,1.909 8.48,3.223 2.389,1.434 3.822,1.674 3.822-.715-.359-5.734 1.193-4.301 1.91-4.42 1.196-.12-5.972-3.344-5.852-5.734 .36-6.211 5.62-.714 4.78-2.507z" fill="#e5d3b2"/>
  <path d="m355.03,44.01s-3.584-5.376-4.777-4.54c-1.195.956-1.554,1.911.356,2.747 1.8.837 3.59,2.987 4.42,1.793z" fill="#1a120b" stroke="#3f3020" stroke-linecap="round" stroke-linejoin="round" stroke-miterlimit="2.4142" stroke-width=".36"/>
  <path d="m351.21,51.653c-1.551-.957-6.688-3.702-10.033-3.941-3.224-.359-5.733-2.749-6.329-1.194-.597,1.433.596,1.433 3.583,1.671 3.104.357 8.24,2.15 10.63,3.941 2.389,1.913 4.659,1.314 4.659,1.314l-.358-.956c-1.19-.716-1.31-.358-2.15-.835z" fill="#24140c" stroke="#67402a" stroke-linecap="round" stroke-linejoin="round" stroke-miterlimit="2.4142" stroke-width=".36"/>
  <path d="m310.12,14.508s-.478-.957-1.913-1.793c-1.551-.836-3.701-.597-5.613.238-1.792.836-2.866.718-3.343.718-.597-.12 1.073,3.344 5.374,4.06 2.388.359 3.941-.238 4.298-.478 1.31-.597 2.63-1.313 1.19-2.745z" fill="#4b2c1b"/>
  <path d="m308.33,22.033c-4.896.595-6.928-1.196-9.075-2.749s-2.987-.357-.957,1.793c2.15,2.15 5.495,4.538 8.241,4.538s-3.104,2.389-6.33.359c-3.345-2.15-10.032-4.54-10.272-7.884-.356-3.344 1.435-6.928 1.195-9.315-.358-2.39 5.256,0 6.927,3.583 1.673,3.464 4.301,5.255 8.242,5.493 5.256.359 5.374-1.791 4.659-2.865-.479-.836-.836-2.27-2.63-3.106-1.791-.954 2.51-1.791 3.944,3.225 .597,2.032 2.028,3.823 2.028,5.137 0,1.194-1.194-2.15-2.389-2.15s-1.434.836.36,3.943c1.79,2.985 6.329,5.732 8.718,5.971 2.388.357 3.941,4.299 5.136,5.732 1.193,1.551 3.344,4.181.597,2.747-2.747-1.553-5.135-7.286-7.285-7.525-2.03-.357-8.122-4.897-9.315-7.524-1.21-2.749-1.81.597-1.81.597z" fill="#8f502f" stroke="#9d603f" stroke-linecap="round" stroke-linejoin="round" stroke-miterlimit="2.4142" stroke-width=".36"/>
  <path d="m340.34,31.109c-.597-.597-.955-1.313-1.194-2.15-.716-2.148-1.91-5.135-3.94-6.926-2.15-1.792-3.345-2.749-1.194-2.151 2.028.597 5.612,4.779 6.926,7.286 .359.717.718,1.314 1.316,2.15 .1.715-.5,2.029-1.93,1.791z" fill="#985632"/>
  <path d="m336.4,36.007c-2.031-.358-3.941-.478-3.344.716 .956,1.911 4.538,2.508 6.568,2.747 1.195.12 2.031,0 2.867-.239 .239-.717-.718-1.314-2.509-1.673-1.92-.477-3.11-1.314-3.59-1.551z" fill="#985632"/>
  <path d="m342.49,39.231c.955-.118 1.91-.118 2.627.239 1.553.956-2.745-2.39-2.388-4.183s3.584-.357 4.538,1.196c.956,1.434 1.913.12.599-1.196-2.152-2.028-4.181-4.179-5.494-5.97-.119,1.076-.956,2.029-2.151,1.791 .716.957 1.552,1.671 1.552,1.671s-1.193,1.913-.597,3.464c1.196,1.196-.239.479-2.03.239-.597-.119-1.791-.239-2.747-.477 .956.597 2.031,1.194 3.345,1.433 1.2.24 3.11.838 2.75,1.793z" fill="#c3b397"/>
  <path d="m302.6,44.01c-7.524-8.243-12.661-13.857-12.063-10.871 .597,3.105 3.582,7.883 3.582,7.883s-6.568-1.791-9.075-5.493c-2.391-3.584-10.872-7.168-7.168,0 3.583,7.285 7.168,15.407 1.791,25.679-.835,1.554-14.094-19.11-13.856-5.017 .24,9.915 9.796,20.782 9.318,22.337-3.701,10.748-7.165,24.483-12.303,32.249-5.852,8.36-3.941,24.723-3.941,24.723 2.389-4.538 8.72-10.272 14.453-25.679s12.659-33.683 16.363-45.747c1.91-6.448 10.272-4.419 15.407-3.94 5.971.595 11.107.595 13.258-.719 4.539-2.508 3.702,1.792 8.6-1.194 5.017-1.909 3.344,1.076 11.825,1.076 6.092,0 6.569.477 7.525.956 1.313.715 5.852.476 7.405-2.389 1.433-2.867-1.076-2.39-1.076-2.39s-2.984.359-5.973-2.388c-3.104-2.747-7.524-1.791-10.631-2.985-2.984-1.195-2.984-2.389-3.224-3.583-.358-1.314-1.911-.359-3.702-1.314-1.793-.836-5.734-4.182-5.137-2.987 .599,1.194 2.747,4.778 4.18,5.495 1.554.477-1.433.477-3.224-.717-1.791-1.195-6.688,0-7.524-1.791-.955-1.792-4.538-.836-5.734-2.39-1.194-1.433-6.449-2.507-6.809,3.225-.11,1.195-1.42-1.075-2.26-2.028z" fill="#864b2c" stroke="#985d3d" stroke-linecap="round" stroke-linejoin="round" stroke-miterlimit="2.4142" stroke-width=".36"/>
  <path d="m307.97,11.878c-1.554-.597-3.704-.477-5.018.12-1.433.597-3.104.955-3.941.716-.956,0 0,1.314.478,1.911 .597.716-.834.12-1.671-1.314s-.957-2.388.119-2.15c1.433.359 5.375-1.314 8.002-.478 2.75.838 2.87,1.555 2.03,1.195z" fill="#c68b5c"/>
  <path d="m308.57,13.432c.955.597 2.15,2.39.119,3.463-1.313.717-6.092.955-8.361-2.388-.597-.836 1.673-.599 2.868-1.196 1.43-.596 3.82-1.312 5.37.121z" fill="#e5d783" stroke="#8d5332" stroke-linecap="round" stroke-linejoin="round" stroke-miterlimit="2.4142" stroke-width=".36"/>
  <path d="m308.81,15.104c-.118.598-.237,1.076-3.462,1.076-2.508-.12-2.39-.957-2.39-1.553s-.118-.717 2.628-.717c2.98-.001 3.22.357 3.22,1.194z" fill="#0c0602" stroke="#dfc27d" stroke-linecap="round" stroke-linejoin="round" stroke-miterlimit="2.4142" stroke-width=".36"/>
  <path d="m342.01,24.062c-2.747-2.627-4.182-3.583-8.481-6.211-7.882-4.656-16.481-7.405-18.751-9.434-2.15-2.032-6.33-5.974-8.839-7.048-2.508-1.075-7.284-1.792-11.705.119s-6.688,1.076-6.688,1.076 2.865,1.911 5.136,1.671c2.15-.237 5.137,3.106 4.42,3.464s-.956,2.748 1.554,1.434c2.388-1.194 2.865-3.225 7.284-2.029 4.538,1.194 7.763,4.418 8.002,6.091 .12,1.791 2.031,4.537 3.941,5.732 1.793,1.314 4.42,3.941 1.434,2.27-2.987-1.791-6.092-.838-4.18.837s7.406,2.627 11.227,3.342 6.212,2.986 7.405,3.943c1.314.955 4.778,2.029 3.225.12-1.553-2.032-3.104-4.063-2.507-5.614 .717-1.673 1.193-1.196 2.15.477 .836,1.673 4.061,3.464 4.657,2.509 .14-.242-2.85-5.018.73-2.749z" fill="#261d0e" stroke="#63452a" stroke-linecap="round" stroke-linejoin="round" stroke-miterlimit="2.4142" stroke-width=".36"/>
  <path d="m335.33,44.605c-2.509-.595-8.959-1.792-10.272-3.104-1.314-1.434-3.226-1.434-2.27-.12 .955,1.193-5.732-.478-7.883-2.51-2.029-1.909-10.391-4.776-11.944-4.776-1.433,0-1.672-3.702-3.941-4.898-2.27-1.194-.956.598.358,3.105 1.433,2.39-1.912.836-3.941-.357-1.91-1.194-1.791-1.194-1.554-3.464 .12-2.27.12-4.54-1.193-5.733-1.435-1.194-.835-1.792 1.673,0 2.627,1.792 5.852,5.733 11.705,5.376 5.852-.239 4.658-.836 3.941-1.673-.717-.955-.956-2.627.596-1.434 1.435,1.194 2.987,5.376 6.451,5.852 4.06.597 4.179,7.047 9.913,7.407 3.106.238 7.884.477 12.303,2.268-3.36,1.314-4.07,2.39-3.95,4.061z" fill="#c68b5c" stroke="#b67c57" stroke-linecap="round" stroke-linejoin="round" stroke-miterlimit="2.4142" stroke-width=".36"/>
  <path d="m339.27,40.544s.955.717 1.553.957c1.672.597 5.136-1.434 7.763,1.553 2.867,3.104 3.941,2.507 4.181,3.941 .239,1.551 1.195,5.135-2.388,3.464-1.314-.599-2.987-1.434-4.66-2.15-6.091-2.627-9.675-2.509-10.39-3.704-.47-.836.6-3.104 3.95-4.061z" fill="#efe6c7"/>
  <path d="m292.68,11.999c.359-1.791-1.553-3.224-2.628-.836s-3.345,6.569-.12,12.065c3.107,5.374 3.227,9.794 5.374,21.855 2.15,12.065 4.661-1.671 3.227-5.255-1.553-3.583-2.389-7.047-2.628-9.794-.118-2.866-1.074-5.135-3.225-7.882-2.271-2.746-3.464-8.242-2.271-8.002 1.2.358 2.04-1.435 2.27-2.151z" fill="#864b2c"/>
  <path d="m274.65,16.179c1.434-2.03 1.434-4.42-.12-5.375-1.553-.836-2.986,1.553-1.553,1.553 1.553,0-.717,3.464-3.345,10.87-2.507,7.405-2.507,12.183-2.507,12.183s6.33-17.679 7.52-19.231z" fill="#864b2c"/>
  <path d="m343.92,59.416s-8.48-1.432-10.749-2.745c-2.27-1.196-14.93-5.375-12.183-2.51 2.031,2.152-1.076,3.466-4.778,1.792-3.822-1.672-9.675,1.674-13.258-.955-3.464-2.51-8.121-6.928-11.106-1.194-2.987,5.732-18.873,12.063-16.007,16.363 2.867,4.179 4.301,6.688 3.585,9.795-.479,2.985-2.031,14.571-4.182,18.154-2.15,3.462-2.507,11.108-3.104,12.779s-.479,2.51-.479,2.51 8.601-20.067 14.332-36.907c4.182-12.185 2.986-16.962 10.75-17.082 9.436-.118 13.379,3.227 21.978-.118 4.657-1.671 3.227,1.671 7.524-.599 3.345-1.791 5.018-.597 5.852-.237 2.04,1.068 2.88.711 11.83.949z" fill="#502d1a" stroke="#6b3c23" stroke-linecap="round" stroke-linejoin="round" stroke-miterlimit="2.4142" stroke-width=".36"/>
  <path d="m276.92,11.878c-2.149.836-7.883,15.527-9.913,20.664-2.15,5.135-3.941,24.485 5.374,34.398 5.255,5.616 14.811,10.75 21.619,12.542 5.375,1.553 8.958,3.464 8.003-8.601-.955-12.061-6.807-20.542-7.287-39.295-.119-7.405-5.971-8.24-5.971-16.364 0-1.194-2.15-.597-2.628,1.673s-3.224,5.972-3.703,3.941c0,.001-3.1-11.704-5.49-8.958z" fill="#e5d3b2"/>
  <path d="m291.01,74.824c3.345,1.314 5.732,2.031 4.061,0-1.673-2.15-11.348-8.002-13.019-15.526-1.673-7.645-8.719-15.886-7.286-24.963 1.552-9.08 2.509-16.006.836-11.587s-5.732,14.81-4.419,22.576c1.44,7.882 2.99,23.17 19.83,29.5z" fill="#d3bd98"/>
  <path d="m301.64,77.333c-.358,2.508-1.791,3.462-4.897,2.628-3.345-.836-12.183-3.583-19.111-8.958-7.045-5.257-9.195-8.72-10.629-15.646-1.553-6.93-2.03-13.855-.357-20.426-.12,5.496-1.195,12.901 1.314,19.23 2.627,6.331 6.208,12.899 7.881,12.78s1.672,1.196 3.941,2.869 12.423,8.239 15.887,8.478c3.47.24 5.15,1.792 5.98-.955z" fill="#d3bd98"/>
  <path d="m301.64,71.003c-.597-5.972-3.345-14.812-4.897-20.902-3.224-12.661-1.551-19.707-3.822-23.173-2.27-3.464-3.941-5.257-4.538-7.405-.599-2.03-1.195.955-.717,3.345 .358,2.388-.956,5.971-2.866,7.764s1.434,21.021 4.061,24.366c2.509,3.464 6.448,4.538 7.883,8.838 1.313,4.18 4.539,9.196 4.657,11.585 .25-1.91.37-2.865.25-4.418z" fill="#eadfc0"/>
  <path d="m37.798,316.69c-.479-.838-3.584-8.601-6.45-10.272-.836-.479-1.194-.836-2.27-1.313-.359-2.75-1.673-5.854-3.344-7.167-3.226-2.867-.957-3.584-2.748-4.778-1.433-.956-5.016-3.224-5.016-4.778 0-1.194 1.194.12 1.194.12s-1.194-1.553-1.553-4.181c-.239-2.627-.12-10.989.955-17.797 .717-3.704 2.627-11.466 4.778-16.483 2.15-4.896 8.122-16.841 12.661-19.588 4.419-2.748 5.255-5.135 5.733-5.972 .357-.838 1.433-2.627.955,1.194 2.628-3.703 2.628-.836 5.135-3.464 2.509-2.748 2.389-4.061 4.181-4.658 0,1.673-1.194,4.061-1.672,4.658 3.583-2.03 4.299-5.375 4.778-6.688 .358-1.314 1.194-2.987 2.031-1.793s2.03-.715 2.508-1.911c.598-1.074-.239-1.194 2.031-1.911 2.149-.597 4.299-2.27 5.016-8.24 .717.953.597,2.746.597,2.746s3.583-3.464 2.03-9.793c1.553,1.432 2.032,3.582 2.032,3.582s1.195-4.3.716-7.405c-.359-3.106.479-5.972.479-5.972s1.433.478 2.388,2.15c.239-3.106 0-4.42-.836-7.285 .836-1.793.836-4.302.717-5.017" fill="none" stroke="#000" stroke-linecap="round" stroke-linejoin="round" stroke-miterlimit="2.4142" stroke-width=".288"/>
  <path d="m242.04,318.36s-.717-3.462-2.271-5.852-3.464-4.181-5.614-5.495-3.344-2.987-3.344-3.583c.356.118.356-.24-.478-1.313-1.436-2.03-4.659-3.346-7.168-5.494-2.627-2.15-6.567-5.257-7.762-9.079-1.195-3.821-2.629-10.749-2.032-18.034 .597-7.405 1.436-4.181.24-12.422 2.149,1.074 2.029,1.074 1.792-3.702 .597-2.032 1.194-5.734 1.91-1.196 1.313-3.582.835-4.777.598-5.852-.358-.956-.957-3.94.119-2.627 0-2.627-.597-3.823-.836-4.3-.24-.836-1.554-2.987.717-2.15-1.076-2.748-1.673-3.943-1.554-7.884 .24-5.733 3.225-16.361 4.778-21.139 1.433-4.779 3.344-12.78 3.941-15.886 .479-3.226.597-5.017 2.747-4.181 .119-3.942.358-4.897.479-5.376" fill="none" stroke="#000" stroke-linecap="round" stroke-linejoin="round" stroke-miterlimit="2.4142" stroke-width=".288"/>
  <path d="m52.25 230.22s-3.105-2.989-7.405-6.451" fill="none" stroke="#000" stroke-linecap="round" stroke-linejoin="round" stroke-miterlimit="2.4142" stroke-width=".288"/>
  <path d="m291.37,9.968c-1.194-.478-2.628,3.94-2.628,5.254 0,8.124 5.852,8.958 5.971,16.364 .48,18.753 6.332,27.234 7.287,39.295 .955,12.065-2.628,10.154-8.003,8.601-6.809-1.792-16.364-6.926-21.619-12.542-9.315-9.913-7.524-29.263-5.374-34.398 2.03-5.137 5.972-14.572 7.165-16.721 .957-1.793 1.673-2.75 1.314-3.464-.357-.836-.238-1.553-1.552-1.792" fill="none" stroke="#000" stroke-linecap="round" stroke-linejoin="round" stroke-miterlimit="2.4142" stroke-width=".288"/>
  <path d="m354.68,45.083c-.837.122-1.673.717-1.553,1.913 .118,1.194-.239.238-.479-.956-.238-1.314.718-2.15 1.912-1.434 1.07.718.12.477.12.477z" fill="#c09a71"/>
  <path d="m353.24,46.995c.358,1.074.598,2.865.121,3.941s-1.314.597-2.151-.119c-.954-.716 1.313.716 1.434-1.434 0-2.15 0-3.701.6-2.388z" fill="#d0ab82"/>
  <path d="m305.11,13.312c1.194,0 2.15.12 2.15.478 0,.239-.24.239-2.15.119-.84,0-1.44-.358 0-.597z" fill="#f2ede3"/>
  <path d="m306.3,13.79c.479,0 .716-.238.119-.357-.84-.001-.84.238-.12.357z" fill="#fff"/>
 </g>
</svg>
