<?xml version="1.0" encoding="UTF-8"?>
<svg viewBox="0 0 744.09447 1052.362179" xmlns="http://www.w3.org/2000/svg">
 <path d="m276 654.36 18.5 3.5s-1.0179 13.791-2.5 19.5c-0.6089 2.3456-4.336 5.4782-3 7.5 3.2203 4.8735 13.828 11.5 12 11.5 0 0 8.0942 4.8462 12 5.5 9.068 1.518 30.5-3 30.5-3s-13.025 10.312-12.5 16.5c0.2782 3.278 8 7.5 8 7.5s-8.7475-0.5604-12.5-0.5c-12.481 0.2009-21.023-2.1232-33.5-2.5-2.2689-0.0685-13.466 3.4932-15.5 4.5-1.0839 0.5364-2 3.5-2 3.5s-12.37-8.3407-14.5-14c-2.5445-6.7621-0.0867-17.083 2-24 0.9889-3.2779 4.8697-6.6347 5.5-10 0.4179-2.2311 0.8639-6.2045-1-7.5-2.7789-1.9314-9.4889 5.5281-11 2.5-1.1406-2.2856 4.4291-4.0046 6.5-5.5 2.5654-1.8524 6.9365-3.1011 9-5.5 2.0166-2.3443 4-9.5 4-9.5z" fill="#d26956" fill-rule="evenodd" stroke="#000"/>
 <path d="m278 723.86s-3.5717-9.2977-4-13.5c-0.7175-7.039 2-23.5 2-23.5s3.0234 12.79 6.5 17c3.26 3.9478 9.9221 6.7076 14.5 9 6.6252 3.3175 23 9 23 9s-19.619-1.8007-24-1.5c-8.2306 0.565-18 3.5-18 3.5z" fill="#962d0f" fill-rule="evenodd" stroke="#000"/>
 <path d="m286 691.86s9.5539 4.6694 13.5 6.5c5.064 2.3492 11.921 6.8089 17.5 7 7.6514 0.2621 20-2.5 20-2.5s-3.9526 5.1822-6.5 9.5c-1.3158 2.2302 3 8 3 8s-20.886-4.3017-27.5-9c-2.349-1.6687-7.3297-4.1521-9-6.5-2.7743-3.8998-11-13-11-13z" fill="#962d0f" fill-rule="evenodd" stroke="#000"/>
 <g transform="translate(.5,-2)" fill-rule="evenodd" stroke="#000">
  <path d="m354,678.8622c5.5,3.5 11,3 11,3l11-1.5 3-1c0,0 1.6612,6.9707 1.5,10-.1894,3.5604-3.1014,7.936-3,11.5 .1389,4.884 4.804,11.1354 7,15.5 2.3198,4.6107 3.9878,9.7566 8.5,11.5 5.8849,2.2738 14.0645-6.6572 20-6 3.2698.362 10.9485,10.7708 14,12 6.2052,2.4996 8.1212,2.9841 14,3 4.5125.0122 16.047-1.4107 17,3 .4948,2.2902-5.4531,2.7216-6,5-.7999,3.3324 4.6007,7.0744 4.5,10.5-.069,2.3469-1.5784,5.6509-3.5,7-4.2028,2.9507-11.393-.4625-16.5-1-9.2933-.9781-20.9872-4.9556-30-7-8.8378-2.0046-16.3064-.6284-24.5-4.5-2.4147-1.141-14.1733-3.8532-12-7.5 1.1161-1.8728.2489-6.896-2-7.5-1.4341-.3852-2.0159,3.5494-3.5,3.5-1.5936-.0531-3.7474-2.4248-3.5-4 .4071-2.5922 7.34-1.881 7.5-4.5 .4417-7.2286-1.3045-13.4841-3-19-1.6561-5.3877-8-17-8-17l-3.5-15z" fill="#d26956"/>
  <path d="m395.5,734.8622c1.0059-2.0118 10.1204-4.2733 14.5-6 2.3846-.9402 8-3 8-3s5.537,5.2648 8.5,6.5c4.0531,1.6896 10.126,1.6123 14.5,2 5.7358.5085 15.5,4.5 15.5,4.5s-12.233,1.3459-17.5,1.5c-5.5496.1623-12.9504-.3355-18.5-.5-4.6504-.1378-10.8887.1169-15.5-.5-3.2095-.4294-10.5-2.5-10.5-2.5l1-2z" fill="#962d0f"/>
  <path d="m399.5,746.3622 17.5-1c0,0 11.559.1656 16.5.5 5.7184.3871 14.4179-1.443 19,2 3.4962,2.6271 5.5003,8.9121 3,12.5-2.5742,3.694-8.7667.884-12.5.5-6.1522-.6328-14.0163-3.4363-20-5-4.9641-1.2973-16.5-4.5-16.5-4.5l-7-5z" fill="#962d0f"/>
 </g>
 <path d="m342,665.8622c8.5,7 7.4621,4.3601 10,7 1.7302,1.7997 2.5402,5.4535 4.5,7 2.4951,1.969 6.8266,3.3202 10,3.5 3.3787.1914 8.392-.3434 11-2.5 2.0188-1.6694 2.6683-5.5159 3.5-8 1.028-3.0705 1.4502-7.4369 2.5-10.5 1.1753-3.4291 5-11 5-11l-46.5,14.5z" fill="#f0f0f0" fill-rule="evenodd" stroke="#000"/>
 <path d="m552.5 265.93c1.5098-8.908-9.6315-13.047-15-16.786-3.5867-2.4976-15.63-5.7442-20-5.7143-6.1361 0.042-13.063 3.9246-16.429 6.7857-9.0119 7.6604-17.108 16.852-23.571 25.357-5.3392 7.0264-11.755 17.452-16.071 25.357-6.3405 11.612-13.218 27.879-16.429 40.714-3.7493 14.991-4.2491 35.445-5 50.714-0.2947 5.9928 0.7698 15.478 0 21.429-1.0804 8.3505-3.153 17.298-4.2857 25.357-0.4957 3.5269-4.1932 7.8495-6.7857 7.1429-9.3939-2.5605-25.991-7.7897-37.5-8.2143-9.0852-0.3351-23.049-0.6282-32.857 0.3571-13.026 1.3085-30.237 4.7342-42.857 8.2143-4.8358 1.3335-11.074 3.8084-15.714 5.7143-16.142 6.6303-37.839 18.452-54.286 24.286-16.262 5.7681-27.143 10-54.286 14.286s-38.762 17.287-55 21.071c-9.9272 2.3138-24.907 0.0486-41.429-0.3571-5.9076-0.1451-23.505 4.8567-25 8.5714 4.5181 4.735 27.143 8.9286 27.143 8.9286s-28.584-3.4746-35.714 4.6429c-3.6769 4.1858-9.2857 6.7857-5.3571 16.071 3.5204 8.321 32.416 1.5452 43.214 8.2143-0.6504 6.3629 1.058 6.5026 3.5714 7.1429 11.472 2.9224 28.719 11.005 39.643 18.214 10.256 6.7689 21.755 18.974 31.786 26.071 14.714 10.412 36.272 21.227 52.857 27.857 15.54 6.2127 35.848 12.121 51.429 17.5 9.6293 3.3243 22.693 8.4842 32.857 10.357 24.865 4.5818 54.788-1.3088 79.643-6.4286 13.274-2.7343 35.388-10.754 47.143-17.5 24.232-13.907 47.164-41.168 69.643-60.714 12.036-10.466 23.349-31.772 26.786-48.214 5.3681-25.682 0.3075-39.767-2.1429-55-2.2171-13.783-9.1803-27.781-13.929-39.643-4.2737-10.676-12.604-24.174-15.714-35.357-2.7778-9.9866-1.7501-24.783 0-35 1.618-9.4456 3.9471-18.848 8.5714-26.429 4.5797-7.5069 5.4535-11.637 12.5-17.857 4.37-3.8578 21.429-15 21.429-15l7.1429-42.143z" fill="#f0f0f0" fill-rule="evenodd" stroke="#000"/>
 <path d="m520,290.2193c-.7143,9.2857.3571,9.6429.3571,9.6429s11.1344,3.7418 16.0714,4.6429c2.6435.4825 6.2436.6071 8.9286.7143 2.1412.0855 4.5983-.1057 7.1429,0 2.4991.1038 8.0934,2.9131 9.2857.7143 .389-.7173-.4646-1.9545-1.0714-2.5-2.1676-1.9484-6.6092-1.7033-9.2857-2.8571-3.3927-1.4626-7.2692-4.7371-10.7143-6.0714-2.2541-.873-5.0978-.4447-7.5-.7143-2.4489-.2748-6.1819-.469-8.5714-1.0714-1.534-.3867-4.6429-2.5-4.6429-2.5z" fill="#fb9354" fill-rule="evenodd" stroke="#000"/>
 <path d="m530.3571,265.9336c-2.8571,11.7857-4.2857,16.4286-4.2857,16.4286l-6.4286,6.7857c0,0 1.3349,1.9316 2.1429,2.5 1.9692,1.3854 5.1171,2.5126 7.5,2.8571 2.7652.3998 6.574-1.3873 9.2857-.7143 2.3368.58 4.6988,3.085 6.7857,4.2857 2.4092,1.3862 5.739,3.0213 8.2143,4.2857 2.1335,1.0899 4.776,3.2004 7.1429,3.5714 1.3922.2183 3.5041.1158 4.6428-.7143 .968-.7056 1.8317-2.3744 1.7857-3.5714-.0719-1.8729-2.1216-3.8344-3.2143-5.3571-1.6397-2.2849-4.3059-4.9537-6.0714-7.1429-1.4394-1.7849-3.5319-4.0656-4.6428-6.0714-.8871-1.6016-1.8763-3.9029-2.1429-5.7143-.2345-1.5936.6283-3.7694.3571-5.3571-.1374-.8043-.3721-2.0795-1.0714-2.5-1.1057-.6649-2.9955.362-4.2857.3571-1.1834-.0045-3.9286-.3571-3.9286-.3571s-2.9233-2.128-4.2857-2.8571c-1.228-.6572-2.8938-1.7349-4.2857-1.7857-1.0158-.0371-3.2143,1.0714-3.2143,1.0714z" fill="#fb9354" fill-rule="evenodd" stroke="#000"/>
 <path d="m540.36 280.93c5.7143 3.5714 5.3571 6.7857 5.3571 6.7857l-0.3571-0.7143-3.9286-3.9286-1.0714-2.1429z" fill="#aa0301" fill-rule="evenodd" stroke="#aa0301"/>
 <path d="m509.7482,253.4578c2.5031-.9388.2784-1.013 2.3991-.8839 3.2618.1986 2.7163-.2063 3.4093.6313 .5964.7209 1.4307,1.7401 1.6415,2.6516 .2574,1.1127.1208,2.761-.3788,3.7881-.5742,1.1805-1.9474,2.5196-3.1567,3.0305-1.0125.4278-2.6284.5008-3.6618.1263-.908-.3291-1.6338-1.8479-1.894-2.7779-1.1326-4.0471 1.6415-6.566 1.6415-6.566z" fill="#55140b" fill-rule="evenodd" stroke="#000"/>
 <path transform="matrix(.5196 0 0 1.0825 248.72 -30.456)" d="m510.25 265.07a1.5784 0.7576 0 1 1 -3.1567 0 1.5784 0.7576 0 1 1 3.1567 0z" stroke="#000" stroke-width=".5"/>
 <path d="m516.82 304.6c-13.511 3.5355-10.174 2.9485-14.647 3.6618-4.7254 0.7536-15.91 1.1364-15.91 1.1364" fill="none" stroke="#000" stroke-width=".5"/>
 <path d="m535.76 307.88c-20.077 4.7982-18.688 4.4194-20.077 4.9245s-14.016 3.0305-14.016 3.0305" fill="none" stroke="#000" stroke-width=".5"/>
 <path d="m539.17 310.53c-18.183 6.6923-12.603 5.0645-18.183 6.6923-3.2383 0.9447-10.985 2.3991-10.985 2.3991" fill="none" stroke="#000" stroke-width=".5"/>
 <path d="m468.84 297.9-4.1669 1.6415" fill="none" stroke="#000" stroke-width=".5"/>
 <path d="m468.5845,304.3442c-.4788.2448-1.8033,1.172-2.3991,1.7678-.7604.7604 1.0079-1.3867 0-.3788-.4322.4322-.9583.9065-1.2627,1.5152-.1215.2429-.5131.4737-.6313.6313" fill="none" stroke="#000" stroke-width=".5"/>
 <path d="m472.8777,306.7433c-.0254.0509-1.8158,1.2356-2.5254,1.7678-.5461.4096-1.3224.8673-1.894,1.0102-.1578.0394-.7625.6666-.8839.7576" fill="none" stroke="#000" stroke-width=".5"/>
 <path d="m478.9386,303.0815c-.3799.095-1.2838,1.5574-1.5152,2.0203l-.8839,1.7678-.8839,1.7678c-.2594.5188-.4242,1.1818-.8839,1.6415-.0595.0595 0,.1684 0,.2525" fill="none" stroke="#000" stroke-width=".5"/>
 <path d="m475.7819,315.3296c-.3758.3758-1.4459,1.2423-2.1466,1.7678-.7512.5634-1.2524.6262-2.0203,1.0102-.7727.3863-1.4027.5154-1.894.8839-.2524.1893-.5499.2953-.8839.3788" fill="none" stroke="#000" stroke-width=".5"/>
 <path d="m485.1258,311.289c-.3849.2887-1.095,1.4324-1.389,2.0203l-.1263.2525" fill="none" stroke="#000" stroke-width=".5"/>
 <path d="m481.5902,319.7491c-.1614.3227-1.3038.7987-1.894,1.389-.6451.6451-.6526.8427-.8839,1.7678-.2062.8249-.1819,1.3975-.6313,2.1466-.3948.658-.6077.9866-1.0102,1.389-.3719.3719-.8513.5987-1.2627,1.0102" fill="none" stroke="#000" stroke-width=".5"/>
 <path d="m487.6511,326.1888c-.8497.8497-1.8424,1.4635-2.6517,2.2728-.9214.9214-2.4082,1.4072-2.9042,2.3991-.1279.2557-.4524.3341-.6313.3788" fill="none" stroke="#000" stroke-width=".5"/>
 <path d="m487.7774,333.8912c-.0622.1244.4387,2.9172.2525,3.6618-.1703.681-.8689,1.3777-1.389,1.7678-.8291.6218-1.375,1.1576-2.0203,1.6415-.2396.1797-.38.3794-.6313.5051" fill="none" stroke="#000" stroke-width=".5"/>
 <path d="m494.4697,336.4166c-.8654.649 1.5609,4.0594 2.0203,4.672 .136.1813-.4115-.1976-.6313-.2525" fill="none" stroke="#000" stroke-width=".5"/>
 <path d="m503.056,321.2643c.4301.5734-1.2114.8156-1.6415,1.389" fill="none" stroke="#000" stroke-width=".5"/>
 <path d="m505.9602,324.2947c.2824.3765-1.2549,3.52-1.6415,4.2931-.0266.0532-.0842.0842-.1263.1263" fill="none" stroke="#000" stroke-width=".5"/>
 <path d="m513.0312,327.1989c-.1115.2231.1525,3.0913-.1263,3.7881" fill="none" stroke="#000" stroke-width=".5"/>
 <path d="m505.9602,337.8055c-.1099.2197 4.1405,4.0142 4.9245,4.7982 .7548.7548 1.2122,1.0708-.1263,0" fill="none" stroke="#000" stroke-width=".5"/>
 <path d="m504.5712,339.3207c.0742.0742-.1354,2.7324 0,3.4093 .1336.6679.642,1.4103.7576,1.6415" fill="none" stroke="#000" stroke-width=".5"/>
 <path d="m499.2679,344.119c.1173.5866.8689.8539 1.1364,1.389" fill="none" stroke="#000" stroke-width=".5"/>
 <path d="m499.0154,353.8417c.0559.2795.8052.441.6313,1.1364" fill="none" stroke="#000" stroke-width=".5"/>
 <path d="m485.6308,346.013c.0629.3145-1.971,1.4467-2.3991,1.7678-.5237.3928-1.1457.4758-1.7678.6313" fill="none" stroke="#000" stroke-width=".5"/>
 <path d="m480.4538,355.3569c-.3678.2759-1.7952.668-2.5254,1.6415-.0357.0476.0842.0842.1263.1263" fill="none" stroke="#000" stroke-width=".5"/>
 <path d="m481.5902,359.3975c-.3136.4181-1.5172,1.4757-2.0203,2.1466-.0565.0753-.0842.1684-.1263.2525" fill="none" stroke="#000" stroke-width=".5"/>
 <path d="m490.3 358.01c-0.2285 0.3047 3.2882 2.5358 3.7881 3.5355" fill="none" stroke="#000" stroke-width=".5"/>
 <path d="m487.0198,365.2059c-.7762,1.035-1.4446,3.3942-2.1466,4.7982-.4384.8769.0916.1832.1263.2525" fill="none" stroke="#000" stroke-width=".5"/>
 <path d="m494.9747,365.4585c-.2219.4437 2.2466,2.0769.5051,1.6415" fill="none" stroke="#000" stroke-width=".5"/>
 <path d="m473.26 349.67c-0.233 0.466-1.1047 1.4442-1.894 1.6415" fill="none" stroke="#000" stroke-width=".5"/>
 <path d="m471.99 359.9c-0.2699 0.0675-3.1126 2.4813-3.1567 2.5254" fill="none" stroke="#000" stroke-width=".5"/>
 <path d="m470.4785,370.2567c-.1525.1525-1.3809.8778-1.894,1.2627-.335.2513.0003-.0006-.1263.2525" fill="none" stroke="#000" stroke-width=".5"/>
 <path d="m469.8472,380.3582c-.748.561-2.8796,1.2442-3.9143,2.0203-.5103.3827-.06.02-.3788.1263" fill="none" stroke="#000" stroke-width=".5"/>
 <path d="m459.9982,374.4235c-.2475.1856 0,3.4017 0,4.1669 0,.5528-.4791-.2749-.5051-.3788" fill="none" stroke="#000" stroke-width=".5"/>
 <path d="m463.0287,356.7459c0,.858-.4238,1.1705-1.7678,1.7678-1.7838.7928.4481-.1654-1.0102.1263-1.0175.2035-1.379.8314-2.2728,1.0102-.7515.1503-1.6499.766-2.0203,1.1364-.4427.4427-1.3163.9556-1.894,1.389s-.7103.7971-1.389,1.1364" fill="none" stroke="#000" stroke-width=".5"/>
 <path d="m468.2057,388.3132c-.4029.3021-2.2773,1.3269-3.0305,1.5152-.6975.1744-.2679.268-.5051.5051" fill="none" stroke="#000" stroke-width=".5"/>
 <path d="m475.9081,392.2275c-.4779.1195-.2095.9948-.5051,1.389-.5471.7295-1.8785,1.626-2.3991,2.1466" fill="none" stroke="#000" stroke-width=".5"/>
 <path d="m463.53 395.76c-0.4577 0.6103-2.0127 1.6709-2.5254 2.5254" fill="none" stroke="#000" stroke-width=".5"/>
 <path d="m463.4075,407.1272c-1.1875,1.5833-3.8753,4.3238-5.8084,5.9347-.722.6016-1.9016.8245-2.7779,1.2627-.7276.3638-.4675.0512-.2525-.3788" fill="none" stroke="#000" stroke-width=".5"/>
 <path d="m474.39 408.77c-0.5881 0.294-0.6746 1.2212-1.2627 1.5152" fill="none" stroke="#000" stroke-width=".5"/>
 <path d="m484.6207,384.2725c-.0931.0466 1.7678.9294 1.7678,2.5254 0,.8485-.2124,1.0202-.7576.8839" fill="none" stroke="#000" stroke-width=".5"/>
 <path d="m484.87 376.44c0 0.5721-1.7443 2.6282-2.3991 3.283" fill="none" stroke="#000" stroke-width=".5"/>
 <path d="m496.1112,383.7675c0,.7446 1.1822.9755 1.5152,1.6415 .1169.2339.1787.536.2525.7576" fill="none" stroke="#000" stroke-width=".5"/>
 <path d="m449.2654,398.6672c.0358.0715-2.5174,4.2612-2.7779,5.3033-.0754.3017-.1685.5053-.2525.7576" fill="none" stroke="#000" stroke-width=".5"/>
 <path d="m446.9925,391.7224c-.2228.8913-2.361,3.3521-3.1567,4.5457-.4465.6698-.9395,1.1214-1.2627,1.7678" fill="none" stroke="#000" stroke-width=".5"/>
 <path d="m452.8009,380.9896c-.3337.5006-1.6513,1.0298-2.1466,2.0203-.1362.2724-.4538.363-.6313.5051" fill="none" stroke="#000" stroke-width=".5"/>
 <path d="m455.4525,391.3436c-.4285.8571-2.4191,1.9339-3.0305,3.1567-.0266.0532-.0842.0842-.1263.1263" fill="none" stroke="#000" stroke-width=".5"/>
 <path d="m458.9881,365.0796c-.2472.4943-1.77,1.6866-2.3991,2.5254-.8071,1.0762-1.7547,1.9009-2.7779,2.7779-2.0002,1.7145-4.0018,3.7921-5.6821,5.8084-.7525.9031-1.4844,1.895-2.1466,2.7779-.0565.0753-.0842.1684-.1263.2525" fill="none" stroke="#000" stroke-width=".5"/>
 <path d="m448 361.17c-0.0253 0.0337 0-0.0842 0 0z" fill="none" stroke="#000" stroke-width=".5"/>
 <path d="m450.6543,366.9737c-.6141.8188-2.8333,2.0099-3.7881,3.283-.5572.743-1.3119,2.439-1.5152,2.7779" fill="none" stroke="#000" stroke-width=".5"/>
 <path d="m450.528,357.1247c-.2766.3688-5.1144,2.1153-6.4397,2.7779-.2792.1396-.0392.0784-.1263.2525" fill="none" stroke="#000" stroke-width=".5"/>
 <path d="m454.0636,349.4223c-.549.2745-2.0726,1.9637-2.7779,2.9042-.4085.5447-.8962.7006-1.2627.8839" fill="none" stroke="#000" stroke-width=".5"/>
 <path d="m449.9 361.04c-0.4613 0.615-1.4024 1.3957-2.1466 1.7678" fill="none" stroke="#000" stroke-width=".5"/>
 <path d="m464.2914,342.3512c-.8806,1.1742-2.4617,1.7071-2.1466,3.283 .1543.7714.2192,1.7748.1263,2.1466-.0722.2887-.5893.0842-.8839.1263" fill="none" stroke="#000" stroke-width=".5"/>
 <path d="m451.66 345.13c-0.1335 0.5341-1.9568 2.1621-2.7779 2.7779" fill="none" stroke="#000" stroke-width=".5"/>
 <path d="m470.73 333.01c-1.4374 1.0781-4.6153 2.1726-5.0508 3.9143" fill="none" stroke="#000" stroke-width=".5"/>
 <path d="m468.332,323.1583c-1.4019,1.0514-4.2513,2.9886-6.1872,4.9245-.1956.1956-.2558.341-.3788.5051" fill="none" stroke="#000" stroke-width=".5"/>
 <path d="m461.77 319.75c-1.7772 1.7772-4.0124 4.6438-6.0609 6.6923l-0.5051 0.5051" fill="none" stroke="#000" stroke-width=".5"/>
 <path d="m455.71 330.86c-0.9729 0.9729-3.8576 2.325-5.3033 3.4093" fill="none" stroke="#000" stroke-width=".5"/>
 <path d="m497.25 321.77c-0.2264 0.2264-0.7873 3.6542-1.0102 4.5457" fill="none" stroke="#000" stroke-width=".5"/>
 <path d="m492.4494,319.3702c-.0486.0486.0451,2.2187-.1263,2.9042" fill="none" stroke="#000" stroke-width=".5"/>
 <path d="m490.18 316.97c-1.9008 1.9008-6.4176 2.8079-8.3338 5.6821" fill="none" stroke="#000" stroke-width=".5"/>
 <path d="m484.9995,396.8995c-.3869.3869.4209,1.0102.6313,1.5152 .3355.8052.5952,7.4093-1.2627,6.9448" fill="none" stroke="#000" stroke-width=".5"/>
 <path d="m472.6251,421.9007c.0134.0321-.6058,1.792-.7576,2.3991-.409,1.6359-.6717,3.0708-1.894,4.2931-1.264,1.264-1.9355,2.8193-3.1567,4.0406-.8118.8118-1.4004,1.6231-2.2729,2.1466-.7859.4715-1.8356,1.8356-2.5254,2.5254-.8219.8219-.8055,1.9419-1.6415,2.7779-.7067.7067-.396,1.785-1.1364,2.5254-.6483.6483-.998,1.8697-1.389,2.6516-.7152,1.4305-1.4562,2.8829-2.0203,4.2932-.1706.4265-.4307,1.0916-.5051,1.389" fill="none" stroke="#000" stroke-width=".5"/>
 <path d="m449.6442,439.1996c-.0016.004 1.7618-.8298 3.5355-1.894 .8104-.4862 1.9049-.3211 2.7779-.7576 .6453-.3227 1.5564-.269 2.1466-.5051s1.4485-.299 1.7678-.3788" fill="none" stroke="#000" stroke-width=".5"/>
 <path d="m451.1594,447.0283c.8325-.333 2.4466-1.2351 3.6618-2.1466 .5445-.4083.8487-.7224 1.1364-1.0102" fill="none" stroke="#000" stroke-width=".5"/>
 <path d="m450.2755,429.0981c1.1943-.8957-2.5812,1.6621-3.4093,2.9042-.8685,1.3028-2.6786,2.7982-3.6618,3.5355-.6977.5233-1.7733.9196-2.3991,1.389-.5317.3987-1.3531.4692-1.389.5051" fill="none" stroke="#000" stroke-width=".5"/>
 <path d="m442.8256,446.7757c-.0038.0028.0924-2.8948.2525-3.5355l.6313-2.5254c.2899-1.1597.4683-2.3922 1.1364-3.283 .5886-.7848 1.0792-1.5843 1.6415-2.1466 .1079-.108.217-.3255.2525-.3788" fill="none" stroke="#000" stroke-width=".5"/>
 <path d="m443.8358,453.468c.4433-.4433-1.3794,1.038-2.5254,2.0203-.2046.1754-.4209.3367-.6313.5051-.3976.3181-.6996.4906-1.2627.6313" fill="none" stroke="#000" stroke-width=".5"/>
 <path d="m438.9113,445.6393c-.3287.2629-.7125.46-1.0101.7576" fill="none" stroke="#000" stroke-width=".5"/>
 <path d="m437.7749,454.9832c-.1653.1323-2.1834-1.8119-2.7779-2.5254-.6858-.823-.4879-1.1321-1.0102-1.2627" fill="none" stroke="#000" stroke-width=".5"/>
 <path d="m292.5,658.3622c-7-6-3.5-2-7-6s-2,.5-5.5-6.5 .9118-5.7783 2-8c1.1748-2.3984 3.8893-4.8697 5.5-7 1.2305-1.6274 3.5082-3.5199 4-5.5 .2557-1.0294.2175-2.7188-.5-3.5-1.3538-1.4739-4.5839-.9224-6.5-1.5-1.2271-.3699-2.739-1.2713-4-1.5-2.5091-.455-5.9609-.236-8.5,0-2.4313.226-5.5654,1.312-8,1.5-4.7881.3697-11.5182.2238-16-.5-12.1859-1.968-24.4867-10.5419-36-15.5-7.0248-3.0252-16.3847-7.161-23-11-4.1026-2.3809-10.8552-3.6933-15-6-3.2872-1.8294-7.8168-4.2339-11.5-5-3.2309-.672-7.7627.6404-11,0-2.7053-.5352-5.8577-2.7106-8.5-3.5-3.8053-1.1368-13-2.5-13-2.5" fill="none" stroke="#000" stroke-width=".5"/>
 <path d="m421.5 513.36c-2.5 6-5.4112 10.179-8.5 14-2.3347 2.8882-6.8413 5.478-9 8.5-2.1071 2.9496-3.923 7.5388-5 11-1.2676 4.0738-1.1962 9.9377-2.5 14-1.0662 3.322-2.5979 7.9697-5 10.5-2.8188 2.9693-8.2581 4.8386-12 6.5-4.943 2.1947-11.799 4.5162-17 6-7.3847 2.1069-17.562 3.5904-25 5.5-5.149 1.3219-12.429 2.2864-17 5-5.4724 3.2486-9.674 11.517-15 15-3.1005 2.0278-7.9174 3.5568-11.5 4.5-2.0514 0.5401-4.9506 0.4522-7 1-3.1215 0.8344-10 4-10 4" fill="none" stroke="#000" stroke-width=".5"/>
 <path d="m387 479.36c-20-4.5-13.878-3.9149-20-4.5-9.7104-0.928-22.787 0.1016-32.5 1-10.731 0.9926-24.945 3.3241-35.5 5.5-13.505 2.784-31.202 7.8544-44.5 11.5-15.062 4.1293-34.717 11.284-50 14.5-13.328 2.8045-31.416 5.0199-45 6-13.017 0.9392-43.5 0.5-43.5 0.5" fill="none" stroke="#000" stroke-width=".5"/>
 <path d="m317.5,597.3622c-6-3-4.1642-2.1756-6-3-2.2106-.9927-5.6409-1.4456-7.5-3-1.0856-.9077-1.3415-3.1874-2.5-4-1.7583-1.2332-5.3268-.1535-7-1.5-1.412-1.1363-1.5873-3.9341-2.5-5.5-1.0274-1.7627-2.2984-4.3744-4-5.5-1.6691-1.1041-4.5977-.8784-6.5-1.5-1.0859-.3548-2.4276-1.1065-3.5-1.5-1.9153-.7028-4.7838-.8967-6.5-2-1.5194-.9767-2.6901-3.2564-4-4.5-.6966-.6613-2.5-2-2.5-2s-4.7482-1.3615-6.5-2.5c-1.2451-.8092-2.3624-2.5456-3.5-3.5-1.4027-1.1768-3.7516-2.1606-5-3.5-1.1927-1.2796-2.4807-3.3296-3-5-.7139-2.2963-1.7139-3.5793-2-8.5-.209-3.5949 2-6.5 2-6.5s-5.5954.485-8,.5c-3.0037.0187-7.2545.7184-10-.5-1.7451-.7744-3.816-2.7175-4.5-4.5-1.0225-2.6645.52-6.6461.5-9.5-.0158-2.2549-.5-7.5-.5-7.5s-5.9467.425-8.5.5c-2.6988.0793-6.3286.3921-9,0-1.5495-.2274-5-1.5-5-1.5v-4" fill="none" stroke="#000" stroke-width=".5"/>
 <path d="m282.5 616.86c0.9243-1.6683 4.3911-3.9456 6.5-5 2.4953-1.2476 3.4848-1.4848 5-3 1.6135-1.6135 3.8822-2.6911 5.5-3.5 2.112-1.056 3.1469-2.0734 5-3 2.1456-1.0728 3.9687-3.4687 5-4.5 1.2761-1.2761 2.156-3.0413 2.5-3.5" fill="none" stroke="#000" stroke-width=".5"/>
 <path d="m271.5,612.8622c.4582-.4582 5.8287-2.6643 7.5-3.5 2.4183-1.2092 3.5514-2.7757 6-4 2.3141-1.157 4.321-3.321 5.5-4.5 1.6153-1.6153 3.6507-2.1507 5.5-4 1.9175-1.9175 3.3995-2.1997 6-3.5 1.4292-.7146 2.1578-1.1578 3-2" fill="none" stroke="#000" stroke-width=".5"/>
 <path d="m254.5,610.3622c1.5708-.7854 6.9202-2.9601 10-4.5 3.0666-1.5333 6.2804-2.1201 9.5-3.5 1.2351-.5293 2.2982-1.3991 3.5-2 3.3165-1.6582 3.2126-5.0531 7-6 1.7866-.4467 4.9318-3.1988 6-4 2.2305-1.6728 2.8627-1.9507 3.5-4.5" fill="none" stroke="#000" stroke-width=".5"/>
 <path d="m247 604.86c1.2755-0.9566 5.7389-3.1195 7.5-4 2.3959-1.1979 2.7829-1.8207 5.5-2.5 2.2553-0.5638 4.7357-2.6179 6.5-3.5l7-3.5c2.441-1.2205 3.6717-2.5859 5.5-3.5 2.463-1.2315 3.3846-2.4135 5.5-4 2.1755-1.6317 3.1057-1.2113 4.5-4" fill="none" stroke="#000" stroke-width=".5"/>
 <path d="m230,599.3622c.6207-.4655 6.3165-.8165 9-3.5 1.9861-1.986 4.972-2.479 7-4 1.8964-1.4223 4.3688-1.7766 6-3 2.4534-1.8401 6.181-3.0905 9-4.5 2.7213-1.3606 4.3523-2.6762 7-4 2.5493-1.2746 5.2541-2.2541 7-4 1.4494-1.4494 3.5172-1.5172 5-3" fill="none" stroke="#000" stroke-width=".5"/>
 <path d="m225,595.8622c1.5897-1.5298 6.4113-4.4557 9.5-6 2.6715-1.3357 5.2341-3.1835 8.5-4 2.6733-.6683 4.5992-2.2996 7-3.5 1.9685-.9843 4.7799-3.2799 6-4.5 1.0727-1.0727 5.4622-2.6155 7-3 1.767-.4417 4.0159-3.5319 4.5-4.5l.5-1" fill="none" stroke="#000" stroke-width=".5"/>
 <path d="m193,588.8622c.1183-.2366 5.9839-2.242 7.5-3 1.8595-.9297 3.5386-1.8846 6-2.5 2.9964-.7491 4.4308-1.0731 7-3 1.86-1.395 5.61-3.0275 7.5-3.5 2.8506-.7126 4.453-2.9765 6.5-4 3.1474-1.5737 6.9203-2.7681 10-4 3.0098-1.2039 5.4338-1.3868 8.5-2 2.1296-.4259 5.0204-2.0102 7-3 1.4697-.7348 2.9702-1.4702 4-2.5" fill="none" stroke="#000" stroke-width=".5"/>
 <path d="m176,582.8622 12-6c3.4307-1.7154 8.3523-3.0881 12-4 2.9665-.7416 6.6238-3.5929 8.5-5 2.5611-1.9208 6.2153-1.8861 9-3 3.0475-1.219 7.2757-2.8189 10-3.5 5.36-1.34 4.0001-1.7 5.5-2 4.206-.8412 5.662-3.6655 9-4.5 2.6605-.6651 3.5993-2.5248 5.5-3" fill="none" stroke="#000" stroke-width=".5"/>
 <path d="m160.5,572.8622c2.1615-.5404 5.7774-1.6387 8.5-3 2.9163-1.4582 5.7546-3.3773 9-5 2.8029-1.4014 5.9039-1.952 9-3.5 2.3586-1.1793 5.157-2.2893 8-3 2.3958-.5989 5.7357-2.8678 8-4 2.7212-1.3606 5.1865-2.3433 7.5-3.5 2.7952-1.3976 5.6624-2.5812 8.5-4 2.3972-1.1986 5.1043-2.0783 7-3.5 1.8652-1.3989 4.481-2.9952 6.5-3.5 1.2157-.3039 2.6053-1.8026 4-2.5" fill="none" stroke="#000" stroke-width=".5"/>
 <path d="m129,565.8622c3.8971-.9743 9.9341-4.5 16-4.5 1.1188,0 8.4136-3.1034 10-3.5 3.3092-.8273 5.4884-2.3977 8.5-3 3.889-.7778 8.3561-2.6187 12.5-4 3.3729-1.1243 7.952-1 11.5-1 4.4471,0 7.6669-.0834 11.5-2 2.1419-1.0709 6.5009-.8752 9-1.5 2.8061-.7015 6.0245-2.7622 8.5-4 2.2799-1.14 5.4558-2.3639 8-3 2.7339-.6835 4.7012-1.4253 7-2 1.6738-.4185 2.0097-.6274 3.5-1" fill="none" stroke="#000" stroke-width=".5"/>
 <path d="m119,539.8622c.9009-.2252 7.2564-4.1282 10-5.5s5.6971-1.5986 8.5-3c5.6769-2.8385 8.2588-4.5431 14-5.5 4.2808-.7135 7.8408-3.5681 12.5-4.5 11.6196-2.3239-3.5664-1.1445 8-5 2.873-.9577 6.4438-.736 9.5-1.5 2.8738-.7184 5.9576-.5 9-.5 2.928,0 5.4622-.5 8.5-.5 2.0844,0 4.2997-.4499 6.5-1" fill="none" stroke="#000" stroke-width=".5"/>
 <path d="m71.5 520.36c33.5 8 29.418 1.6001 34.5 6 2.4767 2.1444-4.7406 7.7246-3 10.5 1.8606 2.9666 8 2.5 11.5 2s9.1769-3.3137 13-5c2.4551-1.0829 8-4 8-4" fill="none" stroke="#000" stroke-width=".5"/>
 <path d="m105.54 554.32c3.084-2.0219 9.8984-4.6403 14.657-7.3103 4.573-2.566 11.768-3.5572 17.371-6.7011 4.9837-2.7964 13.63-4.8866 18.999-6.0919 4.8087-1.0793 9.2968-2.4368 14.114-2.4368 4.2272 0 9.5302-0.6939 13.571-1.8276l2.1714-0.6092c3.0328-0.8509 6.3998-1.1927 9.2283-1.8276 5.2798-1.185 10.406-6.4222 15.742-7.9195 4.3774-1.2281 9.6259-4.4874 12.485-6.0919l1.0857-0.6092" fill="none" stroke="#000" stroke-width=".5751"/>
</svg>
