<?xml version="1.0" encoding="UTF-8"?>
<!DOCTYPE svg  PUBLIC '-//W3C//DTD SVG 1.1//EN'  'http://www.w3.org/Graphics/SVG/1.1/DTD/svg11.dtd'>
<svg width="1184.1px" height="914.83px" enable-background="new 0 0 1184.086 914.826" version="1.1" viewBox="0 0 1184.086 914.826" xml:space="preserve" xmlns="http://www.w3.org/2000/svg">
<path d="m187.4 30.498l-7.318 12.224-20.543 127.21-25.622 200.9-0.56 0.565s-0.781 0.823-2.3 2.384c-1.472 1.562-3.64 3.857-6.325 6.764-5.33 5.804-12.741 14.038-21.023 23.924-16.56 19.719-36.453 45.812-49.974 71.125-8.969 16.861-15.083 33.377-15.562 47.158-0.343 10.445-0.649 20.848-0.649 31.035 0 19.588 1.128 38.184 5.032 53.746 3.856 15.557 10.441 27.912 21.149 35.541 13.046 9.316 25.571 18.549 38.88 25.395 13.305 6.896 27.349 11.402 43.691 11.402 3.076 0 6.283-0.174 9.576-0.52 14.692-1.561 31.99-1.951 47.938-4.984 15.905-3.08 30.207-8.756 39.313-20.5 6.113-7.803 10.008-18.465 10.533-33.377 2.033-61.377 12.267-130.76 12.267-130.81l0.037-0.215 21.07-61.07 41.606 2.211 150.01 184.95 0.084 0.734c0 0.047 6.025 71.213 6.025 109.84 0 8.709-0.305 15.73-1.086 20.193-0.303 1.52-0.602 2.734-1.123 3.814-6.082 12.125-19.924 35.885-20.446 36.811l-8.981 21.574 81.004 18.854-7.326-27.264 19.33-45.318c0.219-1.449 1.41-9.137 2.736-17.92 1.515-9.748 3.16-20.801 3.81-26.002l-2.483-31.877c-0.018-0.184-0.027-0.287-0.027-0.287h0.01l-0.01-0.084 4.768-0.434s1.6 15.342 2.381 24.141c0.262 2.949 0.437 5.027 0.437 5.941 0 0.648-0.103 1.434-0.245 2.68l2.018 25.664v0.043l6.937 98.477-23.086 51.963c12.327-0.809 50.313-3.16 74.448-3.16 7.281 0 13.311 0.174 17.166 0.781 0.811 0.109 1.533 0.236 2.201 0.406l0.01-0.232c0.043-1.994-0.648-5.766-1.824-10.186-1.123-4.506-2.729-9.75-4.549-15.215-3.598-10.877-7.887-22.453-10.793-29.949-1.908-5.027-3.207-8.193-3.207-8.234l-0.217-0.521 7.459-83.217 4.854-54.006 4.764 0.434-4.553 51.184c0.086 0.055 0.176 0.117 0.266 0.178 0.953 0.648 2.336 1.514 4.113 2.602 3.557 2.164 8.584 5.111 14.566 8.02 11.959 5.893 27.695 11.875 42.473 12.391 1.824 0.092 3.73 0.092 5.635 0.092h0.268c26.172 0 58.41-6.406 80.783-15.738 12.385-5.141 45.15-21.469 73.256-35.809l-0.047-0.074 2.258-1.131c8.812-4.5 17.146-8.789 24.268-12.457l13.902-7.178c5.346-2.775 8.512-4.42 8.512-4.42l4e-3 0.018 0.035-0.018 2.209 4.289s-8.504 4.416-21.111 10.91l-23.379 12.074c1.787 3.225 5.314 9.615 9.17 16.85 5.588 10.404 11.918 22.537 14.951 29.602 0.871 2.041 1.43 3.598 1.736 4.941 0.133 0.74 0.949 2.645 2.252 4.945 1.303 2.295 3.033 5.111 4.943 8.145 3.809 6.156 8.23 13.311 11.268 20.156 1.996 4.549 3.377 8.928 3.377 13.006 0 1.297-0.125 2.6-0.475 3.814-1.123 3.766-3.73 8.188-6.975 12.998-3.254 4.77-7.156 9.84-10.967 14.523-4.092 5.018-8.033 9.553-10.809 12.678 10.365-0.648 20.059-1.664 27.166-3.365 0.428-1.236 0.982-3.104 1.584-5.324 0.188-0.691 0.381-1.426 0.584-2.188 0.475-2.318 0.869-4.215 1.104-5.271 3.217-14.076 7.027-31.449 9.025-48.07 0.787-13.846 0.301-24.354 0.994-40.996 8e-3 -0.256 0.018-0.514 0.031-0.768-0.051-2.248-0.107-4.566-0.164-6.908-0.18-7.67-0.424-15.619-0.711-21.846-0.191-1.232-0.398-2.516-0.588-3.766-0.525-3.123-0.957-5.898-0.957-7.678l0.047-0.906c0.082-0.307 0.082-0.695 0.564-1.389 0.289-0.418 1.107-0.996 1.945-0.996h0.09c0.738 0 1.213 0.26 1.471 0.432l0.607 0.564c0.523 0.693 0.523 0.957 0.654 1.256l0.17 0.824c0.084 0.605 0.174 1.344 0.262 2.211 0.127 1.734 0.303 4.119 0.434 6.893 0.033 0.641 0.066 1.305 0.1 1.986 0.285 1.795 0.549 3.518 0.723 4.947 0.434 3.598 0.607 7.285 0.607 10.926 0 4.6-0.227 9.119-0.434 13.465 0.227 10.523 0.35 19.375 0.35 21.119 0 6.75-0.535 13.904-1.398 21.15-0.201 3.594-0.494 7.412-0.902 11.617-0.127 1.213-0.521 3.34-1.086 6.33-0.602 2.949-1.383 6.674-2.248 10.662-1.74 8.018-3.904 17.293-5.725 24.314-0.107 0.404-0.209 0.801-0.314 1.191-1.541 7.439-3.846 19.023-4.236 21.176-0.561 3.035-1.779 5.936-2.902 8.752-0.639 1.6-1.27 3.156-1.77 4.643 6.195-0.676 19.832-2.139 35.057-3.598 20.76-2.041 44.426-4.035 56.475-4.035 1.779 0 3.293 0.047 4.553 0.133 0.434 0.047 0.838 0.084 1.219 0.131-0.061-0.244-0.137-0.51-0.223-0.781-0.305-1.129-0.826-2.559-1.475-4.119-1.256-3.162-3.035-7.021-5.029-11.053-4.029-8.104-8.842-16.986-12.049-22.754-2.121-3.855-3.551-6.33-3.551-6.33l-0.348-0.605 4.637-109.57 0.086-0.301s1.08-3.904 2.906-10.578c1.82-6.674 4.334-16.037 7.105-26.916 5.594-21.76 12.27-49.584 16.729-73.596 2.949-15.996 4.9-30.34 4.9-39.92 0-2.428-0.133-4.553-0.391-6.283-2.252-15.605-5.111-29.689-11.053-42.738-5.98-13.045-15.039-25.096-30.08-36.752-30.424-23.624-68.564-47.982-101.73-58.516-7.586-2.428-19.418-3.467-33.029-3.467-32.508 0-75.502 5.851-100.21 10.705-8.234 1.603-14.477 3.122-17.426 4.205-0.564 0.216-1.127 0.258-1.688 0.258-2.17-0.042-4.42-0.909-7.369-2.337-2.943-1.43-6.457-3.514-10.537-6.116-8.145-5.2-18.463-12.613-30.297-21.54-23.664-17.815-53.309-41.739-82.734-66.097-58.906-48.675-117.2-99.173-125.66-106.41-0.564-0.433-0.912-0.734-0.949-0.781-0.48-0.391-0.781-0.732-1.177-1.167-0.344-0.479-0.69-0.996-1.123-1.603-0.823-1.172-1.778-2.732-2.817-4.469-2.127-3.551-4.596-7.972-7.023-12.35-4.768-8.714-9.188-17.123-9.188-17.123l-0.435-0.823 26.253-100.29-0.033-0.01 0.047-0.085 0.086-0.433c0.047-0.348 0.174-0.865 0.264-1.515 0.169-1.302 0.347-3.169 0.347-5.163 0.038-2.597-0.306-5.502-1.259-7.929-0.951-2.469-2.428-4.463-4.855-5.767-1.604-0.818-3.771-1.382-6.678-1.382h-0.649l-0.434 0.216c-0.432 0.216-1.039 0.602-1.777 1.166-1.471 1.044-3.424 2.69-5.719 4.685-4.553 4.031-10.36 9.623-16.644 15.864-12.524 12.439-26.784 27.395-36.19 37.36-6.246 6.632-10.361 11.053-10.361 11.053l-1.688 1.819-1.735-1.688-0.476-0.433c-0.306-0.306-0.738-0.696-1.393-1.26-1.213-1.083-2.99-2.601-5.328-4.463-4.68-3.73-11.488-8.71-19.852-13.695-16.771-9.97-39.963-19.852-65.404-19.852-7.539 0-15.258 0.866-23.103 2.817l-0.606 0.085c-1.043-0.085-1.299-0.301-1.73-0.518l-1.129-0.738c-0.828-0.607-1.777-1.387-2.906-2.338-2.295-1.993-5.332-4.769-8.842-8.065-6.98-6.632-15.951-15.431-24.795-24.226-13.968-13.869-27.613-27.734-32.772-32.987" fill="#CB9F8C"/>
<path d="m916.36 703.66m-457.83-477.86m-312.24 454.07c-16.343 0-30.387-4.506-43.691-11.402-13.31-6.846-25.834-16.078-38.88-25.395-10.708-7.629-17.293-19.984-21.149-35.541-3.904-15.562-5.032-34.158-5.032-53.746 0-10.188 0.306-20.59 0.649-31.035 0.479-13.781 6.594-30.297 15.562-47.158 13.521-25.312 33.415-51.405 49.974-71.125 8.283-9.886 15.694-18.12 21.023-23.924 2.686-2.907 4.853-5.202 6.325-6.764 1.519-1.561 2.3-2.384 2.3-2.384l0.56-0.565 25.622-200.9 20.543-127.21 7.318-12.224c5.159 5.253 18.804 19.118 32.771 32.988 8.844 8.794 17.814 17.594 24.795 24.226 3.51 3.296 6.547 6.072 8.842 8.065 1.129 0.951 2.078 1.731 2.906 2.338l1.129 0.738c0.432 0.216 0.688 0.433 1.73 0.518l0.606-0.085c7.845-1.951 15.563-2.817 23.103-2.817 25.441 0 48.633 9.882 65.404 19.852 8.363 4.985 15.172 9.965 19.852 13.695 2.338 1.862 4.115 3.381 5.328 4.463 0.654 0.564 1.087 0.955 1.393 1.26l0.476 0.433 1.735 1.688 1.688-1.819s4.115-4.421 10.361-11.053c9.406-9.966 23.666-24.921 36.19-37.36 6.283-6.241 12.091-11.833 16.644-15.864 2.295-1.994 4.248-3.64 5.719-4.685 0.738-0.564 1.346-0.95 1.777-1.166l0.434-0.216h0.649c2.906 0 5.074 0.564 6.678 1.382 2.428 1.303 3.904 3.297 4.855 5.767 0.953 2.427 1.297 5.333 1.259 7.929 0 1.994-0.178 3.861-0.347 5.163-0.09 0.65-0.217 1.167-0.264 1.515l-0.086 0.433-0.047 0.085 0.033 0.01-26.253 100.29 0.435 0.823s4.42 8.409 9.188 17.123c2.428 4.378 4.896 8.799 7.023 12.35 1.039 1.736 1.994 3.297 2.817 4.469 0.433 0.607 0.779 1.124 1.123 1.603 0.396 0.435 0.696 0.776 1.177 1.167 0.037 0.047 0.385 0.349 0.949 0.781 8.451 7.237 66.75 57.735 125.66 106.41 29.426 24.358 59.07 48.282 82.734 66.097 11.834 8.927 22.152 16.339 30.297 21.54 4.08 2.602 7.594 4.686 10.537 6.116 2.949 1.428 5.199 2.295 7.369 2.337 0.561 0 1.123-0.042 1.688-0.258 2.949-1.083 9.191-2.602 17.426-4.205 24.705-4.854 67.699-10.705 100.21-10.705 13.611 0 25.443 1.039 33.029 3.467 33.162 10.534 71.303 34.892 101.73 58.516 15.041 11.656 24.1 23.707 30.08 36.752 5.941 13.049 8.801 27.133 11.053 42.738 0.258 1.73 0.391 3.855 0.391 6.283 0 9.58-1.951 23.924-4.9 39.92-4.459 24.012-11.135 51.836-16.729 73.596-2.771 10.879-5.285 20.242-7.105 26.916-1.826 6.674-2.906 10.578-2.906 10.578l-0.086 0.301-4.637 109.57 0.348 0.605s1.43 2.475 3.551 6.33c3.207 5.768 8.02 14.65 12.049 22.754 1.994 4.031 3.773 7.891 5.029 11.053 0.648 1.561 1.17 2.99 1.475 4.119 0.086 0.271 0.162 0.537 0.223 0.781-0.381-0.047-0.785-0.084-1.219-0.131-1.26-0.086-2.773-0.133-4.553-0.133-12.049 0-35.715 1.994-56.475 4.035-15.225 1.459-28.861 2.922-35.057 3.598 0.5-1.486 1.131-3.043 1.77-4.643 1.123-2.816 2.342-5.717 2.902-8.752 0.391-2.152 2.695-13.736 4.236-21.176 0.105-0.391 0.207-0.787 0.314-1.191 1.82-7.021 3.984-16.297 5.725-24.314 0.865-3.988 1.646-7.713 2.248-10.662 0.564-2.99 0.959-5.117 1.086-6.33 0.408-4.205 0.701-8.023 0.902-11.617 0.863-7.246 1.398-14.4 1.398-21.15 0-1.744-0.123-10.596-0.35-21.119 0.207-4.346 0.434-8.865 0.434-13.465 0-3.641-0.174-7.328-0.607-10.926-0.174-1.43-0.438-3.152-0.723-4.947-0.033-0.682-0.066-1.346-0.1-1.986-0.131-2.773-0.307-5.158-0.434-6.893-0.088-0.867-0.178-1.605-0.262-2.211l-0.17-0.824c-0.131-0.299-0.131-0.562-0.654-1.256l-0.607-0.564c-0.258-0.172-0.732-0.432-1.471-0.432h-0.09c-0.838 0-1.656 0.578-1.945 0.996-0.482 0.693-0.482 1.082-0.564 1.389l-0.047 0.906c0 1.779 0.432 4.555 0.957 7.678 0.189 1.25 0.396 2.533 0.588 3.766 0.287 6.227 0.531 14.176 0.711 21.846 0.057 2.342 0.113 4.66 0.164 6.908-0.014 0.254-0.023 0.512-0.031 0.768-0.693 16.643-0.207 27.15-0.994 40.996-1.998 16.621-5.809 33.994-9.025 48.07-0.234 1.057-0.629 2.953-1.104 5.271-0.203 0.762-0.396 1.496-0.584 2.188-0.602 2.221-1.156 4.088-1.584 5.324-7.107 1.701-16.801 2.717-27.166 3.365 2.775-3.125 6.717-7.66 10.809-12.678 3.811-4.684 7.713-9.754 10.967-14.523 3.244-4.811 5.852-9.232 6.975-12.998 0.35-1.215 0.475-2.518 0.475-3.814 0-4.078-1.381-8.457-3.377-13.006-3.037-6.846-7.459-14-11.268-20.156-1.91-3.033-3.641-5.85-4.943-8.145-1.303-2.301-2.119-4.205-2.252-4.945-0.307-1.344-0.865-2.9-1.736-4.941-3.033-7.064-9.363-19.197-14.951-29.602-3.855-7.234-7.383-13.625-9.17-16.85l23.379-12.074c12.607-6.494 21.111-10.91 21.111-10.91l-2.209-4.289-0.035 0.018-4e-3 -0.018s-3.166 1.645-8.512 4.42l-13.902 7.178c-7.121 3.668-15.455 7.957-24.268 12.457l-2.258 1.131 0.047 0.074c-28.105 14.34-60.871 30.668-73.256 35.809-22.373 9.332-54.611 15.738-80.783 15.738h-0.268c-1.904 0-3.811 0-5.635-0.092-14.777-0.516-30.514-6.498-42.473-12.391-5.982-2.908-11.01-5.855-14.566-8.02-1.777-1.088-3.16-1.953-4.113-2.602-0.09-0.061-0.18-0.123-0.266-0.178l4.553-51.184-4.764-0.434-4.854 54.006-7.459 83.217 0.217 0.521c0 0.041 1.299 3.207 3.207 8.234 2.906 7.496 7.195 19.072 10.793 29.949 1.82 5.465 3.426 10.709 4.549 15.215 1.176 4.42 1.867 8.191 1.824 10.186l-0.01 0.232c-0.668-0.17-1.391-0.297-2.201-0.406-3.855-0.607-9.885-0.781-17.166-0.781-24.135 0-62.121 2.352-74.448 3.16l23.086-51.963-6.937-98.477v-0.043l-2.018-25.664c0.143-1.246 0.245-2.031 0.245-2.68 0-0.914-0.175-2.992-0.437-5.941-0.781-8.799-2.381-24.141-2.381-24.141l-4.768 0.434 0.01 0.084h-0.01s0.01 0.104 0.027 0.287l2.483 31.877c-0.649 5.201-2.295 16.254-3.81 26.002-1.326 8.783-2.518 16.471-2.736 17.92l-19.33 45.318 7.326 27.264-81.004-18.854 8.981-21.574c0.522-0.926 14.364-24.686 20.446-36.811 0.521-1.08 0.82-2.295 1.123-3.814 0.781-4.463 1.086-11.484 1.086-20.193 0-38.623-6.025-109.79-6.025-109.84l-0.084-0.734-150.01-184.95-41.606-2.211-21.07 61.07-0.037 0.215c0 0.049-10.233 69.436-12.267 130.81-0.525 14.912-4.42 25.574-10.533 33.377-9.106 11.744-23.408 17.42-39.313 20.5-15.948 3.033-33.246 3.424-47.938 4.984-3.294 0.346-6.501 0.52-9.577 0.52m40.22-657.17l-11.009 18.337-20.717 128.21-25.434 199.38c-3.786 3.902-25.138 26.195-46.777 54.521-11.88 15.559-23.882 32.983-33.072 50.191-9.143 17.209-15.557 34.197-16.122 49.238-0.348 10.445-0.649 20.938-0.649 31.209 0 19.762 1.123 38.705 5.154 54.918 4.031 16.164 11.053 29.732 23.017 38.266 13.046 9.322 25.702 18.682 39.486 25.793 13.78 7.107 28.651 11.918 45.902 11.918 3.245 0 6.631-0.174 10.092-0.564 19.208-2.037 43.823-1.947 64.282-9.273 10.229-3.684 19.461-9.275 26.266-17.984 6.807-8.758 11.01-20.549 11.527-36.195 1.045-30.514 4.074-63.105 6.895-88.031 1.384-12.482 2.729-23.055 3.684-30.467 0.889-6.645 1.5-10.77 1.622-11.621l19.706-57.123 35.883 1.863 147.74 182.17c0.131 1.58 0.461 5.459 0.885 10.922 1.688 21.84 5.07 69.086 5.07 97.738 0 5.717-0.133 10.703-0.434 14.518-0.174 1.951-0.348 3.555-0.564 4.811-0.258 1.256-0.517 2.17-0.695 2.516-3.029 6.025-8.104 15.211-12.436 22.84-4.336 7.627-7.891 13.74-7.891 13.74l-0.086 0.129-11.353 27.262 94.353 21.936-8.969-33.42 18.939-44.383 0.047-0.258s1.688-11.053 3.423-22.453c0.029-0.219 0.066-0.436 0.094-0.654l0.339 4.295 2.428-0.174 2.379-0.217-2.379 0.217-2.428 0.174 6.848 97.264-25.832 58.162 3.988-0.258s3.078-0.217 8.15-0.564c15.166-0.951 48.328-2.859 69.951-2.859 4.77 0 9.016 0.09 12.312 0.307 1.646 0.084 3.029 0.258 4.158 0.432 1.082 0.127 1.91 0.348 2.258 0.475 0.475 0.217 1.035 0.348 1.646 0.348 0.691 0 1.473-0.215 2.035-0.648 0.908-0.697 1.303-1.562 1.52-2.342 0.215-0.781 0.301-1.562 0.301-2.428-0.047-3.812-1.387-9.49-3.34-16.254-5.342-18.539-15.559-44.475-17.193-48.559l7.129-79.461c3.557 2.27 9.67 5.957 17.309 9.693 12.303 6.021 28.473 12.264 44.424 12.871 1.904 0.088 3.814 0.088 5.805 0.088 26.963 0 59.686-6.414 82.877-16.078 12.783-5.324 45.576-21.709 73.789-36.068 0.684 1.242 1.643 2.977 2.795 5.074 3.602 6.547 9.02 16.518 13.656 25.576 2.338 4.504 4.461 8.799 6.111 12.307 1.604 3.424 2.686 6.24 2.857 7.154 0.262 1.299 0.824 2.553 1.562 4.072 2.555 5.07 7.629 12.57 12.092 20.326 2.258 3.857 4.289 7.803 5.766 11.443 1.516 3.641 2.385 6.979 2.342 9.496 0 0.949-0.088 1.771-0.305 2.469-0.781 2.773-3.166 7.021-6.326 11.617-4.684 6.932-11.014 14.691-16.17 20.717-2.557 3.031-4.854 5.592-6.461 7.41-1.645 1.82-2.596 2.902-2.643 2.902l-3.988 4.336 5.896-0.301c11.975-0.588 23.553-1.566 32.385-3.5-0.85 4.271-1.564 7.902-1.787 9.045-0.432 2.385-1.514 5.07-2.641 7.889-1.125 2.82-2.344 5.723-2.902 8.756l-0.607 3.207 3.25-0.348s4.42-0.518 11.441-1.256c21.066-2.254 65.623-6.764 83.047-6.764 1.693 0 3.076 0.047 4.158 0.131 1.086 0.092 1.867 0.219 1.955 0.307 0.434 0.129 0.91 0.26 1.473 0.26 0.432 0 0.992-0.09 1.473-0.391 0.781-0.391 1.299-1.082 1.516-1.693 0.221-0.607 0.262-1.123 0.262-1.646 0-1.514-0.432-3.117-1.129-5.07-2.295-6.762-7.797-17.598-12.74-26.914-4.09-7.715-7.826-14.27-8.988-16.324l4.51-107.62c0.814-2.793 8.32-29.596 15.836-60.871 3.988-16.512 7.973-34.285 10.963-50.406 2.992-16.17 4.986-30.646 4.986-40.832 0-2.602-0.129-4.939-0.434-6.98-2.299-15.73-5.201-30.34-11.443-44.033-6.283-13.744-15.951-26.525-31.51-38.576-30.729-23.796-69.088-48.417-103.25-59.295-8.494-2.686-20.584-3.683-34.459-3.683-22.057 0-48.545 2.602-71.166 5.809-11.316 1.604-21.629 3.334-29.996 4.986-8.248 1.631-14.5 3.137-18.025 4.388l-8e-3 -0.015h-0.125c-0.023 5e-3 -0.043 5e-3 -0.066 5e-3 -0.682 0-2.762-0.611-5.441-1.995-10.66-5.291-31.643-20.457-56.822-40.092-37.793-29.433-85.299-69.094-123.66-101.55-19.156-16.254-36.021-30.688-48.24-41.18-6.113-5.197-11.053-9.49-14.521-12.481-1.732-1.472-3.123-2.644-4.074-3.509-0.516-0.391-0.912-0.739-1.17-0.998l-0.627-0.461 0.02-0.018c-0.085-0.042-0.781-0.865-1.514-1.995-2.691-4.03-7.327-12.392-11.269-19.677-1.995-3.598-3.773-6.974-5.075-9.448-0.768-1.411-1.35-2.521-1.707-3.216l25.762-98.553c0.043-0.131 0.865-3.682 0.914-8.324-0.049-3.984-0.611-8.752-3.17-12.83-1.299-2.032-3.117-3.856-5.545-5.112-2.428-1.255-5.375-1.952-8.932-1.952h-0.996c-0.692 0.048-1.167 0.217-1.689 0.433-1.772 0.828-3.814 2.39-6.588 4.685-9.449 7.977-25.92 24.616-40.047 39.313-11.042 11.48-20.633 21.747-24.357 25.726-3.73-3.316-13.018-11.095-26.14-18.878-17.203-10.182-41.134-20.5-67.831-20.5-7.635 0-15.469 0.856-23.465 2.756-0.318-0.216-0.781-0.55-1.326-0.978-3.121-2.558-9.189-8.192-16.343-15.087-10.745-10.403-24.14-23.75-34.807-34.501-5.329-5.418-10.009-10.14-13.348-13.521s-5.286-5.418-5.333-5.418l-2.165-2.219" fill="#665A35"/>
<path d="m270.84 269.28c0 54.061-38.338 97.888-85.65 97.888-47.313 0-85.651-43.827-85.651-97.888 0-54.066 38.338-97.895 85.651-97.895 47.312 0 85.65 43.828 85.65 97.895z" fill="#fff"/>
<path d="m270.84 269.28h-2.407c7e-3 26.459-9.388 50.373-24.483 67.629-15.115 17.265-35.865 27.846-58.76 27.851-22.894-5e-3 -43.644-10.586-58.755-27.851-15.102-17.256-24.494-41.17-24.489-67.629-5e-3 -26.464 9.387-50.38 24.489-67.635 15.111-17.265 35.861-27.847 58.755-27.852 22.895 5e-3 43.645 10.587 58.76 27.852 15.096 17.255 24.49 41.17 24.483 67.635h4.815c0-27.602-9.78-52.638-25.678-70.81-15.887-18.168-37.963-29.498-62.381-29.493-24.413-5e-3 -46.495 11.324-62.381 29.493-15.896 18.172-25.678 43.208-25.678 70.81s9.782 52.631 25.678 70.804c15.887 18.167 37.968 29.497 62.381 29.492 24.418 5e-3 46.494-11.325 62.381-29.492 15.897-18.173 25.678-43.203 25.678-70.804h-2.408z"/>
<path d="m416.14 296.81c0 54.061-38.34 97.89-85.65 97.89-47.305 0-85.653-43.829-85.653-97.89 0-54.066 38.349-97.893 85.653-97.893 47.31 0 85.65 43.828 85.65 97.893z" fill="#fff"/>
<path d="m416.14 296.81h-2.408c6e-3 26.459-9.388 50.375-24.482 67.63-15.117 17.264-35.866 27.847-58.76 27.852-22.896-5e-3 -43.641-10.588-58.756-27.852-15.103-17.255-24.494-41.17-24.489-67.63-5e-3 -26.464 9.387-50.378 24.489-67.635 15.115-17.265 35.859-27.846 58.756-27.851 22.894 5e-3 43.643 10.586 58.76 27.851 15.095 17.256 24.488 41.17 24.482 67.635h4.816c0-27.602-9.781-52.636-25.68-70.809-15.887-18.167-37.961-29.497-62.379-29.492-24.41-5e-3 -46.496 11.325-62.383 29.492-15.896 18.173-25.678 43.207-25.678 70.809s9.781 52.631 25.678 70.804c15.887 18.168 37.973 29.499 62.383 29.494 24.418 5e-3 46.492-11.325 62.379-29.494 15.898-18.173 25.68-43.202 25.68-70.804h-2.408z"/>
<path d="m339.67 289.93c0 8.023-6.511 14.532-14.533 14.532-8.023 0-14.533-6.509-14.533-14.532s6.51-14.532 14.533-14.532c8.022 0 14.533 6.509 14.533 14.532z"/>
<path d="m171.42 260.86c0 8.023-6.5 14.532-14.522 14.532-8.024 0-14.533-6.509-14.533-14.532 0-8.025 6.509-14.529 14.533-14.529 8.023 0 14.522 6.504 14.522 14.529z"/>
<path d="m206.27 597.97c10.244 14.484 8.758 33.143-3.311 41.678-12.059 8.539-30.156 3.715-40.399-10.766-10.244-14.48-8.757-33.143 3.311-41.684 12.06-8.535 30.157-3.715 40.399 10.772z"/>
<path d="m278.48 94.916s65.777-5e-3 84.129 24.47c18.35 24.47-73.414 48.939-73.414 48.939l-12.239-1.524-12.237 15.294-16.826-41.301-9.182-9.175s1.533-26.003 7.647-29.061c6.124-3.057 32.122-7.642 32.122-7.642z"/>
<path d="m472.74 235.62l-1.533 73.419 13.77-22.945s-3.057 104.01 1.523 117.78c4.59 13.765 19.885 24.469 19.885 24.469l-3.057-113.18s13.77 96.362 16.826 108.59c3.057 12.237 15.295 24.476 15.295 24.476l-21.418-143.77s29.066 110.13 33.656 126.95l4.59 16.824 3.057-52.006 10.704 58.13 9.181-52.007 27.531 25.998-1.533-27.531s10.715 26.007 12.238 33.654c1.533 7.647 12.236-29.064 12.236-29.064l1.533-42.827-154.48-126.96z"/>
<polygon points="191.82 111.23 226.48 101.03 193.85 62.281"/>
<polygon points="395.75 138.76 419.21 154.06 431.44 104.09"/>
<path d="m949.19 455.88s-4.834-80.549 19.641-98.905c24.465-18.353 59.135-39.77 86.666-30.589 27.533 9.175 94.834 56.083 98.906 92.791 4.082 36.711-12.238 113.19-18.352 143.78-6.123 30.59-25.488 69.334-14.27 81.57 11.203 12.236 27.531 14.273 27.531 14.273s-60.17 8.16-70.355-2.037c-10.207-10.195-27.543-61.184-25.5-92.789 2.039-31.609 9.18-92.791 4.082-105.03-5.1-12.238-18.352-56.09-33.646-54.048-15.295 2.042-47.934 67.047-47.934 70.104s-26.769-19.122-26.769-19.122z"/>
<path d="m716.95 425.04l8e-3 87.946s18.354 72.4 40.787 77.498c22.432 5.1 63.217 3.066 96.873-29.568 21.277-20.637 16.318-68.322 15.295-95.852-1.025-27.533-7.139-54.044-7.139-54.044s-53.023-3.062-74.432 0c-21.417 3.061-71.392 14.02-71.392 14.02z" fill="#fa0"/>
<path d="m716.95 425.04h-2.408l0.01 88.249 0.07 0.291c0.014 0.057 4.619 18.219 12.078 37.125 3.734 9.463 8.174 19.105 13.191 26.832 5.043 7.684 10.562 13.68 17.32 15.295 5.855 1.33 12.854 2.182 20.629 2.182 22.984 4e-3 52.793-7.479 78.451-32.367 7.328-7.121 11.588-17.025 14.072-27.965 2.477-10.951 3.178-23.012 3.184-34.67-6e-3 -12.891-0.871-25.293-1.232-35.039-1.035-27.818-7.182-54.413-7.199-54.494l-0.406-1.759-1.801-0.103c-0.021 0-23.609-1.364-45.756-1.364-11.084 0-21.775 0.334-29.154 1.383-21.613 3.094-71.527 14.048-71.561 14.053l-1.896 0.413v1.938h2.408l0.518 2.352c0.01 0 3.117-0.683 8.133-1.759 15.025-3.216 47.186-9.957 63.082-12.227 6.895-0.993 17.502-1.341 28.471-1.336 10.977 0 22.359 0.339 30.984 0.678s14.48 0.676 14.494 0.676l0.143-2.403-2.354 0.541c6e-3 5e-3 0.377 1.619 0.961 4.511 1.758 8.667 5.371 28.651 6.123 49.081 0.365 9.867 1.229 22.179 1.229 34.859 0 11.457-0.711 23.205-3.068 33.604-2.355 10.412-6.354 19.404-12.727 25.57-24.639 23.896-53.115 31.002-75.098 31.012-7.416 0-14.086-0.818-19.561-2.059-4.459-0.938-9.646-5.902-14.354-13.225-7.109-10.928-13.328-26.627-17.697-39.525-2.188-6.449-3.928-12.209-5.113-16.35-0.598-2.072-1.053-3.738-1.361-4.881-0.307-1.146-0.463-1.758-0.463-1.764l-2.334 0.592h2.408l-8e-3 -87.946h-2.408l0.518 2.352-0.518-2.353z"/>
<path d="m791.4 593.54h-2.408v16.318h2.408l-1.674-1.734c-0.039 0.037-5.793 5.572-11.617 12.6-2.906 3.518-5.83 7.408-8.08 11.227-2.223 3.842-3.865 7.562-3.904 11.189 0 1.117 0.18 2.238 0.604 3.301 0.471 1.18 1.32 2.111 2.285 2.77 2.926 1.934 6.898 2.328 11.721 2.375 9.115-0.01 21.205-2.027 31.125-4.025 9.914-2.004 17.588-4.002 17.615-4.008l2.119-0.551-0.34-2.154c-0.057-0.168-1.918-12.604-8.588-21.938-2.502-3.396-6.357-5.037-9.633-6.529-1.645-0.729-3.17-1.391-4.297-2.039-1.148-0.646-1.807-1.285-1.971-1.625-3.457-6.301-3.814-13.168-3.801-15.35l6e-3 -0.545 8e-3 -0.146 0.16-2.846-14.146 1.553v2.158h2.408l0.264 2.395 9.17-1.008-0.264-2.393-2.398-0.141c-4e-3 0.041-0.023 0.385-0.023 0.973 0.01 2.635 0.34 10.195 4.389 17.654 0.922 1.646 2.334 2.639 3.801 3.494 2.225 1.266 4.807 2.23 7.121 3.365 2.322 1.117 4.283 2.402 5.299 3.84 2.879 3.988 4.859 9.004 6.072 12.996 0.602 1.994 1.025 3.732 1.289 4.967 0.135 0.611 0.23 1.1 0.291 1.43l0.084 0.479 2.381-0.371-0.611-2.334c0 6e-3 -1.883 0.494-5.006 1.234-9.33 2.229-29.836 6.668-42.523 6.648-2.945 6e-3 -5.455-0.248-7.139-0.732-0.848-0.236-1.467-0.527-1.846-0.785l-0.549-0.598c-0.16-0.4-0.26-0.889-0.26-1.514-0.031-2.023 1.188-5.287 3.246-8.748 3.057-5.221 7.807-10.982 11.768-15.369 1.98-2.197 3.762-4.064 5.051-5.371 0.645-0.66 1.166-1.172 1.52-1.525l0.539-0.529 0.744-0.711v-17.346h-2.41l0.264 2.395-0.264-2.396z"/>
<path d="m276.6 473.67c0.014 0.01 18.51 12.896 39.721 26.436 10.602 6.773 21.879 13.705 31.893 19.287 10.041 5.582 18.676 9.812 24.545 11.232 13.563 3.221 52.9 13.957 89.236 13.967 20.819-0.023 40.812-3.475 54.564-14.43 8.701-6.969 24.926-17.137 44.283-28.367 29.055-16.861 65.242-36.223 94.443-51.551 14.602-7.661 27.457-14.32 36.805-19.156 4.676-2.418 8.477-4.384 11.18-5.794 1.354-0.705 2.436-1.27 3.227-1.688l0.959-0.517 0.631-0.373-2.672-4.006 0.074 0.113-0.064-0.118-0.01 5e-3 0.074 0.113-0.064-0.118c-0.213 0.125-1.148 0.629-2.531 1.354-10.525 5.521-49.494 25.42-89.969 47.247-20.242 10.92-40.865 22.32-58.525 32.672-17.674 10.357-32.336 19.621-40.85 26.422-12.242 9.85-31.242 13.395-51.555 13.375-35.461 6e-3 -74.459-10.576-88.121-13.836-4.836-1.129-13.475-5.248-23.314-10.75-14.814-8.264-32.639-19.641-46.738-28.943-7.05-4.652-13.168-8.785-17.523-11.758-4.359-2.967-6.941-4.766-6.945-4.768l-2.754 3.95z" fill="#FFA300"/>
<path d="m136.75 374.3s-69.482 87.391-73.414 97.889c-15.295 40.793-21.418 90.758-15.295 119.31 2.7 12.615 20.384 47.928 20.384 47.928l19.376 12.238s-18.352-64.232-14.279-91.766c4.083-27.531 28.548-80.568 34.671-96.878 6.115-16.314 28.557-88.718 28.557-88.718z" fill="#C18D76"/>
<path d="m268.69 500.46c0.024 0.025 19.427 18.154 42.586 36.703 11.579 9.275 24.089 18.658 35.635 25.951 11.583 7.281 22.044 12.545 30.245 13.438 17.861 1.85 50.059 5.957 79.604 5.963 19.274-0.018 37.399-1.703 50.078-7.162 7.836-3.4 21.354-10.609 37.549-19.861 24.287-13.865 54.498-32.271 79.826-48.959 12.666-8.348 24.107-16.258 32.994-22.979 4.445-3.363 8.254-6.424 11.273-9.115 3.029-2.703 5.26-4.98 6.633-7.029 6.039-9.065 14.809-20.378 22.053-29.396 3.621-4.509 6.861-8.451 9.203-11.259 2.334-2.812 3.754-4.487 3.754-4.492l-3.668-3.112c-0.029 0.037-22.971 27.022-35.35 45.586-1.221 1.872-4.42 5.045-8.973 8.807-15.996 13.287-48.752 34.836-80.738 54.42-31.971 19.58-63.371 37.305-76.471 42.967-11.455 4.99-29.201 6.783-48.164 6.77-29.13 0-61.158-4.078-79.109-5.936-6.585-0.635-16.898-5.568-28.166-12.723-16.961-10.707-36.379-26.258-51.514-39.105-7.566-6.428-14.07-12.182-18.68-16.324-2.305-2.07-4.133-3.738-5.387-4.891-1.255-1.152-1.926-1.777-1.926-1.777l-3.287 3.515z" fill="#FFA300"/>
<path d="m74.542 441.61s175.19 45.501 192.22 59.14c2.548 2.045 12.745-39.255 12.745-39.255s-159.08-74.948-175.39-59.654c-16.319 15.294-29.582 39.769-29.582 39.769z" fill="#FFA300"/>
<path d="m74.542 441.61l-0.602 2.333c0.01 0 2.728 0.705 7.553 1.976 16.869 4.449 59.295 15.75 99.342 27.423 20.02 5.842 39.449 11.771 54.766 16.973 7.652 2.602 14.279 5.023 19.415 7.145 5.116 2.098 8.813 3.998 10.242 5.174 0.405 0.338 1.073 0.609 1.704 0.602 0.809-0.01 1.362-0.326 1.711-0.578 0.678-0.521 0.959-0.994 1.295-1.52 1.133-1.92 2.261-5.057 3.559-9.016 3.811-11.781 8.311-30.02 8.314-30.048l0.477-1.915-1.783-0.841c-0.018-9e-3 -32.789-15.45-70.15-30.904-18.69-7.728-38.518-15.458-56.008-21.272-17.529-5.809-32.569-9.74-42.295-9.768-1.993 5e-3 -3.79 0.169-5.399 0.573-1.599 0.405-3.047 1.054-4.209 2.14-16.72 15.708-29.974 40.273-30.048 40.376l-1.468 2.704 2.982 0.776 0.602-2.333 2.116 1.148c5e-3 0 0.199-0.358 0.583-1.044 2.69-4.797 14.617-25.1 28.529-38.114 0.348-0.339 1.02-0.715 2.097-0.983 1.063-0.273 2.493-0.428 4.213-0.428 8.499-0.029 23.497 3.757 40.776 9.519 25.979 8.635 57.415 21.634 82.323 32.47 12.457 5.413 23.289 10.289 31.002 13.812 7.713 3.519 12.284 5.677 12.303 5.681l1.025-2.177-2.342-0.578c0 9e-3 -0.602 2.445-1.553 6.119-1.43 5.512-3.639 13.789-5.737 20.637-1.052 3.424-2.079 6.494-2.935 8.627-0.43 1.057-0.818 1.885-1.081 2.322l-0.155 0.234-0.033 0.047 0.838 0.748-0.598-0.941-0.24 0.193 0.838 0.748-0.598-0.941 1.049 1.66v-1.951c-0.523 0-0.875 0.184-1.049 0.291l1.049 1.66v-1.951 2.09l1.311-1.635c-0.281-0.242-0.822-0.469-1.311-0.455v2.09l1.311-1.635c-2.619-2.059-7.246-4.209-13.766-6.818-22.697-9.006-67.441-22.16-106.64-33.114-39.172-10.949-72.714-19.659-72.723-19.664l-0.606 2.333 2.116 1.148-2.116-1.148z" fill="#493A0E"/>
<path d="m739.39 698.57l-101.98-4.078-4.074 35.688s27.531 23.455 50.992 23.455c23.439 0 95.846-18.363 115.22-29.578 19.387-11.211 78.521-45.883 78.521-45.883l-138.67 20.396z" fill="#C18D76"/>
<path d="m346.8 440.58s135.63 156.02 137.66 165.19c2.041 9.18 7.148 139.7 7.148 139.7l-26.515 52.002 40.784 13.256 1.025-39.768s20.383-122.36 13.252-156.01c-7.139-33.654-130.53-164.17-130.53-164.17l-42.825-10.201z" fill="#C18D76"/>
<path d="m863.79 708.76l43.852-20.393s7.139 90.746 4.072 98.904c-3.057 8.166-47.924-78.511-47.924-78.511z" fill="#C18D76"/>
</svg>
