<?xml version="1.0" encoding="UTF-8"?>
<svg width="30mm" height="30mm" version="1.1" viewBox="0 0 106.29921 106.29921" xmlns="http://www.w3.org/2000/svg" xmlns:xlink="http://www.w3.org/1999/xlink">
 <defs>
  <linearGradient id="b">
   <stop stop-color="#543e28" offset="0"/>
   <stop stop-color="#b8916b" offset="1"/>
  </linearGradient>
  <pattern id="ac" xlink:href="#v" patternTransform="scale(1.7946 1.9492)"/>
  <pattern id="v" width="10" height="10" patternTransform="translate(0) scale(10)" patternUnits="userSpaceOnUse">
   <circle cx="2.567" cy=".81" r=".15"/>
   <circle cx="3.048" cy="2.33" r=".15"/>
   <circle cx="4.418" cy="2.415" r=".15"/>
   <circle cx="1.844" cy="3.029" r=".15"/>
   <circle cx="6.08" cy="1.363" r=".15"/>
   <circle cx="5.819" cy="4.413" r=".15"/>
   <circle cx="4.305" cy="4.048" r=".15"/>
   <circle cx="5.541" cy="3.045" r=".15"/>
   <circle cx="4.785" cy="5.527" r=".15"/>
   <circle cx="2.667" cy="5.184" r=".15"/>
   <circle cx="7.965" cy="1.448" r=".15"/>
   <circle cx="7.047" cy="5.049" r=".15"/>
   <circle cx="4.34" cy=".895" r=".15"/>
   <circle cx="7.125" cy=".34" r=".15"/>
   <circle cx="9.553" cy="1.049" r=".15"/>
   <circle cx="7.006" cy="2.689" r=".15"/>
   <circle cx="8.909" cy="2.689" r=".15"/>
   <circle cx="9.315" cy="4.407" r=".15"/>
   <circle cx="7.82" cy="3.87" r=".15"/>
   <circle cx="8.27" cy="5.948" r=".15"/>
   <circle cx="7.973" cy="7.428" r=".15"/>
   <circle cx="9.342" cy="8.072" r=".15"/>
   <circle cx="8.206" cy="9.315" r=".15"/>
   <circle cx="9.682" cy="9.475" r=".15"/>
   <circle cx="9.688" cy="6.186" r=".15"/>
   <circle cx="3.379" cy="6.296" r=".15"/>
   <circle cx="2.871" cy="8.204" r=".15"/>
   <circle cx="4.59" cy="8.719" r=".15"/>
   <circle cx="3.181" cy="9.671" r=".15"/>
   <circle cx="5.734" cy="7.315" r=".15"/>
   <circle cx="6.707" cy="6.513" r=".15"/>
   <circle cx="5.73" cy="9.67" r=".15"/>
   <circle cx="6.535" cy="8.373" r=".15"/>
   <circle cx="4.37" cy="7.154" r=".15"/>
   <circle cx=".622" cy="7.25" r=".15"/>
   <circle cx=".831" cy="5.679" r=".15"/>
   <circle cx="1.257" cy="8.519" r=".15"/>
   <circle cx="1.989" cy="6.877" r=".15"/>
   <circle cx=".374" cy="3.181" r=".15"/>
   <circle cx="1.166" cy="1.664" r=".15"/>
   <circle cx="1.151" cy=".093" r=".15"/>
   <circle cx="1.151" cy="10.093" r=".15"/>
   <circle cx="1.302" cy="4.451" r=".15"/>
   <circle cx="3.047" cy="3.763" r=".15"/>
  </pattern>
  <pattern id="ab" patternTransform="matrix(.040603 -.18983 2.8641 .61262 0 0)" xlink:href="#a"/>
  <pattern id="aa" patternTransform="matrix(-.11116 .44465 -3.153 -.78824 -5.6768 31.375)" xlink:href="#a"/>
  <pattern id="z" patternTransform="matrix(.23113 .34669 -.62404 .41603 -8.5 32.25)" xlink:href="#a"/>
  <pattern id="y" patternTransform="matrix(.215 .19709 -1.267 1.3822 .24242 .10984)" xlink:href="#a"/>
  <pattern id="a" width="3" height="1" patternTransform="translate(0) scale(10)" patternUnits="userSpaceOnUse">
   <rect y="-.5" width="1" height="2"/>
  </pattern>
  <pattern id="x" xlink:href="#u" patternTransform="scale(.81645)"/>
  <pattern id="u" width="10" height="10" patternTransform="translate(0) scale(10)" patternUnits="userSpaceOnUse">
   <circle cx="2.567" cy=".81" r=".45"/>
   <circle cx="3.048" cy="2.33" r=".45"/>
   <circle cx="4.418" cy="2.415" r=".45"/>
   <circle cx="1.844" cy="3.029" r=".45"/>
   <circle cx="6.08" cy="1.363" r=".45"/>
   <circle cx="5.819" cy="4.413" r=".45"/>
   <circle cx="4.305" cy="4.048" r=".45"/>
   <circle cx="5.541" cy="3.045" r=".45"/>
   <circle cx="4.785" cy="5.527" r=".45"/>
   <circle cx="2.667" cy="5.184" r=".45"/>
   <circle cx="7.965" cy="1.448" r=".45"/>
   <circle cx="7.047" cy="5.049" r=".45"/>
   <circle cx="4.34" cy=".895" r=".45"/>
   <circle cx="7.125" cy=".34" r=".45"/>
   <circle cx="9.553" cy="1.049" r=".45"/>
   <circle cx="7.006" cy="2.689" r=".45"/>
   <circle cx="8.909" cy="2.689" r=".45"/>
   <circle cx="9.315" cy="4.407" r=".45"/>
   <circle cx="7.82" cy="3.87" r=".45"/>
   <circle cx="8.27" cy="5.948" r=".45"/>
   <circle cx="7.973" cy="7.428" r=".45"/>
   <circle cx="9.342" cy="8.072" r=".45"/>
   <circle cx="8.206" cy="9.315" r=".45"/>
   <circle cx="9.682" cy="9.475" r=".45"/>
   <circle cx="9.688" cy="6.186" r=".45"/>
   <circle cx="3.379" cy="6.296" r=".45"/>
   <circle cx="2.871" cy="8.204" r=".45"/>
   <circle cx="4.59" cy="8.719" r=".45"/>
   <circle cx="3.181" cy="9.671" r=".45"/>
   <circle cx="5.734" cy="7.315" r=".45"/>
   <circle cx="6.707" cy="6.513" r=".45"/>
   <circle cx="5.73" cy="9.67" r=".45"/>
   <circle cx="6.535" cy="8.373" r=".45"/>
   <circle cx="4.37" cy="7.154" r=".45"/>
   <circle cx=".622" cy="7.25" r=".45"/>
   <circle cx=".831" cy="5.679" r=".45"/>
   <circle cx="1.257" cy="8.519" r=".45"/>
   <circle cx="1.989" cy="6.877" r=".45"/>
   <circle cx=".374" cy="3.181" r=".45"/>
   <circle cx="1.166" cy="1.664" r=".45"/>
   <circle cx="1.151" cy=".093" r=".45"/>
   <circle cx="1.151" cy="10.093" r=".45"/>
   <circle cx="1.302" cy="4.451" r=".45"/>
   <circle cx="3.047" cy="3.763" r=".45"/>
  </pattern>
  <radialGradient id="ad" cx="33.524" cy="19.844" r="49.745" gradientTransform="matrix(2.5709 .0038115 -.00097897 .66034 -52.644 11.783)" gradientUnits="userSpaceOnUse">
   <stop stop-color="#d9c8b8" offset="0"/>
   <stop stop-color="#d3b998" offset=".47755"/>
   <stop stop-color="#d3b998" offset=".75504"/>
   <stop stop-color="#caad90" offset="1"/>
  </radialGradient>
  <radialGradient id="q" cx="72.957" cy="24.982" r="3.9517" gradientTransform="matrix(1 0 0 1.9568 8.8034e-6 -21.784)" gradientUnits="userSpaceOnUse" xlink:href="#b"/>
  <radialGradient id="r" cx="86.625" cy="25.083" r="7.1325" gradientTransform="matrix(.51913 .2334 -.7182 1.5974 59.67 -34.799)" gradientUnits="userSpaceOnUse" xlink:href="#b"/>
  <linearGradient id="w" x1="32.169" x2="30.431" y1="73.664" y2="84.89" gradientUnits="userSpaceOnUse">
   <stop stop-color="#755738" offset="0"/>
   <stop stop-color="#b9936d" offset="1"/>
  </linearGradient>
  <radialGradient id="s" cx="107.99" cy="91.714" r="13.563" gradientTransform="matrix(.8583 -.51314 .36495 .61042 -65.51 72.042)" gradientUnits="userSpaceOnUse">
   <stop stop-color="#755738" offset="0"/>
   <stop stop-color="#997754" offset=".5409"/>
   <stop stop-color="#caad90" offset="1"/>
  </radialGradient>
  <radialGradient id="t" cx="119.5" cy="68.711" r="2.3399" gradientTransform="matrix(2.1626 .021659 -.026303 2.6263 -166.19 -119.52)" gradientUnits="userSpaceOnUse">
   <stop stop-color="#332618" offset="0"/>
   <stop stop-color="#b8916b" offset="1"/>
  </radialGradient>
 </defs>
 <path d="m25.438 70.924 0.25 7.875 1.75 3.5625c-0.74228 2.0304-0.88173 4.2616-0.625 6.625 0.23093 1.8697 1.1951 1.5397 1.875 2.0625 1.8926-0.11333 2.8931 0.63171 4.9375-1 1.5618 0.7387 3.1485 1.1528 4.875-0.25 1.1618-1.3953 0.34985-2.5713 0.125-3.8125-1.7579-2.2495-3.1203-1.9279-4.5625-2.125 0.7487-2.1752-0.40158-3.8079-0.6875-5.6875l0.3125-4.9375c-2.8439-0.01968-5.5722-0.96432-8.25-2.3125z" fill="url(#w)" fill-rule="evenodd" stroke="#f60" stroke-width=".14173"/>
 <path d="m25.408 70.833 0.25 7.875 1.75 3.5625c-0.74228 2.0304-0.88173 4.2616-0.625 6.625 1.6009-1.2239 2.2999-2.04 3.5102-2.4453 1.8926-0.11334 2.0534 0.85268 3.3465 1.0771 0.23594-0.32196 0.93879-1.1453 1.693-1.62 1.1618-1.3953 3.4876 1.2294 3.2628-0.0118-1.7579-2.2495-3.1203-1.9279-4.5625-2.125 0.7487-2.1752-0.40158-3.8079-0.6875-5.6875l0.3125-4.9375c-2.8439-0.0197-5.5722-0.96432-8.25-2.3125z" fill="url(#y)" fill-rule="evenodd" opacity=".282" stroke="#f00" stroke-width=".14173"/>
 <path d="m26.445 70.738-1.7715 0.05273s0.13149 4.5772 0.45117 7.4629c0.14706 1.3275 1.0087 2.2505 1.3058 3.1524 0.29712 0.90183 0.04833 1.7535-0.13787 2.7285-0.24032 1.2583-0.2525 3.0437-0.19336 4.2188 0.08225 1.6341 0.6786 2.7509 2.1184 3.4102 2.4437 1.1189 5.1513-0.70759 5.5269-0.92458 0.39373 0.25241 1.2082 0.5393 2.1539 0.52655 1.1745-0.01583 2.0545-0.31291 2.8606-0.86602 0.69152-0.47453 0.78112-1.1308 0.90079-1.8512 0.11968-0.72035-0.05121-1.4902-0.30469-2.2297-0.45419-1.325-1.492-1.8329-2.5762-2.4414-0.84619-0.47491-1.5636-0.64788-1.8719-0.77344-0.0641-0.27897 0.04606-0.98555-0.15353-2.0437-0.24206-1.2834-0.47456-2.841-0.4707-3.7109 0.0024-0.53781 0.16824-1.6336 0.3418-2.5332s0.3457-1.6309 0.3457-1.6309l-1.7227-0.4082s-0.18213 0.76418-0.36328 1.7031c-0.18115 0.93894-0.36936 2.0256-0.37305 2.8613-0.0051 1.1626 0.61124 2.6095 0.85818 3.9356 0.17775 0.95452 0.03081 2.0137 0.25119 2.959 0.84728 0.33527 1.7436 0.40759 2.3801 0.7633 0.95695 0.53482 2.2041 1.6336 2.4578 1.8715 0.41898 0.39279 0.23256 1.2107 0.16563 1.4535-0.22458 0.81465-1.1525 0.80942-1.7554 1.0563-0.3675 0.15044-0.88352 0.12948-1.3574 0.16016-0.68566 0.04439-1.3713 0.02083-2.0566-0.0019-1.5687 0.35708-2.893 1.1624-4.1426 0.62695-1.0902-0.46716-1.3864-0.86806-1.4434-2-0.05301-1.0531-0.01413-2.8638 0.16406-3.7969 0.26018-1.3623-0.01395-2.5108-0.3418-3.5059-0.32785-0.99509-1.0257-1.7554-1.1406-2.793-0.30259-2.7315-0.10549-7.4316-0.10549-7.4316z" color="#000000" color-rendering="auto" fill="#312012" fill-rule="evenodd" image-rendering="auto" shape-rendering="auto" solid-color="#000000" style="block-progression:tb;isolation:auto;mix-blend-mode:normal;text-decoration-color:#000000;text-decoration-line:none;text-decoration-style:solid;text-indent:0;text-transform:none;white-space:normal"/>
 <path d="m27.75 89.107c-0.01328-0.41715 1.0927-1.9808 2.1292-2.1352 1.5929-0.23731 3.5336-0.04561 3.4951 1.8926-0.02923 1.4696-2.0775 1.2836-3.2942 1.2617-1.2337-0.02213-2.2899 0.24264-2.3301-1.0191z" fill="#f7f5eb" fill-rule="evenodd" stroke="#dad2a5" stroke-width="1.4173"/>
 <path d="m33.59 88.843c-0.10241-0.4144 0.48376-2.1531 1.32-2.4735 1.2851-0.49237 2.956-0.61213 3.3477 1.3294 0.297 1.472-1.4629 1.6148-2.4889 1.7881-1.0403 0.17572-1.8689 0.60944-2.1787-0.64397z" fill="#f7f5eb" fill-rule="evenodd" stroke="#dad2a5" stroke-width="1.4173"/>
 <path d="m82.438 26.362 3.25-2.3125 2.1875-1 0.75-3 0.375-2.25 3-2.75c1.4792-0.50473 2.9583-0.44337 4.4375-1.6875l-1.25 3.6875c-0.16024 0.88848-1.6636 0.70245-2.5625 1l-1.125 6.125c-1.6116 2.0361-3.4212 3.846-6.1875 4.5625z" fill="url(#r)" fill-rule="evenodd" stroke="#f60" stroke-width=".14173"/>
 <path d="m82.307 26.432 3.25-2.3125 2.1875-1 0.75-3 0.375-2.25 3-2.75c1.4792-0.50473 2.9583-0.44337 4.4375-1.6875l-1.25 3.6875c-0.16024 0.88848-1.6636 0.70245-2.5625 1l-1.125 6.125c-1.6116 2.0361-3.4212 3.846-6.1875 4.5625z" fill="url(#aa)" fill-rule="evenodd" opacity=".295" stroke="#f60" stroke-width=".14173"/>
 <path d="m80.188 23.612 8.6875-5.5c-0.34863 1.5874-0.41073 4.4642-1.0625 4.6875l-3.75 2.3125-1.5 1.5625c-1.4291-0.62247-2.2788-1.607-2.375-3.0625z" fill="#b8916b" fill-rule="evenodd" stroke="#f60" stroke-width=".14173"/>
 <path d="m95.148 13.605c-0.80588 0.42075-1.5999 0.7874-3.0156 1.1328-1.7435 0.42538-2.3644 1.6859-3.748 2.9531-2.4955 2.2856-6.4414 3.7999-8.6797 5.291l0.98242 1.4746c3.0442-2.3007 5.2977-3.931 7.6973-5.4297-0.08851 1.1356-0.16246 2.5189-0.68164 3.2617-0.49857 0.71333-1.4493 0.91863-2.5801 1.5547-1.1326 0.63705-2.7904 1.1178-3.2578 2.3984l1.2949 0.5c0.28387-0.77778 1.3078-1.3831 2.4531-2.0273s2.475-1.3463 2.7559-1.998c0.49866-1.1571 0.50106-3.1053 1.0664-4.502 0.81411-0.86342 2.0737-2.2407 2.5352-2.6465 1.0053-0.88391 2.4813-0.83559 3.6656-1.0512-0.12367 0.49952-0.91407 2.8156-1.3433 2.8129-0.63959-4e-3 -1.7406 0.0065-1.9434 0.68555-0.26748 0.8956-0.2524 1.794-0.45117 2.6074-0.31238 1.2783-0.84232 2.7703-1.3145 3.3789-0.5567 0.71766-2.044 1.8344-3.3477 2.6738s-2.4316 1.4531-2.4316 1.4531l0.84766 1.5566s1.1803-0.64077 2.5449-1.5195c1.3647-0.87876 2.3034-1.896 3.1855-3.0332 0.84561-1.0901 1.232-2.718 1.5684-4.0879 0.26808-1.0917-0.07602-1.8001 0.11133-2.6094 0.44891-0.55884 1.8369-0.19514 2.25-0.6543 0.81861-0.9099 0.80206-2.076 1.0996-3.1543 0.3434-1.2445 1.1492-1.6537 0.54492-1.9648-0.71312-0.36724-1.3207 0.68004-1.8086 0.94336z" color="#000000" color-rendering="auto" fill="#2a190a" fill-rule="evenodd" image-rendering="auto" shape-rendering="auto" solid-color="#000000" style="block-progression:tb;isolation:auto;mix-blend-mode:normal;text-decoration-color:#000000;text-decoration-line:none;text-decoration-style:solid;text-indent:0;text-transform:none;white-space:normal"/>
 <path d="m86.75 42.112 4-1.875c1.8034-0.52691 3.3664-1.2141 5.625-1.4375l-3.125 5.5625c0.37362 1.2546 0.97019 2.2543 2.5 2.1875 1.7921-2.3233 3.4928-4.809 3.8125-9.75l-2.0625-8.4375c-0.41583-1.3322 0.49306-0.89815 1-1 2.3834 1.8936 3.635 5.4851 5.0625 8.8125 1.0829 3.0628 0.69762 7.2268 0.5 11.25 0.89992 3.5768-1.4664 7.6202-2.6875 11.5-2.2198 1.0048-3.6617-1.6205-5.4375-2.6875-3.811-3.2071-3.7322-5.8307-4.375-8.5625l-1.75 0.4375c-1.1667-0.16992-2.3333-1.507-3.5-2.8125z" fill="#efebd6" fill-rule="evenodd" stroke="#f60" stroke-width=".17717"/>
 <path d="m9 90.799 3-5.125c-1.6372-5.9535-3.4107-11.852-4.25-18.125-2.7282-5.0365-5.7108-9.6981-5.375-19.25-0.35165-5.374 1.5152-9.8606 3.625-14.25 2.211-4.4394 5.7598-8.5577 12.125-12 4.0659 0.29675 7.7523-1.1145 11.5-2.25 4.2275-0.0021 8.312 1.5675 12.375 3.375l13.875-2.375c1.4375-0.06229 3.4631-3.0654 5.375-5.5 3.1962-0.21616 6.1347 0.72723 9 2 3.1608 1.7811 5.8788 5.9239 9.5 5.25l1 2.625 4.875 4.375c0.27624 1.5526 0.59614 3.1096-0.75 4.5-0.5776 1.82-0.45024 3.5958 1.625 5.25l2.125 1.625-2.5 2.375c0.05769 1.2514 0.28923 2.4531 1.5 3.375 1.0651 1.4956 2.4355 1.6686 4 1l2.375 6.75c5.73 5.1997 5.0463 4.3142 6.875 5.3125 0.59552 1.8382 0.12037 2.338 0.125 3.4375 8e-3 1.1578 1.8334 2.1944-0.375 3.5l-1.375 3.375-6.25 0.5c-3.2554 2.2408-5.757-0.04157-8.375-1.625-1.9221 0.63221-3.6031-0.90567-5.375-1.625l-3.25-3.625c1.5343 3.3967-0.30685 5.829-0.875 8.625-3.4954 3.2837-6.212 7.1337-7.875 11.75-0.01916 2.2709-1.54 4.4535 1 6.875 1.4779 2.4907 3.2466 2.3641 4.875 3.5 0.62396 1.3221 1.2866 2.6406 0.125 4.125-1.2441 1.045-2.0316 2.351-5.5 2.125-1.375 0.0767-2.75-0.71556-4.125-1.625-1.9058 1.9421-3.6295 1.5163-5.375 1.375-1.4664-0.30768-1.5011-1.8879-1.5-3.5l2.75-6.25c-0.13086-2.061-1.1648-3.8963-2.625-5.625l2-8.875-1.25-1.25-0.25-2-2.25-0.25-1.125 2.375-3.5 0.625 2.375 6.375c-0.80517 2.9583-2.3134 5.9167-1.75 8.875 0.66305 2.6742 3.3303 3.6671 3.5 5.5 0.24394 1.4738 0.78834 3.0077-1.375 4-1.415 0.76192-3.0575-0.0691-4.625-0.375-3.0417 1.2124-6.0833 1.8111-9.125 0.375-1.8123 0.0452-2.1276-1.2703-2.125-2.875-0.67352-1.6123 1.0296-2.8284 2.25-4.125 1.2432-0.32778 2.4138-0.81899 3-2.625 0.4598-1.6289 0.3588-4.0589-1.5-9-0.54253-3.8141-3.3716-5.8499-5.25-8.625-2.4477 0.41879-5.0113-0.0904-7.625-1-3.875-1.4282-8.0625-4.4522-11.938-7.875 2.0352 3.6744 1.3058 6.9417 1.5625 9.875l-0.6875 5.5 0.8125 3.875 1.625 2.5c0.95394 0.75769 2.0956 0.29521 2.75 3-0.50208 0.93882 0.37931 2.255-1.75 2.75-1.5 1.1805-3 0.47528-4.5 0.0625-1.3252 0.72461-2.9276 2.2073-4.875 1.6875-2.9107-1.0517-1.7099-1.8465-2.25-2.75z" fill="url(#ad)" fill-rule="evenodd" stroke="#f60" stroke-width=".1063"/>
 <path d="m88.633 62.518c2.375-1.5312 3.6562-0.5625 3.6562-0.5625 0.60263 1.0886 0.0635 1.6879 0.0937 2.5312l0.75 1.6562c-0.13941 0.34696-0.2388 0.71393-1.1875 0.65625l-1.8125-0.5c-0.26446 0-1.3308-3.3365-1.5-3.7812z" fill="url(#t)" fill-rule="evenodd" stroke="#dad2a5" stroke-width=".14173"/>
 <path d="m63.294 61.286c-1.7537-0.01989-2.482-0.20387-4.5241-2.2549-0.21573 9.5922-6.6094 5.0263-8.6535 10.941-1.6634 2.353-0.46743 3.9912 0.61872 5.6569l2.6516-0.17678 1.9446-2.6516 2.0329-0.08839c0.18063 1.4326-0.0126 2.9898 1.5026 3.9775 0.7854 0.25463-1.1581 3.9833-0.36154 4.1768 6.4298 2.8268 8.7932-6.0989 13.178-4.7071l2.9168-3.0052c2.3245-3.9892 1.9973-7.4316 1.3258-9.2808l-2.8148-2.0202c-1.2404 0.07587-1.4105 0.94861-4.1212 0.18369-1.6016-0.55613-1.8928-0.89138-3.065-1.7519-1.1258 0.90416-1.1747 0.77753-2.6309 1.0013z" fill="url(#s)" fill-rule="evenodd"/>
 <path d="m32.969 66.171c-5.0087 1.6463-12.404-0.45413-17.766-4.773 0.24962 2.3265 1.038 6.3152 0.69059 9.5464-0.70976 6.6022 0.0051 13.145 1.4307 12.286 0.21796-3.5614-0.58616-6.9185 0.70711-10.695l-0.88388-7.1595 10.076 6.6291c4.2004 1.8387 6.6487 1.7306 8.7504 1.2374-1.1884-3.8785-1.5814-5.5462-3.0052-7.0711z" fill="url(#x)" fill-rule="evenodd" opacity=".297"/>
 <path d="m63.294 61.286c-1.7537-0.01989-2.482-0.20387-4.5241-2.2549-0.21573 9.5922-6.6094 5.0263-8.6535 10.941-1.6634 2.353-0.46743 3.9912 0.61872 5.6569l2.6516-0.17678 1.9445-2.6516 2.0329-0.08839c0.18063 1.4326-0.0126 2.9898 1.5026 3.9775 0.7854 0.25463-1.1581 3.9833-0.36154 4.1768 6.4298 2.8268 8.7932-6.0989 13.178-4.7071l2.9168-3.0052c2.3245-3.9892 1.9973-7.4316 1.3258-9.2808l-2.8148-2.0202c-1.2404 0.07587-1.4105 0.94861-4.1212 0.18369-1.6016-0.55613-1.8928-0.89138-3.065-1.7519-1.1259 0.90416-1.1747 0.77753-2.6309 1.0013z" fill="url(#ac)" fill-rule="evenodd" opacity=".289"/>
 <path d="m63.566 14.648c-0.9571 0.0067-1.9189 0.14185-2.9531 0.42383-2.0557 1.0532-2.8455 3.0756-4.168 4.7129-0.33172 0.30862-0.56538 0.41787-0.91797 0.40039-3.2384-0.16051-7.0926 0.72493-10.326 1.9258-1.8814 0.6987-4.0275 0.0469-6.418-0.91602s-4.937-2.2214-7.6309-2.168c-2.9318 0.05816-6.3695 1.5219-8.7832 1.9746-1.3988 0.26236-2.7716 0.03486-4.4648 0.76953-5.966 2.5885-10.317 7.8229-13.668 13.168-1.9738 3.1485-2.2261 6.9669-2.5352 10.363-0.34883 3.8334-0.23012 7.7956 0.64258 11.59 0.48115 2.0919 1.6531 4.856 2.709 7.1523 1.0187 2.2154 2.0686 3.5539 2.0859 3.6895 0.56898 4.4369 1.0396 9.964 2.9805 12.887 0.11522 2.7891 0.57534 2.9314 0.78125 3.8262 0.2256 0.98036 0.40882 1.9641-0.53516 3.3203-0.61443 0.88278-1.2287 1.5569-1.6562 2.4922-0.21137 0.46242-0.30675 1.0253-0.11133 1.6211 0.35982 1.0969 1.1868 1.8242 2.0762 2.0977 0.88937 0.27348 1.8011 0.18852 2.6289 0.0098 1.4989-0.324 2.5033-1.3287 2.7363-1.457 1.4908 0.33517 3.2997 0.51724 5.0195 0.01758 1.2032-0.34957 1.943-1.4984 1.9258-2.752-0.02306-1.6764-0.50172-3.0531-1.498-3.9648-0.296-0.27087-1.3003-0.12796-1.3496-0.51953-0.10539-0.83746-0.68172-1.684-1.3301-2.082-1.3641-4.0679-0.64099-6.4613-0.2832-8.8164 0.28484-1.8749 8.53e-4 -5.6812-0.86719-8.2676 2.1399 1.9495 6.2088 4.9482 8.9609 6.1953 3.0893 1.3998 6.1966 2.2276 9.1055 1.7578 0.87947 1.5549 1.8352 2.751 2.666 3.998 0.94137 1.4129 1.7766 3.0679 2.3301 6.0957 0.31976 1.7491 1.7028 3.4142 1.75 4.9121 0.04723 1.4979-0.39861 2.4899-1.0508 2.8555-1.2458 0.69827-3.6466 2.4457-4.1719 3.4551-0.54957 1.1883-0.6437 2.4759-0.43164 3.5781 0.2384 0.53031 0.54815 1.1681 1.252 1.5586 1.3182 0.7314 2.981 1.1204 4.3477 1.1582 1.618 0.0447 3.7071-0.41701 6.7891-0.93555 1.2608 0.48258 2.9619 0.74998 4.4336 0.36328 1.067-0.66496 1.6576-1.7408 1.8359-2.8594 0.17008-1.0669-0.21777-2.163-0.81641-3.1367-0.91091-1.4816-2.6406-2.6605-3.0312-4.2109-0.34219-1.3582 0.67713-3.0179 1.0762-4.6562 0.39904-1.6384 0.93969-3.4006 0.72461-5.2656-0.177-1.5349-1.396-3.5417-1.8672-4.7441 0.80286-0.13167 2.1598 0.04979 2.7129-0.41797 0.65129-0.55083 1.046-1.3006 1.3477-2.1055 0.50398-0.15975 0.9074-0.17868 1.1152 0.07617-0.02467 0.43176-0.07478 0.82701 0 1.332 0.08636 0.58321 0.81874 1.0881 1.3926 1.5254-0.21574 2.0913-1.3276 4.2732-1.6543 7.0781-0.20406 1.7521 0.69711 3.0934 1.3047 4.25 0.60151 1.1451 1.5483 2.3988 0.88281 3.623-0.32585 0.59946-0.92234 0.53427-1.4727 1.5664-0.60285 1.1307-1.261 2.4686-1.1621 3.8203 0.05886 0.80488 0.10562 1.6059 0.42578 2.375 0.32016 0.76913 1.017 1.5354 2.0215 1.7129 1.9246 0.34003 3.6065-0.56526 5.4512-1.0234 2.4003 1.3619 4.8229 1.533 7.5098 0.66797 1.4266-0.28626 2.3435-1.4642 2.7266-2.7012 0.38514-1.2437-0.08361-3.4893-0.5-4.1035-0.58716-0.70747-2.9589-2.0133-4.3789-2.5352l-1.3711-1.6777c-0.94206-1.1531-0.25988-3.1628 0.20703-4.875s1.4591-3.6337 2.6426-5.6191c1.2058-2.0229 3.0292-3.6189 4.5332-5.7422 1.1633-1.6423 1.5967-5.5887 1.7578-8.2383 1.0936 2.3893 3.5237 4.1727 6.8164 4.4121 1.5316 0.11136 2.5769 1.9034 4.2031 2.3164 1.6049 0.40756 3.5004 0.34752 5.5469-0.9082 1.7172 0.09685 3.5426 0.43404 5.0645-0.03125 0.78058-0.23865 1.5177-0.65848 2.0391-1.3438 0.42704-0.56129 0.38366-1.4863 0.65625-2.2734 0.1774-0.51222 0.91664-0.91241 1.0801-1.8906 0.16173-0.96797-0.30347-1.5155-1.1133-3.1855 0.68911-0.83944 0.45993-2.3931 0.24414-3.2891-2.6547-0.39156-5.4729-2.4984-7.0781-4.5508-1.6464-2.4315-2.5682-4.5167-2.5898-7.2754-0.69598 0.28396-1.7459 0.6031-2.4023 0.5-0.70967-0.38886-1.8342-0.88462-2.3359-1.5176-0.50172-0.63295-0.62148-2.3929-0.52148-2.748 0.45212-1.3426 1.0071-1.8881 2.7773-2.3848-0.84083-1.0247-1.2239-1.0006-1.9863-1.709-1.0752-1.0082-2.0376-2.5234-2.2461-3.5234-0.10991-0.90854 0.46258-1.6305 0.85742-2.2793 0.77529-1.2082 0.73884-2.5713 0.42188-3.6895-0.31697-1.1181-0.94366-1.863-1.9062-2.5488-1.1066-0.7885-1.7412-1.3275-2.627-2.084-0.86302-0.73856-1.4617-2.0894-1.6445-3.1504l-2.7129-0.52148c-0.15807-0.13697-1.2761-1.1117-2.9727-2.377-1.8112-1.3507-4.0473-2.8757-6.0098-3.5938-1.8693-0.62386-3.4498-0.97019-5.0449-0.95898zm0.0918 1.7246c0.28686 5e-3 0.57691 0.02404 0.86914 0.05469 1.1689 0.12261 2.367 0.43775 3.4766 0.84375 1.5896 0.58162 3.8049 2.0418 5.5586 3.3496s3.0684 2.4531 3.0684 2.4531c0.64912 0.41188 1.7639 0.06781 2.5254 0.21484 0.36147 0.87017 0.78853 1.9662 1.5781 2.6406 0.9462 0.8082 2.0454 1.5745 3.002 2.3184 0.37376 0.5759 1.1558 1.2708 1.377 2.0508 0.2315 0.81664-0.09655 1.6238-0.54102 2.3164-0.38961 0.60714-0.71894 1.1255-0.93945 1.7031-0.22052 0.57766-0.30014 1.2324-0.16211 1.8945 0.36208 1.7368 2.0047 3.0512 3.1914 4.1641 0.59557 0.5585 0.94997 0.52008 1.377 0.84766-0.89259 0.48604-1.8318 1.2671-2.0508 2.0449-0.32554 1.1561 0.05812 1.9455 0.75 2.8184 0.69188 0.87285 1.5256 1.3979 2.4395 1.8984 0.61834 0.40226 1.3312 0.50865 1.9551 0.57422 0.67089 2.3587 2.007 4.6235 3.1641 6.1523 1.0857 1.4346 3.5366 2.9289 6.0098 4.8145 0.57235 1.1903 0.33785 2.3334-0.0898 3.4648 0.46628 0.92234 0.74584 1.9538 0.66992 2.4082-0.0759 0.45445-0.50822 0.53431-0.82617 1.4746-0.31794 0.9403-0.498 1.4188-0.75 1.75-0.25201 0.33123-0.61165 0.55914-1.1465 0.72266-1.0697 0.32704-2.7607 0.2734-4.8398 0.75-2.0792 0.4766-3.4781 0.50587-4.8164 0.16602-1.3383-0.33986-2.8101-1.4783-4.6699-1.9473s-3.1139 0.04023-4.8145-1.7969c-0.51583-0.55724-1.1622-1.5407-1.7051-2.3242-1.1788-1.7014-3.3138-2.6241-4.6836-3.6797-1.8581-1.4319-3.9562-3.1783-4.8691-4.9805-2.6839-5.298-3.0761-8.9717-4.6738-11.404-1.0944-1.6663-2.9692-2.206-4.7559-2.8164-0.89334-0.30518-1.9044-0.31039-2.5781-0.55859-0.67369-0.2482-1.1376-0.52488-1.5684-0.82031-1.2627-0.86608-1.7149-2.093-1.957-3.2734-0.24216-1.1805 0.28737-2.6915 0.0625-2.6973-0.42881-0.01105-0.92774 1.3651-0.63281 2.8027 0.29493 1.4377 0.56268 2.3734 1.5801 3.4629 0.20997 0.22484 0.51119 0.45925 0.83398 0.68164 2.1703 1.5858 1.0185 9.1754 1.4354 13.115 0.2103 1.9874 1.9631 4.4846 3.006 5.6211 1.0972 1.1957 2.0988 2.4479 3.9102 2.459 1.4335 0.0088 3.1134-1.1099 3.4473-1.8535 0.42395 0.87991 1.719 1.8152 2.9668 2.2266 1.359 0.44802 2.86 0.64355 4.1328 0.01563 1.4337 1.0511 2.728 1.9819 2.8496 2.5703 0.5337 2.5824-0.6546 5.5137-1.9766 7.4023-1.3443 1.8979-3.2216 3.5292-4.6094 5.8574-1.2157 2.0395-2.085 4.0876-2.6289 6.082s-0.61261 3.8771 0.37891 5.6875l1.125 2.0625 3.8535 2.627c0.29414 0.4871 0.74206 1.961 0.50195 2.7363-0.24889 0.8037-0.74622 1.3725-2.4785 1.8906-1.7323 0.5181-4.5301 0.0587-5.8945-0.65039 0 0-1.282 0.24659-2.3613 0.44336s-2.4001 0.28778-2.8281 0.17969c-0.53755-0.13575-0.65873-0.29231-0.81836-0.67578s-0.23914-1.0367-0.29688-1.8262c-0.03989-0.54548 0.41393-1.8352 0.95898-2.8574s0.56842-1.4697 1.043-2.7363c0.40085-1.0699-0.19064-2.7258-0.84766-3.9766-0.65702-1.2507-0.98862-2.3062-0.86914-3.332 0.29317-2.5172 1.2644-4.649 1.5312-7.0332 2.6595-0.70139 4.5679-2.3354 6.1152-4.1719 1.6588-1.9688 2.0645-5.1336 3.834-6.6699 0.39875-0.34622 1.7534 0.75099 2.4102 0.69141 0.37786-0.03428 0.8232-0.13804 1.2207-0.41992s0.95742-1.5194 0.54102-1.7676c-0.32489-0.19362 0.17846 1.0601-1.9219 1.4141-0.99577 0.16782-1.7606-1.3174-2.4512-0.77734-2.208 1.7266-3.1084 5.0206-4.6738 6.8906-1.5316 1.8296-3.2249 3.1216-5.7383 3.5957-0.10344-0.09002-0.41949-0.58828-0.45703-0.8418-0.02685-1.019 0.01999-1.7312 0.01758-2.7266-1.255-0.5828-2.5809-0.8822-4.1309-0.28516-0.16934 1.0032-0.66398 1.9653-1.2461 2.6152-0.89688 0.53342-1.4577 0.59109-2.3125 0.54102-0.57356-0.97021-1.0618-1.9854-1.0371-2.9043 0.02925-1.0896 0.77378-2.3308 0.39648-2.4121-0.53315-0.05903-1.1081 1.0377-1.1426 2.3203-0.03443 1.2826 0.24293 2.678 1.0703 4.1836 0.38781 0.7057 0.52198 1.3009 0.74024 1.9141 0.37015 1.04 0.7507 2.3266 0.82031 3.0449 0.13861 1.4302-0.274 3.0021-0.68164 4.6758s-0.81157 3.4686-0.36719 5.3301c0.5791 2.4258 2.511 3.1112 2.9609 4.957 0.14906 0.61147 0.25462 1.2535 0.29297 1.9004 0.03741 0.63107-0.51268 1.0954-0.78711 1.2969-1.3255 0.17519-2.651 0.13369-3.9766-0.16602-2.2146 0.26691-4.5132 0.70493-6.6543 0.67383-1.38-0.02005-2.2375-0.17793-3.2988-0.73047-0.53949-0.28086-0.70461-0.80593-0.76758-1.2383-0.03641-0.25003 0.11075-1.0072 0.51172-1.7109 0.63993-1.1231 1.5505-2.3388 2.377-2.8516 1.4099-0.87479 1.9998-2.3649 1.9453-4.0918-0.05445-1.7269-0.43971-3.6221-0.75586-5.3516-0.59108-3.2333-1.5507-5.215-2.5977-6.7598-1.1352-1.675-2.3219-2.7384-3.0059-3.9688-0.68397-1.2303-0.93026-2.0284-1.1523-2.8105-0.22208-0.78218-0.56994-1.5598-1.002-2.6719-0.78346-2.0167-2.1131-3.7517-3.2852-5.4844-1.172-1.7327-2.3575-3.4737-2.5469-5.1914-0.22232-2.017 0.33631-5.9838 1.3223-9.0059s2.4181-5.3121 2.1348-5.627c-0.22041-0.12595-1.8926 2.1607-2.9062 5.2676s-2.01 6.7576-1.7148 9.4355c0.24558 2.2281 1.4114 4.1355 2.6211 5.9238s2.4787 3.4804 3.1328 5.1641c0.38165 0.9824 0.54858 1.7575 0.79102 2.6113 0.14064 0.49534 0.31863 1.0181 0.56641 1.5801-2.7438 0.09397-5.4526-0.70375-7.4707-1.6113-2.9863-1.343-6.0646-3.2914-8.9492-5.1309l0.0078-0.01172c-0.69068-0.4789-1.349-1.13-1.6855-2.2363s-0.61532-2.5326-0.80078-3.9316-0.7498-2.8359-1.1523-4.1445c-0.40255-1.3087-0.83496-2.2495-1.1094-2.0469-0.19822 0.14637-0.0082 1.2165 0.33008 2.3164 0.33833 1.0999 0.55681 2.6173 0.74219 4.0156s0.08702 2.8359 0.48633 4.1484c0.29823 0.98029 0.72867 1.9135 1.4043 2.6543 0.94144 3.4043 0.38506 5.3735 0.15039 7.7871-0.38918 4.0028-0.32515 6.8367 0.61914 9.7344 0.5503 0.43344 1.1813 0.98186 1.4375 1.3926 0.30727 0.49263 0.11128 0.77091 0.39648 1.0742 0.24681 0.26247 0.80232 0.1627 1.207 0.52148 0.81206 0.71991 0.85654 2.0129 0.78906 2.7695-0.06777 0.76-0.21862 1.0589-0.5918 1.1953-1.7933 0.65564-3.2367 0.63877-4.793 0.25977-1.0077 0.50224-1.9918 0.96026-2.9062 1.1641-0.65489 0.14596-1.2985 0.1614-1.7344 0.02734-0.43589-0.13403-0.80148-0.30239-0.91406-0.95703-0.08427-0.49004 0.14972-1.185 0.41211-1.5898 0.3257-0.50248 0.58554-1.1723 0.85742-1.623 1.0633-1.7629 1.3629-2.8187 1.0762-4.0645-0.28686-1.2458-0.45266-0.85288-1.4453-3.5606-0.99271-2.7077-2.0948-10.913-2.7402-13.229-0.32867-1.1792-0.74339-1.7043-1.7793-3.957-1.0359-2.2528-2.1782-5.0105-2.5918-6.8086-0.82002-3.5652-0.94099-7.346-0.60547-11.033 0.31081-3.4156 0.61404-6.937 2.2734-9.584 3.2591-5.1987 7.2431-10.563 12.693-12.928 1.2185-0.52868 2.5428-0.42138 4.2637-0.74414 2.7522-0.51621 5.9014-1.8074 8.2246-1.8535 2.0908-0.04148 4.7402 1.0478 7.2012 2.0391 2.461 0.99131 5.0905 2.3463 7.6953 1.3789 3.0618-1.1371 6.7875-1.957 9.623-1.8164 0.88455 0.04384 1.6579-0.35672 2.2129-0.87305 1.3214-1.3586 2.1165-3.3021 3.5664-4.3438 0.74992-0.27216 1.5789-0.38019 2.4395-0.36523zm-7.9141 25.381c0.70484 0.19927 1.5006 0.18586 2.2715 0.44922 1.703 0.58178 3.577 1.5687 4.2246 2.5547 1.2076 1.8385 1.6016 5.8597 4.3867 11.357 1.0715 2.1151 2.963 3.7669 4.7617 5.1777-0.6013 0.22494-1.3175 0.36205-2.0449 0.10156-1.3737-0.49191-2.4056-1.3713-3.6406-2.2109-1.2074 1.2253-2.0881 1.3267-3.1289 1.4688-1.0834 0.14789-2.3365-0.88671-3.1621-1.6758-0.7864-0.7516-2.5614-3.1586-2.7639-5.0723-0.37571-3.5505 0.24765-9.3814-0.90411-12.15z" color="#000000" color-rendering="auto" fill="#42260e" fill-rule="evenodd" image-rendering="auto" shape-rendering="auto" solid-color="#000000" style="block-progression:tb;isolation:auto;mix-blend-mode:normal;text-decoration-color:#000000;text-decoration-line:none;text-decoration-style:solid;text-indent:0;text-transform:none;white-space:normal"/>
 <path d="m88.625 62.518c2.375-1.5312 3.6562-0.5625 3.6562-0.5625 0.60263 1.0886 0.06352 1.6879 0.09375 2.5312l0.75 1.6562c-0.13942 0.34696-0.2388 0.71393-1.1875 0.65625l-1.8125-0.5c-0.26446 0-1.3308-3.3365-1.5-3.7812z" fill="url(#ab)" fill-rule="evenodd" opacity=".289" stroke="#f60" stroke-width=".14173"/>
 <path d="m77 48.049c0.9375-0.13729 1.875-0.8171 2.8125-1.25l1.6875 0.1875 2 2.25c-0.65094 0.0574-1.0965 0.3202-1.5 0.625-0.66148 0.44276-1.231 0.60976-1.8125 0.8125-0.66667-0.12245-1.3333-0.60704-2-1.5625-0.33599-0.59356-0.77292-0.78332-1.1875-1.0625z" fill="#fff" fill-rule="evenodd" stroke="#f60" stroke-width=".14173"/>
 <path d="m66.312 26.674 2.5625-2.625c0.32336-2.095-0.25653-4.3029 1.25-6.25 0.75345-1.8587 2.4005-2.5684 4.3125-2.9375-0.96356 1.3021-1.3391 1.4282-2 2.125l-0.9375 3.4375-0.5625 3.4375c0.22523 0.73048 0.53024 1.4344 1.25 2-1.302 2.0885-1.0855 3.4178-0.75 4.6875-0.72578-0.01745-1.6345-0.21787-3.1875-1.0625-1.277-0.72712-1.643-1.7579-1.9375-2.8125z" fill="#caad90" fill-rule="evenodd" stroke="#f60" stroke-width=".14173"/>
 <path d="m41.906 59.821c-1.6571-0.07413-5.0946-0.94374-6.6108-0.24653-1.4772 0.67923-2.9886 1.743-3.3966 3.4138-0.24411 0.99977-0.11989 2.2082 0.79327 2.8493 0.83735 0.58789 1.9434 0.54668 2.794 0.02395 1.1298-0.6943 2.009-2.0774 3.4228-2.1838 2.549-0.1918 4.5304 0.05995 6.8766 0.92944 1.8759 0.6952 2.9823 1.0408 3.8315 0.22631 0.90641-0.86944 0.63361-1.9175-0.11184-2.9377-0.41947-0.57405-0.86436-1.0298-1.5378-1.2274-2.5884-0.75953-3.3611-0.72662-6.061-0.8474zm5.3592 1.519c0.27093 0.08307 1.6365 1.0511 1.8438 1.6174 0.15422 0.42131 0.36163 0.86762 0.06864 1.2869-0.46524 0.66585-3.409-0.57397-4.2145-0.72077-2.6756-0.48765-3.1282-0.3418-6.0229-0.77396-1.1023-0.16457-2.2875-0.31576-3.1495 0.36427-0.66196 0.5222-0.94589 2.1717-1.85 2.117-0.74365-0.04499-1.0117-1.0257-0.92868-1.7678 0.15503-1.3853 1.0896-2.1 2.2439-2.691 1.2496-0.63972 3.8944-0.58015 5.264-0.25375 2.5529 0.60839 4.0266-0.0119 6.7451 0.82165z" color="#000000" color-rendering="auto" fill="#42260e" fill-rule="evenodd" image-rendering="auto" shape-rendering="auto" solid-color="#000000" style="block-progression:tb;isolation:auto;mix-blend-mode:normal;text-decoration-color:#000000;text-decoration-line:none;text-decoration-style:solid;text-indent:0;text-transform:none;white-space:normal"/>
 <path d="m97.615 30.551c0.48332 1.7609 0.98554 3.8446 1.0684 4.7598 0.22634 2.501-0.17071 4.7971-1.0996 7.166-0.26311 0.67101-0.97521 1.6832-1.6309 2.3496-0.26919 0.27361-0.80697 1.1229-1.332 0.6375-0.5534-0.51162-0.27844-1.3357 0.03399-1.9097 1.2403-2.2789 2.8895-4.8384 2.4015-5.3625-0.42188-0.4532-5.7977 1.5616-8.1816 2.3418-1.2507 0.40934-2.12 0.96256-2.6465 1.6836s-0.63835 1.5737-0.51172 2.2832c0.12663 0.70946 0.44714 1.306 0.78711 1.7734 0.76164 1.0471 1.6757 1.6397 2.7152 2.1356 0.88265 0.42098 1.3344 0.45424 1.8984 0.18047 0.14643 0.43816 0.24545 1.1407 0.66368 2.2308 0.56195 1.4647 1.1665 3.0304 1.9434 3.9512 2.1057 2.4958 5.6167 5.0738 6.1309 5.3164 0.60488 0.28545 1.2691 0.17215 1.6973-0.16992 1.3163-1.0517 1.7326-3.0313 2.1445-4.4258 0.77203-2.6137 1.3645-5.7886 1.5605-7.9805 0.30728-3.4362 0.21144-8.8029-1.0293-12.227-0.66883-1.8455-1.8565-4.0445-3.1992-5.8008s-2.3436-3.2505-3.6035-2.6104c-1.0941 0.55588-0.29386 1.9159 0.18945 3.6768zm0.34383-2.5733c1.099-0.6395 3.5399 6.5962 4.0246 7.9334 1.0358 2.8582 1.175 8.0011 0.88711 11.22-0.18069 2.0207-0.85006 5.1146-1.5648 7.5941-0.35099 1.2176-0.80351 1.7489-1.9816 1.9938-0.85336 0.17741-3.1776-0.83842-4.8399-2.8087-0.32611-0.38652-1.1912-2.0598-1.7383-3.4727-0.46562-1.2025-0.53978-2.4979-0.44649-3.9691-0.66207 0.7704-1.5071 1.3165-2.1176 1.1164-0.9829-0.32224-1.99-1.0099-2.6066-1.7227-0.25134-0.29049-0.71133-1.2897-0.72108-1.6394-0.03325-1.1924 1.5311-2.4799 2.3762-2.7539 2.0031-0.64934 5.6067-2.4729 6.2414-1.9695 0.24701 0.19593-1.974 2.2502-2.4738 3.0457-0.59514 0.94719-0.88919 1.6378-0.68164 2.3418 0.41572 1.41 2.1056 2.4677 3.3926 2.2168 1.765-0.34406 2.9008-2.4044 3.5254-3.9785 1.02-2.5709 0.77692-4.8752 0.52465-7.6629-0.09461-1.0455-1.921-7.4142-1.8-7.4846z" color="#000000" color-rendering="auto" fill="#cabe7c" fill-rule="evenodd" image-rendering="auto" shape-rendering="auto" solid-color="#000000" style="block-progression:tb;isolation:auto;mix-blend-mode:normal;text-decoration-color:#000000;text-decoration-line:none;text-decoration-style:solid;text-indent:0;text-transform:none;white-space:normal"/>
 <path d="m71.5 30.424-0.25-2.4375 0.8125-2.125-1.125-1.8125c0.60295-2.2059 0.4753-2.9506 0.4375-3.875 0.67382-1.9414 1.1191-4.6447 2.25-5.0625l3.3125 1.3125 1.75 3.6875c-0.79073 2.1285-1.8624 4.0965-3.8125 5.5625-0.10356 1.1679-0.03256 2.6849-0.4375 3.25-0.79561 0.61013-1.3574 1.3605-2.9375 1.5z" fill="url(#q)" fill-rule="evenodd" stroke="#d45500" stroke-width=".14173"/>
 <path d="m71.562 30.58-0.25-2.4375 0.8125-2.125-1.125-1.8125c0.60295-2.2059 0.4753-2.9506 0.4375-3.875 0.67382-1.9414 1.1191-4.6447 2.25-5.0625l3.3125 1.3125 1.75 3.6875c-0.79073 2.1285-1.8624 4.0965-3.8125 5.5625-0.10356 1.1679-0.03256 2.6849-0.4375 3.25-0.79561 0.61013-1.3574 1.3605-2.9375 1.5z" fill="url(#z)" fill-rule="evenodd" opacity=".297" stroke="#d45500" stroke-width=".14173"/>
 <path d="m72.236 16.729c-0.33184 0.66122-0.85118 1.5333-1.0445 2.4-0.19334 0.86673-0.08022 1.7023-0.14181 2.4938-0.06158 0.7915-0.6004 1.7617-0.49333 2.2492 0.32118 1.4624 1.2176 2.0544 1.2539 2.15-1.0513 1.5648-0.89756 3.1006-0.81833 4.5039l1.1094-0.20662c-0.21728-1.4541-1.1917-2.6919 0.45429-4.4121 0 0-0.83129-0.69035-1.1543-2.161-0.05816-0.26482 0.34388-1.3285 0.40154-2.0695s0.1814-1.5135 0.36328-2.3289c0.18188-0.81538 0.31506-1.6763 0.58594-2.216 0.27088-0.53976 0.82584-0.98436 0.93124-0.99608l-0.34622-0.68825c-0.34817 0.03871-0.76923 0.62037-1.1011 1.2816z" color="#000000" color-rendering="auto" fill="#2a190a" fill-rule="evenodd" image-rendering="auto" shape-rendering="auto" solid-color="#000000" style="block-progression:tb;isolation:auto;mix-blend-mode:normal;text-decoration-color:#000000;text-decoration-line:none;text-decoration-style:solid;text-indent:0;text-transform:none;white-space:normal"/>
 <path d="m80.98 46.525c-1.2899-0.12313-2.0104 0.0479-2.5059 0.35938-0.49543 0.31147-0.66291 0.60221-1.1094 0.80273l-0.78711 0.35352 0.69727 0.50781c0.44941 0.3273 0.71389 0.80488 1.0957 1.3047 0.38181 0.49981 0.96775 1.0078 1.877 1.0586 0.63887 0.03573 1.0756-0.33823 1.5703-0.64453 0.49473-0.3063 1.0057-0.59449 1.3516-0.65039l1.0996-0.17774-0.86133-0.70312c-0.34236-0.27948-0.58771-0.72061-0.9043-1.1777-0.31659-0.45713-0.78619-0.96283-1.5234-1.0332zm-0.05151 0.66464c0.36047 0.03441 0.75003 0.48393 1.0178 0.87063 0.15805 0.22821 0.89142 0.74966 1.1105 1.0374-0.64055-0.26931-1.2282 0.5354-1.4992 0.76187-0.44747 0.37396-1.3618 0.34288-1.388 0.34141-0.60942-0.03408-1.1096-0.67629-1.424-1.0878-0.21075-0.27588-0.86358-0.63106-1.1824-0.98767 0.52542 0.03447 1.3634-0.50813 1.5324-0.61439 0.29124-0.1831 0.65437-0.43391 1.8328-0.32142z" color="#000000" color-rendering="auto" fill="#42260e" fill-rule="evenodd" image-rendering="auto" shape-rendering="auto" solid-color="#000000" style="block-progression:tb;isolation:auto;mix-blend-mode:normal;text-decoration-color:#000000;text-decoration-line:none;text-decoration-style:solid;text-indent:0;text-transform:none;white-space:normal"/>
 <path d="m79.473 43.645c-2.3078 0.14601-4.2092 1.5777-4.5234 3.5664-0.28384 1.7964 0.2259 3.2942 1.125 4.3418 0.8991 1.0475 2.1593 1.6593 3.3965 1.8105 1.3939 0.17036 2.5136 0.09012 3.4648-0.34766 0.95122-0.43778 1.483-1.3943 1.2595-1.5445-0.08253-0.05545-0.7318 0.80631-1.4397 1.1321-0.70786 0.32578-1.8908 0.2364-3.1779 0.07908-0.9767-0.11938-2.2083-0.7976-2.9176-1.624s-0.90207-2.1609-0.66184-3.6813c0.29356-1.8579 2.6832-3.5469 5.4585-2.6994 1.7255 0.52693 2.5172 1.8792 2.77 1.7023 0.18526-0.12961-0.71993-1.8978-2.3555-2.4268-0.81589-0.26388-1.6292-0.35726-2.3984-0.30859z" color="#000000" color-rendering="auto" fill="#42260e" fill-rule="evenodd" image-rendering="auto" shape-rendering="auto" solid-color="#000000" style="block-progression:tb;isolation:auto;mix-blend-mode:normal;text-decoration-color:#000000;text-decoration-line:none;text-decoration-style:solid;text-indent:0;text-transform:none;white-space:normal"/>
 <path d="m88.465 62.223c-0.46926 0.43762-0.30646 1.2396 0.01641 1.7636 0.3443 0.55874 0.75474 1.0869 0.96418 1.7175 0.25227 0.75958 0.89339 1.4243 1.7125 1.5273 0.87215 0.1096 1.2357 0.18406 1.8839-0.39088 0.33674-0.29868 0.56418-0.61393 0.43128-1.0905-0.09969-0.35744-0.42094-0.78336-0.61709-1.0718-0.45659-0.67137 0.13477-1.8086-0.05878-2.5679-0.13359-0.52403-0.75111-0.72968-1.255-0.80647-1.1883-0.1811-2.3211 0.21392-3.0774 0.91922zm1.9906-0.13643c0.40931-0.08102 1.3069-0.14279 1.5862 0.19088 0.20864 0.24927-0.29076 1.4473 0.1036 2.4068 0.37768 0.91892 0.69531 1.1336 0.63069 1.577-0.03531 0.24227-0.72657 0.19628-1.2122-0.13182-0.3974-0.2685-0.72494-0.14334-1.0107-0.58263-0.23042-0.35418-0.21943-0.52873-0.41597-0.90292-0.2546-0.48473-0.7817-0.85386-0.85562-1.3938-0.09914-0.72424 0.56962-1.0438 1.174-1.1635z" color="#000000" color-rendering="auto" fill="#42260e" fill-rule="evenodd" image-rendering="auto" shape-rendering="auto" solid-color="#000000" style="block-progression:tb;isolation:auto;mix-blend-mode:normal;text-decoration-color:#000000;text-decoration-line:none;text-decoration-style:solid;text-indent:0;text-transform:none;white-space:normal"/>
 <path d="m81.693 48.604c0 0.60202-0.41901 1.1229-1.007 1.2519-0.58804 0.12898-1.1866-0.16871-1.4386-0.71546s-0.08943-1.1952 0.39065-1.5584 1.1483-0.36551 1.6059 0.02559c0.07043 0.48185-0.46388 0.92532-0.9652 1.35 0.76352 0.25772 1.0422-0.10796 1.4142-0.35355z"/>
 <path d="m84.334 56.507c-0.12642 0.39254 1.8546 1.5123 4.0094 1.6319s4.4389-0.32412 5.8326-0.0058c0.66424 0.15172 1.2311 1.1365 1.9134 1.828 0.68233 0.69158 2.7281 0.81011 3.1227 0.15931 0.39459-0.6508-1.9006-0.11634-2.577-0.80186-0.67634-0.68551-0.98279-1.8785-2.1649-2.1485-1.7084-0.39022-4.0122 0.1543-6.093 0.03887s-3.8948-1.3597-4.0433-0.70199z" color="#000000" color-rendering="auto" fill="#42260e" fill-rule="evenodd" image-rendering="auto" shape-rendering="auto" solid-color="#000000" style="block-progression:tb;isolation:auto;mix-blend-mode:normal;text-decoration-color:#000000;text-decoration-line:none;text-decoration-style:solid;text-indent:0;text-transform:none;white-space:normal"/>
 <path d="m58.688 94.987c0.80848-0.69223 2.2301-0.65248 3.1875-0.1875 1.0501 0.51001 2.2431 1.7332 2 2.875-0.24328 1.1427-1.8446 1.6388-3 1.8125-1.0193 0.15327-2.4558 0.12539-3-0.75-0.67529-1.0862-0.15904-2.9182 0.8125-3.75z" fill="#f7f5eb" fill-rule="evenodd" stroke="#dad2a5" stroke-width="1.063"/>
 <path d="m64.65 95.776c0.41278-0.49319 1.5157-0.52476 2.1585-0.50493 1.021 0.0315 2.3262 1.1056 2.7327 2.0427 0.55707 1.2841-0.37814 2.2818-1.7757 2.2034-1.6446-0.09232-2.6909 0.0135-3.3996-0.94025-0.74595-1.0039-0.5187-1.8418 0.28403-2.8009z" fill="#f7f5eb" fill-rule="evenodd" stroke="#dad2a5" stroke-width="1.063"/>
 <path d="m40.875 98.737c-0.02066-0.53725 1.7-2.5511 3.3125-2.75 2.4782-0.30563 5.4975-0.05874 5.4375 2.4375-0.04547 1.8926-3.232 1.6532-5.125 1.625-1.9193-0.0285-3.5625 0.3125-3.625-1.3125z" fill="#f7f5eb" fill-rule="evenodd" stroke="#dad2a5" stroke-width="1.4173"/>
 <path d="m41.062 93.862c-1.1467 0.3687-2.877 2.4305-2.5625 3.5625 0.27738 0.99842 0.91655 2.6853 1.5625 1.875 1.1839-1.485 1.7919-2.552 3.875-4.0625 0.83738-0.60718-1.8903-1.6916-2.875-1.375z" fill="#f7f5eb" fill-rule="evenodd" stroke="#dad2a5" stroke-width="1.063"/>
 <path d="m50.25 96.612c0.25-0.3125 0.89258-2.0585 2.0625-1.8125 1.541 0.32406 2.4595 2.2192 1.75 3.625-0.58476 1.1587-2.6175 1.9845-3.6875 1.25-0.84231-0.57822-0.87183-2.129-0.125-3.0625z" fill="#f7f5eb" fill-rule="evenodd" stroke="#dad2a5" stroke-width="1.063"/>
 <path d="m10.306 91.228c-0.09369-0.36758 0.79829-2.0118 1.8838-2.3878 1.6682-0.57792 3.7922-0.85479 4.1196 0.8762 0.24829 1.3124-1.9902 1.6192-3.3032 1.8802-1.3312 0.26463-2.4169 0.74326-2.7002-0.36855z" fill="#f7f5eb" fill-rule="evenodd" stroke="#dad2a5" stroke-width="1.4173"/>
 <path d="m16 90.242c-0.01254-0.31306 1.032-1.4866 2.0109-1.6024 1.5044-0.17809 3.3373-0.03423 3.3009 1.4204-0.0276 1.1029-1.962 0.96331-3.1112 0.9469-1.1651-0.0166-2.1626 0.1821-2.2006-0.7648z" fill="#f7f5eb" fill-rule="evenodd" stroke="#dad2a5" stroke-width="1.4173"/>
 <path d="m70.009 95.886c0.20238-0.33892 0.72256-2.2326 1.6696-1.9658 1.2474 0.35146 1.991 2.4069 1.4167 3.9315-0.47337 1.2566-2.1189 2.1523-2.9851 1.3557-0.68187-0.62711-0.70576-2.309-0.10119-3.3215z" fill="#f7f5eb" fill-rule="evenodd" stroke="#dad2a5" stroke-width="1.063"/>
 <path d="m72.236 36.096c-1.3884 1.2718-2.5106 2.793-3.3965 3.5312-0.52211 0.43512-1.9078 1.0064-3.1289 1.0488-1.2211 0.04245-3.0088-0.53613-3.0088-0.53613 0 0.3125 1.742 1.3315 3.0459 1.2861 1.3039-0.04533 2.814-0.18287 3.7734-0.98242 1.0794-0.8996 1.8687-2.5467 3.1504-3.7207s4.5499-1.5892 5.5498-1.9609c-0.12512-0.55928-4.5969 0.06221-5.9854 1.334z" color="#000000" color-rendering="auto" fill="#42260e" fill-rule="evenodd" image-rendering="auto" shape-rendering="auto" solid-color="#000000" style="block-progression:tb;isolation:auto;mix-blend-mode:normal;text-decoration-color:#000000;text-decoration-line:none;text-decoration-style:solid;text-indent:0;text-transform:none;white-space:normal"/>
 <path d="m79.812 56.424c-0.3015-0.04879-0.48035 2.9466-1.0059 4.3594-0.58315 1.5677 1.5559 4.5101 2.0766 4.3201 0.52076-0.19001-1.4383-1.9135-1.02-4.2029 0.27831-1.5233 0.81418-4.3366-0.05078-4.4766z" color="#000000" color-rendering="auto" fill="#42260e" fill-rule="evenodd" image-rendering="auto" shape-rendering="auto" solid-color="#000000" style="block-progression:tb;isolation:auto;mix-blend-mode:normal;text-decoration-color:#000000;text-decoration-line:none;text-decoration-style:solid;text-indent:0;text-transform:none;white-space:normal"/>
 <path d="m74.977 14.309c-0.65064-0.15258-1.4631-0.08673-2.5718 0.67361-1.4081 0.96565-2.8756 1.8129-3.3969 3.1428-0.71811 1.832-0.55775 3.9099-0.54495 5.5762-1.2121 0.84857-1.9887 1.9693-2.7343 3.1094 0.928 2.1694 2.9752 3.8367 4.9598 4.2086 1.0026 0.18792 1.5769-0.2499 2.3199-0.5125 1.0098-0.35687 1.5041-0.76139 2.1746-2.5532 0.21677-0.57924-3.84e-4 -1.1628-3.84e-4 -1.7852l2.9195-3.193c0.57011-0.62351 1.0035-1.4153 1.1715-2.0223 0.24533-0.88639 0.13687-2.508-0.42155-3.4587-0.55842-0.95076-0.77058-0.82153-1.08-1.1756-0.30944-0.3541-0.744-0.73253-1.184-1.1156-0.43998-0.3831-0.95952-0.74168-1.6113-0.89453zm0.46953 2.1414c0.31865 0.27745 0.37496 0.70786 0.68009 1.057 0.22972 0.26287 0.77878 0.45343 0.94803 0.74101 0.70482 1.1976 0.61432 1.7829 0.49023 2.2383-0.10923 0.40084-0.17653 1.1101-0.66211 1.7168l-2.623 3.2773v1.9609c0 1.4715-1.0837 1.7455-1.6016 1.9316-0.44787 0.16096-1.1616 0.5987-1.9109 0.72771-1.2421-0.54665-3.4577-1.8086-4.0089-3.0207 0.65657-1.5946 2.019-2.1102 2.9003-2.918-0.08362-1.8736 0.34313-3.8114 0.97071-5.2754 0.42259-0.98582 1.0956-1.6629 2.0513-2.2394 0.95565-0.57656 1.6659-0.66713 1.8921-0.6141 0.22615 0.05304 0.55517 0.13936 0.87382 0.41681z" color="#000000" color-rendering="auto" fill="#42260e" fill-rule="evenodd" image-rendering="auto" shape-rendering="auto" solid-color="#000000" style="block-progression:tb;isolation:auto;mix-blend-mode:normal;text-decoration-color:#000000;text-decoration-line:none;text-decoration-style:solid;text-indent:0;text-transform:none;white-space:normal"/>
</svg>
