<?xml version="1.0" encoding="UTF-8"?>
<svg enable-background="new 0 0 411.084 377.24" viewBox="0 0 411.084 377.24" xmlns="http://www.w3.org/2000/svg">
 <path d="m270.973,343.915c-3.015-5.85.494-14.964 2.05-21.187 2.904-11.616-.268-22.496 2.051-34.857-5.569.981-14.237,2.675-19.138,5.125-4.495,2.247-3.36-.119-4.784,5.81-.761,3.167.684,6.541.684,9.569 0,6.138 2.953,12.88 3.417,19.138 .459,6.184-.434,12.44-.684,18.453-.575,13.839-3.108,23.345 14.354,19.138 6.094-1.468 11.813-4.102 18.112-4.102 2.166,0 10.593-.523 10.593-2.392 0-4.686-.311-9.405.684-14.012-4.059.145-15.896,2.94-16.402-1.367l-10.937.684" fill="#ffbd00" fill-rule="evenodd" stroke="#0a0a0a" stroke-linecap="square" stroke-miterlimit="10" stroke-width=".3"/>
 <path d="m311.98,347.333c4.15,12.324 17.636-1.96 22.896-5.469 1.54-1.026 12.313-6.521 10.936-2.392-1.705,5.115-3.171,9.493 2.392,12.645 4.409,2.498 25.65-6.882 25.289-2.051-.311,4.149-9.999,4.189-10.936,9.569-.962,5.523 5.12,9.544 9.568,10.936-12.746,9.852-29.847,7.133-44.084,2.393-5.05-1.683-17.17-6.195-20.846-.684-5.875,8.808-13.189,2.364-11.406-5.367 2.823-12.238 2.683-24.054-.213-35.983-1.813-7.468-2.945-15.557-1.025-23.238 1.896-7.586-5.903-16.97-3.76-23.921 1.689-5.478 13.207-9.595 18.454-12.986 0,11.025-1.075,22.257 2.051,32.807 2.011,6.787 1.928,9.96.684,17.087-1.516,8.69-.573,17.486 0,26.654" fill="#ffbd00" fill-rule="evenodd" stroke="#0a0a0a" stroke-linecap="square" stroke-miterlimit="10" stroke-width=".3"/>
 <path d="m152.048,269.417c-14.796.87-31.762,2.266-42.375,14.354-5.696,6.488-4.707,14.431 1.747,20.884 6.61,6.609 14.78,6.503 23.542,3.721-6.065,15.837 28.945.444 33.288-3.898 5.23-5.229 14.156-7.318 20.454-11.366 9.605-6.174 12.537-8.892 23.492-5.239 29.926,9.978 59.833,5.792 87.142-10.594 22.764-13.658 52.66-30.467 65.12-55.399 12.171-24.353 19.264-50.283 13.821-77.535-2.965-14.849-9.679-28.158-19.138-39.983-10.393-12.994-11.06-21.222-4.784-36.907 10.764-26.906-1.102-54.433-28.021-64.588-27.416-10.342-54.63,8.558-60.829,36.907-3.004,13.74 2.464,26.395 6.834,38.958 4.471,12.851 3.77,18.945-1.366,31.782-4.171,10.425-19.697,14.775-26.079,24.045l-27.509,39.958c-21.781,31.631-43.56,63.265-65.339,94.9" fill="#fff" fill-rule="evenodd" stroke="#0a0a0a" stroke-linecap="square" stroke-miterlimit="10" stroke-width=".3"/>
 <path d="m321.55,151.86c.241-9.248 7.147-19.454 5.468-28.706-3.546-19.527-24.727,1.732-34.175,4.101l1.367-.683c-7.161,3.333-18.398,4.101-26.313,4.101-11.691,0-20.832,7.742-31.439,11.278-8.829,2.943-15.924,10.388-20.846,17.77-5.409,8.113-14.815,14.471-21.871,21.529-7.586,7.588-15.203,15.614-24.605,21.187-8.895,5.272-14.232,6.659-20.504,16.062-11.392,17.078-13.482,31.388 9.227,38.957 11.154,3.718 25.634,6.369 37.249,2.393 1.835-.628 6.409-4.793 8.202-4.784 2.369.012 8.24,4.632 10.936,5.468 9.916,3.075 21.889,3.526 32.124,2.05 22.925-3.308 37.915-15.368 53.651-31.097 9.925-9.921 11.677-15.252 13.79-29.058 2.579-16.857 5.159-33.713 7.739-50.568" fill="#ababab" fill-rule="evenodd" stroke="#0a0a0a" stroke-linecap="square" stroke-miterlimit="10" stroke-width=".3"/>
 <path d="m128.127,222.941c-7.897,2.19-16.573,1.066-24.605,3.075-9.068,2.268-15.902,8.098-22.554,14.012-7.383,6.564-19.526,16.078-6.151,22.554 6.704,3.246 16.941,4.785 24.263,4.785 17.625,0 34.41,2.79 52.285,2.05 19.268-.798 43.498,3.82 62.879-1.025 9.314-2.329 19.212.383 27.339-5.81-9.011,2.994-22.713-1.576-31.439-3.759-8.303-2.076-6.43-2.071-14.695.684-5.417,1.806-11.76,1.471-17.429,1.709-11.713.492-24.067.537-35.731-.24-9.171-.612-19.207-2.333-23.756-11.431-5.784-11.568 4.53-17.531 9.594-26.604" fill-rule="evenodd" stroke="#0a0a0a" stroke-linecap="square" stroke-miterlimit="10" stroke-width=".3"/>
 <path d="m45.427,235.927c-10.817.498-42.123,4.16-45.109,17.77-3.987,18.174 30.676,13.978 40.325,13.67-6.588-3.208-17.806-7.106-15.036-17.088 1.721-6.202 14.057-12.629 19.82-14.352" fill="#fff" fill-rule="evenodd" stroke="#0a0a0a" stroke-linecap="square" stroke-miterlimit="10" stroke-width=".3"/>
 <path d="m321.55,151.177c-15.245,3.518-24.18-.428-36.427,11.822-9.545,9.546-16.726,18.854-28.504,24.744-21.815,10.908-48.337-1.398-62.348,26.617-16.136,32.264 17.675,50.625 45.945,48.906 28.98-1.762 54.438-19.454 70.371-43.362 6.137-9.209 15.714-16.057 22.581-24.643 8.038-10.051 10.886-16.487 13.326-28.706 .966-4.833 8.318-24.148 1.025-25.972-11.563-2.893-15.887,7.957-25.969,10.594" fill="#ababab" fill-rule="evenodd" stroke="#0a0a0a" stroke-linecap="square" stroke-miterlimit="10" stroke-width=".3"/>
 <path d="m70.032 230.46c-11.128 2.072-45.109 5.177-45.109 22.212 0 19.979 32.207 14.695 44.426 14.695-6.374-1.703-26.618-0.769-20.846-12.304 5.199-10.39 12.987-17.333 21.529-24.603" fill-rule="evenodd" stroke="#0a0a0a" stroke-linecap="square" stroke-miterlimit="10" stroke-width=".3"/>
 <path d="m100.1 227.04c-21.244 2.706-43.469 3.976-51.603 28.363-5.313 15.932 40.318 11.962 50.919 11.962-6.571-2.65-25.948-0.631-29.731-8.202-5.681-11.371 22.335-28.961 30.415-32.123" fill="#fff" fill-rule="evenodd" stroke="#0a0a0a" stroke-linecap="square" stroke-miterlimit="10" stroke-width=".3"/>
 <path d="m157.52 206.54c-5.043 2.627-17.938 1.702-20.846 7.519-0.981 1.962-6.635 5.924-8.543 8.202-2.396 2.862-5.847 9.758-8.885 11.277-7.771 3.887-1.248 16.862 2.733 20.846 10.638 10.642 32.199 6.835 46.477 6.835-9.407-4.867-28.153-7.657-29.39-21.188-1.256-13.755 16.206-22.89 18.454-33.491" fill="#fff" fill-rule="evenodd" stroke="#0a0a0a" stroke-linecap="square" stroke-miterlimit="10" stroke-width=".3"/>
 <path d="m224.5 266.68-21.871 19.138" fill="none" stroke="#0a0a0a" stroke-linecap="square" stroke-miterlimit="10" stroke-width=".3"/>
 <path d="m134.96 309.06c25.76-17.178 55.871-28.145 83.383-42.375" fill="none" stroke="#0a0a0a" stroke-linecap="square" stroke-miterlimit="10" stroke-width=".3"/>
 <path d="m203.99 268.05c-31.769 9.777-63.337 21.767-93.636 35.541" fill="none" stroke="#0a0a0a" stroke-linecap="square" stroke-miterlimit="10" stroke-width=".3"/>
 <path d="m170.5 269.42c-19.705 4.927-48.133 8.075-64.246 21.188" fill="none" stroke="#0a0a0a" stroke-linecap="square" stroke-miterlimit="10" stroke-width=".3"/>
 <path d="m240.9 190.13c-12.547 27.869-3.774 63.007 30.072 64.93" fill="none" stroke="#0a0a0a" stroke-linecap="square" stroke-miterlimit="10" stroke-width=".3"/>
 <path d="m236.8 198.34c-13.173 0.639-21.599 1.592-34.173 5.467" fill="none" stroke="#0a0a0a" stroke-linecap="square" stroke-miterlimit="10" stroke-width=".3"/>
 <path d="m234.75 203.8c-15.011 1.43-28.3 3.282-41.009 11.619" fill="none" stroke="#0a0a0a" stroke-linecap="square" stroke-miterlimit="10" stroke-width=".3"/>
 <path d="m234.06 210.64c-17.682 3.431-32.525 3.478-43.743 19.821" fill="none" stroke="#0a0a0a" stroke-linecap="square" stroke-miterlimit="10" stroke-width=".3"/>
 <path d="m234.75 218.84c-17.467 0-30.803 3.837-43.06 17.088" fill="none" stroke="#0a0a0a" stroke-linecap="square" stroke-miterlimit="10" stroke-width=".3"/>
 <path d="m235.43 224.99c-15.959 0.51-32.651 4.297-42.375 18.454" fill="none" stroke="#0a0a0a" stroke-linecap="square" stroke-miterlimit="10" stroke-width=".3"/>
 <path d="m238.17 232.51c-15.394 0.893-29.62 6.321-39.642 17.77" fill="none" stroke="#0a0a0a" stroke-linecap="square" stroke-miterlimit="10" stroke-width=".3"/>
 <path d="m241.58 238.66c-9.605 4.904-27.125 7.39-29.39 20.504" fill="none" stroke="#0a0a0a" stroke-linecap="square" stroke-miterlimit="10" stroke-width=".3"/>
 <path d="m247.73 246.18c-8.707 2.635-14.084 8.674-17.77 16.403" fill="none" stroke="#0a0a0a" stroke-linecap="square" stroke-miterlimit="10" stroke-width=".3"/>
 <path d="m253.88 250.96c-2.549 3.464-5.942 6.369-6.833 10.253" fill="none" stroke="#0a0a0a" stroke-linecap="square" stroke-miterlimit="10" stroke-width=".3"/>
 <path d="m151.36 215.42c-8.313-1.993-15.487 1.037-22.555 5.468" fill="none" stroke="#0a0a0a" stroke-linecap="square" stroke-miterlimit="10" stroke-width=".3"/>
 <path d="m145.9 221.57c-8.912-2.09-16.265 1.996-23.238 7.519" fill="none" stroke="#0a0a0a" stroke-linecap="square" stroke-miterlimit="10" stroke-width=".3"/>
 <path d="m142.48 227.72c-9.158-2.352-18.793 4.978-25.972 10.252" fill="none" stroke="#0a0a0a" stroke-linecap="square" stroke-miterlimit="10" stroke-width=".3"/>
 <path d="m139.75 236.61c-7.869-2.594-17.884 3.597-22.555 8.884" fill="none" stroke="#0a0a0a" stroke-linecap="square" stroke-miterlimit="10" stroke-width=".3"/>
 <path d="m139.75 244.13c-7.118-0.958-14.669 3.237-19.137 8.885" fill="none" stroke="#0a0a0a" stroke-linecap="square" stroke-miterlimit="10" stroke-width=".3"/>
 <path d="m146.58 250.96c-7.598-0.166-12.769 2.171-17.771 7.519" fill="none" stroke="#0a0a0a" stroke-linecap="square" stroke-miterlimit="10" stroke-width=".3"/>
 <path d="m153.42 255.06c-4.562 0.428-7.042 3.152-10.251 6.151" fill="none" stroke="#0a0a0a" stroke-linecap="square" stroke-miterlimit="10" stroke-width=".3"/>
 <path d="m313.348,25.418c-4.697,4.731-6.257,13.777.684,17.771" fill="none" stroke="#0a0a0a" stroke-linecap="square" stroke-miterlimit="10" stroke-width=".3"/>
 <path d="m324.967,34.303c.084-7.791-12.123-7.667-12.303,0-.179,7.638 12.093,8.587 12.303,0" fill-rule="evenodd" stroke="#0a0a0a" stroke-linecap="square" stroke-miterlimit="10" stroke-width=".3"/>
 <path d="m318.82 29.519c-2.542 2.021 1.633 7.481 4.101 6.834 4.473-1.172-1.768-6.55-4.101-6.834" fill="#fff" fill-rule="evenodd" stroke="#0a0a0a" stroke-linecap="square" stroke-miterlimit="10" stroke-width=".3"/>
 <path d="m338.636,73.945c-2.72,15.907.321,29.421 11.619,41.008" fill="none" stroke="#0a0a0a" stroke-linecap="square" stroke-miterlimit="10" stroke-width=".3"/>
 <path d="m310.61 325.46c-0.549 3.031-1.763 5.023-4.101 6.835" fill="none" stroke="#0a0a0a" stroke-linecap="square" stroke-miterlimit="10" stroke-width=".3"/>
 <path d="m344.1 348.02c-3.785 3.29-7.674 4.323-12.302 6.151" fill="none" stroke="#0a0a0a" stroke-linecap="square" stroke-miterlimit="10" stroke-width=".3"/>
 <path d="m362.56 362.37c-6.613 2.122-16.504 2.298-23.238 0.684" fill="none" stroke="#0a0a0a" stroke-linecap="square" stroke-miterlimit="10" stroke-width=".3"/>
 <path d="m281.91 344.6c-1.267 1.046-2.813 2.08-4.101 2.734" fill="none" stroke="#0a0a0a" stroke-linecap="square" stroke-miterlimit="10" stroke-width=".3"/>
 <path d="m297.63 345.28c-5.069 2.49-10.208 5.267-15.035 8.202" fill="none" stroke="#0a0a0a" stroke-linecap="square" stroke-miterlimit="10" stroke-width=".3"/>
 <path d="m277.808,347.333c-.811.8-1.734,1.491-2.734,2.05" fill="none" stroke="#0a0a0a" stroke-linecap="square" stroke-miterlimit="10" stroke-width=".3"/>
 <path d="m270.97 326.83c-1.109 1.424-2.615 3.228-3.418 4.101" fill="none" stroke="#0a0a0a" stroke-linecap="square" stroke-miterlimit="10" stroke-width=".3"/>
 <path d="m407.67 54.124 2.733 1.367c-1.993-20.405-42.432-11.093-53.994-24.604 0 9.842-1.896 11.243-7.519 19.137 18.37-1e-3 42.501-2.892 58.78 4.1" fill="#ffbd00" fill-rule="evenodd" stroke="#0a0a0a" stroke-linecap="square" stroke-miterlimit="10" stroke-width=".3"/>
 <path d="m408.351,54.807c-10.228,4.998-22.64,3.46-32.807,8.543-5.452,2.726-11.681,2.392-17.771,2.392-7.015,0-8.277-10.569-9.569-16.403 12.158.626 24.004,1.367 36.224,1.367 8.17.001 17.792-1.142 23.923,4.101" fill="#ffbd00" fill-rule="evenodd" stroke="#0a0a0a" stroke-linecap="square" stroke-miterlimit="10" stroke-width=".3"/>
 <path d="m406.983,48.656c-1.004,3.743.53,6.174 4.101,6.834-.382-2.683-1.773-4.983-4.101-6.834" fill-rule="evenodd" stroke="#0a0a0a" stroke-linecap="square" stroke-miterlimit="10" stroke-width=".3"/>
</svg>
