<?xml version='1.0' encoding='utf-8'?>
<svg xmlns="http://www.w3.org/2000/svg" viewBox="0 0 150.17999 159.32001" id="svg2" height="159.32001mm" width="150.17999mm" version="1.0"> <metadata id="metadata14"> </metadata> <defs id="defs4"> <clipPath id="clipEmfPath1" clipPathUnits="userSpaceOnUse"> <path id="path7" d="m -0.449699,-0.449699 532.443699,0 0,564.521699 -532.443699,0 z"/> </clipPath> <pattern y="0" x="0" height="6" width="6" patternUnits="userSpaceOnUse" id="EMFhbasepattern"/> </defs> <path transform="scale(0.28222222,0.28222222)" id="path10" d="m 502.539,53.814 c -3.561,-0.6746 0,-19.4495 -3.561,-29.6802 C 494.219,15.4022 484.813,1.499 473.72,0.0749498 470.048,0.112425 470.835,6.97033 469.898,9.93085 l -7.682,9.55615 -9.594,19.6743 -14.166,15.5895 -19.449,14.3904 c -7.233,5.284 -10.081,15.9643 -15.102,23.9465 -9.556,12.9663 -33.091,15.6273 -31.854,20.4983 -3.298,6.409 7.57,17.389 11.505,21.549 3.897,4.122 8.619,1.161 10.793,5.996 -7.833,30.542 -28.144,56.174 -50.667,76.186 -35.751,16.489 -143.528,22.485 -160.917,37.025 -39.761,22.373 -59.21,45.495 -70.79,77.911 -17.4258,18.625 -16.6388,22.897 -31.3665,36.425 -9.9308,9.781 -17.2009,16.039 -26.7196,23.497 -5.6212,4.647 -4.9841,0.375 -10.0433,3.935 -2.923,1.574 2.4359,0.262 -0.9743,3.185 -1.1242,0.825 -5.0591,4.947 -7.0828,5.621 -2.0611,0.712 -5.209,1.312 -6.3707,1.462 -1.1992,0.187 2.6233,1.012 1.4615,2.698 -1.1992,1.687 -5.921,2.136 -7.3451,4.422 -1.424,2.286 -1.1992,3.748 -3.4476,6.109 -2.2485,2.361 -7.2702,7.27 -9.781,10.755 -2.54829,3.523 -2.13607,8.544 -3.67254,9.818 l -5.32144,4.198 c -0.861921,3.522 4.68437,-2.549 3.85992,0.936 l -5.0965902,11.917 c 0.4871742,4.497 4.3096102,5.209 7.3076102,5.472 2.47334,2.211 4.75934,7.307 7.56994,7.832 l 9.2188,-3.747 c 1.9112,13.078 5.5463,23.459 3.5227,38.037 l 4.6469,19.037 c 0.1124,8.319 -1.7614,16.864 -1.6864,25.183 l 9.1064,14.353 c 12.4417,-1.012 38.8989,1.349 37.6623,-2.136 0.3372,-3.785 -16.9762,-14.878 -25.483,-22.335 -0.0374,-16.901 -0.1124,-33.803 -0.1499,-50.741 L 82.22,464.614 c 6.5206,-2.473 15.0649,-2.698 22.11,-9.256 9.781,-2.399 20.274,-9.407 32.116,-13.978 15.59,-1.987 28.931,-8.282 37.962,-13.679 16.789,-2.698 19.337,-11.28 23.16,-10.305 5.359,6.071 -7.383,21.96 -13.379,32.565 -4.047,7.907 -6.895,10.081 -10.83,14.878 -3.822,4.797 -10.868,3.747 -10.53,15.14 -0.075,14.69 17.987,17.126 23.271,35.226 l 0.525,9.107 8.807,14.203 c -0.075,4.009 -0.9,6.295 0.749,10.043 l 32.866,7.195 c 4.197,-1.349 12.854,-1.274 12.666,-4.122 l -6.97,-10.231 -17.688,-4.834 -5.284,-6.708 -14.615,-21.848 c 1.461,-10.83 -0.713,-9.144 -4.348,-16.302 l 3.898,-17.276 11.205,-11.729 47.78,-25.146 c 19.525,-8.881 30.992,-26.307 40.248,-51.828 l 2.586,5.959 7.083,-6.259 c 0.075,2.736 -0.862,3.523 -0.787,6.259 l 4.834,-0.937 1.649,2.848 2.174,-4.759 4.834,2.66 3.822,-5.733 -0.974,6.895 6.97,-6.446 c 0.075,2.099 0.15,4.16 0.225,6.259 l 3.86,-3.86 2.211,3.822 4.31,-3.11 1.911,5.734 2.623,-4.31 2.436,4.572 2.136,-3.598 c 4.572,-0.412 4.497,2.886 11.018,-1.199 l 7.42,2.848 c -0.038,1.462 -2.548,4.909 -2.586,6.408 l 2.136,6.596 14.578,37.175 c 2.023,6.446 -0.6,15.14 4.609,18.663 l 3.598,5.996 c 1.499,5.621 -1.574,3.785 2.511,7.719 1.161,2.699 0,7.57 3.185,8.807 0.375,4.947 0.637,7.72 4.16,9.069 2.586,5.734 7.307,17.126 9.743,23.459 0.412,7.083 -0.412,9.369 4.235,14.466 1.911,5.358 2.211,11.879 7.382,17.575 19.338,3.523 32.116,9.969 55.388,10.306 7.758,0.412 16.752,2.548 20.836,0.262 0.638,-2.623 -5.134,-7.682 -7.682,-11.505 l -19.674,-11.504 -9.894,-15.215 -2.323,-49.355 0,-35.713 c 0,-18.775 0.974,-37.588 0,-56.363 3.822,-11.542 6.67,-26.944 11.505,-34.551 13.228,-11.018 41.11,-60.747 46.281,-105.043 3.935,-25.557 3.223,-51.827 -1.911,-76.149 2.548,-13.753 1.162,-38.561 -4.122,-55.987 6.97,-17.3885 9.031,-35.7887 22.859,-52.9522 0.75,-4.0098 -0.187,-12.6665 -3.597,-13.9781 -6.146,-0.5621 -17.876,15.7769 -24.958,12.2543 z" clip-path="url(#clipEmfPath1)" style="fill:#000000;fill-opacity:1;fill-rule:evenodd;stroke:none"/> </svg>